%TF.GenerationSoftware,KiCad,Pcbnew,9.0.3*%
%TF.CreationDate,2026-01-03T20:08:18+00:00*%
%TF.ProjectId,input-panel,696e7075-742d-4706-916e-656c2e6b6963,rev?*%
%TF.SameCoordinates,Original*%
%TF.FileFunction,Legend,Top*%
%TF.FilePolarity,Positive*%
%FSLAX46Y46*%
G04 Gerber Fmt 4.6, Leading zero omitted, Abs format (unit mm)*
G04 Created by KiCad (PCBNEW 9.0.3) date 2026-01-03 20:08:18*
%MOMM*%
%LPD*%
G01*
G04 APERTURE LIST*
%ADD10C,0.150000*%
%ADD11C,0.120000*%
G04 APERTURE END LIST*
D10*
X91704819Y-131336666D02*
X91228628Y-131669999D01*
X91704819Y-131908094D02*
X90704819Y-131908094D01*
X90704819Y-131908094D02*
X90704819Y-131527142D01*
X90704819Y-131527142D02*
X90752438Y-131431904D01*
X90752438Y-131431904D02*
X90800057Y-131384285D01*
X90800057Y-131384285D02*
X90895295Y-131336666D01*
X90895295Y-131336666D02*
X91038152Y-131336666D01*
X91038152Y-131336666D02*
X91133390Y-131384285D01*
X91133390Y-131384285D02*
X91181009Y-131431904D01*
X91181009Y-131431904D02*
X91228628Y-131527142D01*
X91228628Y-131527142D02*
X91228628Y-131908094D01*
X91038152Y-130479523D02*
X91704819Y-130479523D01*
X90657200Y-130717618D02*
X91371485Y-130955713D01*
X91371485Y-130955713D02*
X91371485Y-130336666D01*
X79204819Y-122586666D02*
X78728628Y-122919999D01*
X79204819Y-123158094D02*
X78204819Y-123158094D01*
X78204819Y-123158094D02*
X78204819Y-122777142D01*
X78204819Y-122777142D02*
X78252438Y-122681904D01*
X78252438Y-122681904D02*
X78300057Y-122634285D01*
X78300057Y-122634285D02*
X78395295Y-122586666D01*
X78395295Y-122586666D02*
X78538152Y-122586666D01*
X78538152Y-122586666D02*
X78633390Y-122634285D01*
X78633390Y-122634285D02*
X78681009Y-122681904D01*
X78681009Y-122681904D02*
X78728628Y-122777142D01*
X78728628Y-122777142D02*
X78728628Y-123158094D01*
X78204819Y-122253332D02*
X78204819Y-121634285D01*
X78204819Y-121634285D02*
X78585771Y-121967618D01*
X78585771Y-121967618D02*
X78585771Y-121824761D01*
X78585771Y-121824761D02*
X78633390Y-121729523D01*
X78633390Y-121729523D02*
X78681009Y-121681904D01*
X78681009Y-121681904D02*
X78776247Y-121634285D01*
X78776247Y-121634285D02*
X79014342Y-121634285D01*
X79014342Y-121634285D02*
X79109580Y-121681904D01*
X79109580Y-121681904D02*
X79157200Y-121729523D01*
X79157200Y-121729523D02*
X79204819Y-121824761D01*
X79204819Y-121824761D02*
X79204819Y-122110475D01*
X79204819Y-122110475D02*
X79157200Y-122205713D01*
X79157200Y-122205713D02*
X79109580Y-122253332D01*
X84261905Y-132954819D02*
X84261905Y-131954819D01*
X84261905Y-131954819D02*
X84500000Y-131954819D01*
X84500000Y-131954819D02*
X84642857Y-132002438D01*
X84642857Y-132002438D02*
X84738095Y-132097676D01*
X84738095Y-132097676D02*
X84785714Y-132192914D01*
X84785714Y-132192914D02*
X84833333Y-132383390D01*
X84833333Y-132383390D02*
X84833333Y-132526247D01*
X84833333Y-132526247D02*
X84785714Y-132716723D01*
X84785714Y-132716723D02*
X84738095Y-132811961D01*
X84738095Y-132811961D02*
X84642857Y-132907200D01*
X84642857Y-132907200D02*
X84500000Y-132954819D01*
X84500000Y-132954819D02*
X84261905Y-132954819D01*
X85738095Y-131954819D02*
X85261905Y-131954819D01*
X85261905Y-131954819D02*
X85214286Y-132431009D01*
X85214286Y-132431009D02*
X85261905Y-132383390D01*
X85261905Y-132383390D02*
X85357143Y-132335771D01*
X85357143Y-132335771D02*
X85595238Y-132335771D01*
X85595238Y-132335771D02*
X85690476Y-132383390D01*
X85690476Y-132383390D02*
X85738095Y-132431009D01*
X85738095Y-132431009D02*
X85785714Y-132526247D01*
X85785714Y-132526247D02*
X85785714Y-132764342D01*
X85785714Y-132764342D02*
X85738095Y-132859580D01*
X85738095Y-132859580D02*
X85690476Y-132907200D01*
X85690476Y-132907200D02*
X85595238Y-132954819D01*
X85595238Y-132954819D02*
X85357143Y-132954819D01*
X85357143Y-132954819D02*
X85261905Y-132907200D01*
X85261905Y-132907200D02*
X85214286Y-132859580D01*
X91704819Y-117586666D02*
X91228628Y-117919999D01*
X91704819Y-118158094D02*
X90704819Y-118158094D01*
X90704819Y-118158094D02*
X90704819Y-117777142D01*
X90704819Y-117777142D02*
X90752438Y-117681904D01*
X90752438Y-117681904D02*
X90800057Y-117634285D01*
X90800057Y-117634285D02*
X90895295Y-117586666D01*
X90895295Y-117586666D02*
X91038152Y-117586666D01*
X91038152Y-117586666D02*
X91133390Y-117634285D01*
X91133390Y-117634285D02*
X91181009Y-117681904D01*
X91181009Y-117681904D02*
X91228628Y-117777142D01*
X91228628Y-117777142D02*
X91228628Y-118158094D01*
X90800057Y-117205713D02*
X90752438Y-117158094D01*
X90752438Y-117158094D02*
X90704819Y-117062856D01*
X90704819Y-117062856D02*
X90704819Y-116824761D01*
X90704819Y-116824761D02*
X90752438Y-116729523D01*
X90752438Y-116729523D02*
X90800057Y-116681904D01*
X90800057Y-116681904D02*
X90895295Y-116634285D01*
X90895295Y-116634285D02*
X90990533Y-116634285D01*
X90990533Y-116634285D02*
X91133390Y-116681904D01*
X91133390Y-116681904D02*
X91704819Y-117253332D01*
X91704819Y-117253332D02*
X91704819Y-116634285D01*
X84261905Y-112954819D02*
X84261905Y-111954819D01*
X84261905Y-111954819D02*
X84500000Y-111954819D01*
X84500000Y-111954819D02*
X84642857Y-112002438D01*
X84642857Y-112002438D02*
X84738095Y-112097676D01*
X84738095Y-112097676D02*
X84785714Y-112192914D01*
X84785714Y-112192914D02*
X84833333Y-112383390D01*
X84833333Y-112383390D02*
X84833333Y-112526247D01*
X84833333Y-112526247D02*
X84785714Y-112716723D01*
X84785714Y-112716723D02*
X84738095Y-112811961D01*
X84738095Y-112811961D02*
X84642857Y-112907200D01*
X84642857Y-112907200D02*
X84500000Y-112954819D01*
X84500000Y-112954819D02*
X84261905Y-112954819D01*
X85166667Y-111954819D02*
X85785714Y-111954819D01*
X85785714Y-111954819D02*
X85452381Y-112335771D01*
X85452381Y-112335771D02*
X85595238Y-112335771D01*
X85595238Y-112335771D02*
X85690476Y-112383390D01*
X85690476Y-112383390D02*
X85738095Y-112431009D01*
X85738095Y-112431009D02*
X85785714Y-112526247D01*
X85785714Y-112526247D02*
X85785714Y-112764342D01*
X85785714Y-112764342D02*
X85738095Y-112859580D01*
X85738095Y-112859580D02*
X85690476Y-112907200D01*
X85690476Y-112907200D02*
X85595238Y-112954819D01*
X85595238Y-112954819D02*
X85309524Y-112954819D01*
X85309524Y-112954819D02*
X85214286Y-112907200D01*
X85214286Y-112907200D02*
X85166667Y-112859580D01*
X84261905Y-122954819D02*
X84261905Y-121954819D01*
X84261905Y-121954819D02*
X84500000Y-121954819D01*
X84500000Y-121954819D02*
X84642857Y-122002438D01*
X84642857Y-122002438D02*
X84738095Y-122097676D01*
X84738095Y-122097676D02*
X84785714Y-122192914D01*
X84785714Y-122192914D02*
X84833333Y-122383390D01*
X84833333Y-122383390D02*
X84833333Y-122526247D01*
X84833333Y-122526247D02*
X84785714Y-122716723D01*
X84785714Y-122716723D02*
X84738095Y-122811961D01*
X84738095Y-122811961D02*
X84642857Y-122907200D01*
X84642857Y-122907200D02*
X84500000Y-122954819D01*
X84500000Y-122954819D02*
X84261905Y-122954819D01*
X85690476Y-122288152D02*
X85690476Y-122954819D01*
X85452381Y-121907200D02*
X85214286Y-122621485D01*
X85214286Y-122621485D02*
X85833333Y-122621485D01*
D11*
%TO.C,R4*%
X91250000Y-127130000D02*
X91250000Y-127900000D01*
X91250000Y-135210000D02*
X91250000Y-134440000D01*
X92620000Y-127900000D02*
X89880000Y-127900000D01*
X89880000Y-134440000D01*
X92620000Y-134440000D01*
X92620000Y-127900000D01*
%TO.C,R3*%
X78750000Y-118380000D02*
X78750000Y-119150000D01*
X78750000Y-126460000D02*
X78750000Y-125690000D01*
X77380000Y-125690000D02*
X80120000Y-125690000D01*
X80120000Y-119150000D01*
X77380000Y-119150000D01*
X77380000Y-125690000D01*
%TO.C,D5*%
X82435000Y-134705000D02*
X82435000Y-137795000D01*
X82435000Y-134705170D02*
G75*
G02*
X87985000Y-136250000I2560000J-1544830D01*
G01*
X87985000Y-136250000D02*
G75*
G02*
X82435000Y-137794830I-2990000J0D01*
G01*
X87495000Y-136250000D02*
G75*
G02*
X82495000Y-136250000I-2500000J0D01*
G01*
X82495000Y-136250000D02*
G75*
G02*
X87495000Y-136250000I2500000J0D01*
G01*
%TO.C,R2*%
X91250000Y-113380000D02*
X91250000Y-114150000D01*
X91250000Y-121460000D02*
X91250000Y-120690000D01*
X92620000Y-114150000D02*
X89880000Y-114150000D01*
X89880000Y-120690000D01*
X92620000Y-120690000D01*
X92620000Y-114150000D01*
%TO.C,D3*%
X82435000Y-114705000D02*
X82435000Y-117795000D01*
X82435000Y-114705170D02*
G75*
G02*
X87985000Y-116250000I2560000J-1544830D01*
G01*
X87985000Y-116250000D02*
G75*
G02*
X82435000Y-117794830I-2990000J0D01*
G01*
X87495000Y-116250000D02*
G75*
G02*
X82495000Y-116250000I-2500000J0D01*
G01*
X82495000Y-116250000D02*
G75*
G02*
X87495000Y-116250000I2500000J0D01*
G01*
%TO.C,D4*%
X82435000Y-124705000D02*
X82435000Y-127795000D01*
X82435000Y-124705170D02*
G75*
G02*
X87985000Y-126250000I2560000J-1544830D01*
G01*
X87985000Y-126250000D02*
G75*
G02*
X82435000Y-127794830I-2990000J0D01*
G01*
X87495000Y-126250000D02*
G75*
G02*
X82495000Y-126250000I-2500000J0D01*
G01*
X82495000Y-126250000D02*
G75*
G02*
X87495000Y-126250000I2500000J0D01*
G01*
%TD*%
M02*
