M48
; DRILL file {KiCad 9.0.3} date 2026-01-03T20:08:19+0000
; FORMAT={-:-/ absolute / inch / decimal}
; #@! TF.CreationDate,2026-01-03T20:08:19+00:00
; #@! TF.GenerationSoftware,Kicad,Pcbnew,9.0.3
; #@! TF.FileFunction,MixedPlating,1,2
FMAT,2
INCH
; #@! TA.AperFunction,Plated,PTH,ComponentDrill
T1C0.0315
; #@! TA.AperFunction,Plated,PTH,ComponentDrill
T2C0.0354
; #@! TA.AperFunction,Plated,PTH,ComponentDrill
T3C0.0394
; #@! TA.AperFunction,Plated,PTH,ComponentDrill
T4C0.1260
%
G90
G05
T1
X3.1004Y-4.6197
X3.1004Y-5.0197
X3.5925Y-4.4228
X3.5925Y-4.8228
X3.5925Y-4.9642
X3.5925Y-5.3642
T2
X3.2963Y-4.5768
X3.2963Y-4.9705
X3.2963Y-5.3642
X3.3963Y-4.5768
X3.3963Y-4.9705
X3.3963Y-5.3642
T3
X3.2965Y-3.5127
X3.2965Y-3.6127
X3.2965Y-3.7127
X3.2965Y-3.8127
X3.2965Y-3.9127
X3.2965Y-4.0127
X3.2965Y-4.1127
X3.2965Y-4.2127
X3.3965Y-3.5127
X3.3965Y-3.6127
X3.3965Y-3.7127
X3.3965Y-3.8127
X3.3965Y-3.9127
X3.3965Y-4.0127
X3.3965Y-4.1127
X3.3965Y-4.2127
T4
X3.3465Y-3.0217
X3.3465Y-5.9154
M30
