%TF.GenerationSoftware,KiCad,Pcbnew,9.0.3*%
%TF.CreationDate,2026-01-03T20:08:18+00:00*%
%TF.ProjectId,input-panel,696e7075-742d-4706-916e-656c2e6b6963,rev?*%
%TF.SameCoordinates,Original*%
%TF.FileFunction,Copper,L1,Top*%
%TF.FilePolarity,Positive*%
%FSLAX46Y46*%
G04 Gerber Fmt 4.6, Leading zero omitted, Abs format (unit mm)*
G04 Created by KiCad (PCBNEW 9.0.3) date 2026-01-03 20:08:18*
%MOMM*%
%LPD*%
G01*
G04 APERTURE LIST*
G04 Aperture macros list*
%AMRoundRect*
0 Rectangle with rounded corners*
0 $1 Rounding radius*
0 $2 $3 $4 $5 $6 $7 $8 $9 X,Y pos of 4 corners*
0 Add a 4 corners polygon primitive as box body*
4,1,4,$2,$3,$4,$5,$6,$7,$8,$9,$2,$3,0*
0 Add four circle primitives for the rounded corners*
1,1,$1+$1,$2,$3*
1,1,$1+$1,$4,$5*
1,1,$1+$1,$6,$7*
1,1,$1+$1,$8,$9*
0 Add four rect primitives between the rounded corners*
20,1,$1+$1,$2,$3,$4,$5,0*
20,1,$1+$1,$4,$5,$6,$7,0*
20,1,$1+$1,$6,$7,$8,$9,0*
20,1,$1+$1,$8,$9,$2,$3,0*%
G04 Aperture macros list end*
%TA.AperFunction,ComponentPad*%
%ADD10C,1.600000*%
%TD*%
%TA.AperFunction,ComponentPad*%
%ADD11C,5.600000*%
%TD*%
%TA.AperFunction,ComponentPad*%
%ADD12R,1.800000X1.800000*%
%TD*%
%TA.AperFunction,ComponentPad*%
%ADD13C,1.800000*%
%TD*%
%TA.AperFunction,ComponentPad*%
%ADD14RoundRect,0.250000X0.600000X0.600000X-0.600000X0.600000X-0.600000X-0.600000X0.600000X-0.600000X0*%
%TD*%
%TA.AperFunction,ComponentPad*%
%ADD15C,1.700000*%
%TD*%
%TA.AperFunction,Conductor*%
%ADD16C,0.304800*%
%TD*%
G04 APERTURE END LIST*
D10*
%TO.P,R4,1*%
%TO.N,+5V*%
X91250000Y-126090000D03*
%TO.P,R4,2*%
%TO.N,Net-(D5-A)*%
X91250000Y-136250000D03*
%TD*%
D11*
%TO.P,H1,1,1*%
%TO.N,GND*%
X85000000Y-76750000D03*
%TD*%
D10*
%TO.P,R3,1*%
%TO.N,Net-(D4-K)*%
X78750000Y-127500000D03*
%TO.P,R3,2*%
%TO.N,-12V*%
X78750000Y-117340000D03*
%TD*%
D12*
%TO.P,D5,1,K*%
%TO.N,GND*%
X83725000Y-136250000D03*
D13*
%TO.P,D5,2,A*%
%TO.N,Net-(D5-A)*%
X86265000Y-136250000D03*
%TD*%
D10*
%TO.P,R2,1*%
%TO.N,+12V*%
X91250000Y-112340000D03*
%TO.P,R2,2*%
%TO.N,Net-(D3-A)*%
X91250000Y-122500000D03*
%TD*%
D12*
%TO.P,D3,1,K*%
%TO.N,GND*%
X83725000Y-116250000D03*
D13*
%TO.P,D3,2,A*%
%TO.N,Net-(D3-A)*%
X86265000Y-116250000D03*
%TD*%
D12*
%TO.P,D4,1,K*%
%TO.N,Net-(D4-K)*%
X83725000Y-126250000D03*
D13*
%TO.P,D4,2,A*%
%TO.N,GND*%
X86265000Y-126250000D03*
%TD*%
D11*
%TO.P,H2,1,1*%
%TO.N,GND*%
X85000000Y-150250000D03*
%TD*%
D14*
%TO.P,J4,1,-12V*%
%TO.N,-12V*%
X86270000Y-89222500D03*
D15*
%TO.P,J4,2,-12V*%
X83730000Y-89222500D03*
%TO.P,J4,3,GND*%
%TO.N,GND*%
X86270000Y-91762500D03*
%TO.P,J4,4,GND*%
X83730000Y-91762500D03*
%TO.P,J4,5,GND*%
X86270000Y-94302500D03*
%TO.P,J4,6,GND*%
X83730000Y-94302500D03*
%TO.P,J4,7,GND*%
X86270000Y-96842500D03*
%TO.P,J4,8,GND*%
X83730000Y-96842500D03*
%TO.P,J4,9,+12V*%
%TO.N,+12V*%
X86270000Y-99382500D03*
%TO.P,J4,10,+12V*%
X83730000Y-99382500D03*
%TO.P,J4,11,+5V*%
%TO.N,+5V*%
X86270000Y-101922500D03*
%TO.P,J4,12,+5V*%
X83730000Y-101922500D03*
%TO.P,J4,13,CV*%
%TO.N,unconnected-(J4B-CV-Pad13)_1*%
X86270000Y-104462500D03*
%TO.P,J4,14,CV*%
%TO.N,unconnected-(J4B-CV-Pad13)*%
X83730000Y-104462500D03*
%TO.P,J4,15,Gate*%
%TO.N,unconnected-(J4B-Gate-Pad15)*%
X86270000Y-107002500D03*
%TO.P,J4,16,Gate*%
%TO.N,unconnected-(J4B-Gate-Pad15)_1*%
X83730000Y-107002500D03*
%TD*%
D16*
%TO.N,Net-(D3-A)*%
X86265000Y-118750000D02*
X90015000Y-122500000D01*
X90015000Y-122500000D02*
X91250000Y-122500000D01*
X86265000Y-116250000D02*
X86265000Y-118750000D01*
%TO.N,Net-(D4-K)*%
X78750000Y-127500000D02*
X82725000Y-127500000D01*
X82725000Y-127500000D02*
X83725000Y-126500000D01*
%TO.N,Net-(D5-A)*%
X91250000Y-136250000D02*
X86265000Y-136250000D01*
%TO.N,-12V*%
X78750000Y-94202500D02*
X78750000Y-117340000D01*
X83730000Y-89222500D02*
X78750000Y-94202500D01*
X86270000Y-89222500D02*
X83730000Y-89222500D01*
%TO.N,+12V*%
X86270000Y-99382500D02*
X88882500Y-99382500D01*
X86270000Y-99382500D02*
X83730000Y-99382500D01*
X88882500Y-99382500D02*
X91250000Y-101750000D01*
X91250000Y-101750000D02*
X91250000Y-112340000D01*
%TO.N,+5V*%
X86270000Y-101922500D02*
X88750000Y-104402500D01*
X88750000Y-104402500D02*
X88750000Y-115000000D01*
X88750000Y-115000000D02*
X93500000Y-119750000D01*
X93500000Y-123840000D02*
X91250000Y-126090000D01*
X86270000Y-101922500D02*
X83730000Y-101922500D01*
X93500000Y-119750000D02*
X93500000Y-123840000D01*
%TD*%
%TA.AperFunction,Conductor*%
%TO.N,GND*%
G36*
X85804075Y-97035493D02*
G01*
X85869901Y-97149507D01*
X85962993Y-97242599D01*
X86077007Y-97308425D01*
X86140590Y-97325462D01*
X85508282Y-97957769D01*
X85508282Y-97957770D01*
X85562449Y-97997124D01*
X85562682Y-97997243D01*
X85562755Y-97997312D01*
X85566604Y-97999671D01*
X85566108Y-98000479D01*
X85613479Y-98045216D01*
X85630275Y-98113037D01*
X85607739Y-98179172D01*
X85562693Y-98218209D01*
X85557994Y-98220603D01*
X85384993Y-98346296D01*
X85233796Y-98497493D01*
X85233791Y-98497499D01*
X85108110Y-98670485D01*
X85103778Y-98673825D01*
X85101505Y-98678803D01*
X85076402Y-98694935D01*
X85052780Y-98713151D01*
X85046108Y-98714403D01*
X85042727Y-98716577D01*
X85007792Y-98721600D01*
X84992208Y-98721600D01*
X84925169Y-98701915D01*
X84891890Y-98670485D01*
X84766208Y-98497499D01*
X84766203Y-98497493D01*
X84615006Y-98346296D01*
X84615004Y-98346294D01*
X84442009Y-98220606D01*
X84442010Y-98220606D01*
X84442008Y-98220605D01*
X84437311Y-98218212D01*
X84386517Y-98170235D01*
X84369724Y-98102414D01*
X84392264Y-98036280D01*
X84433790Y-98000301D01*
X84433402Y-97999668D01*
X84437229Y-97997322D01*
X84437327Y-97997238D01*
X84437556Y-97997121D01*
X84491716Y-97957770D01*
X84491717Y-97957770D01*
X83859408Y-97325462D01*
X83922993Y-97308425D01*
X84037007Y-97242599D01*
X84130099Y-97149507D01*
X84195925Y-97035493D01*
X84212962Y-96971908D01*
X84845270Y-97604217D01*
X84845270Y-97604216D01*
X84884622Y-97550054D01*
X84889514Y-97540454D01*
X84937488Y-97489657D01*
X85005308Y-97472861D01*
X85071444Y-97495397D01*
X85110486Y-97540454D01*
X85115375Y-97550050D01*
X85154728Y-97604216D01*
X85787037Y-96971908D01*
X85804075Y-97035493D01*
G37*
%TD.AperFunction*%
%TA.AperFunction,Conductor*%
G36*
X85804075Y-94495493D02*
G01*
X85869901Y-94609507D01*
X85962993Y-94702599D01*
X86077007Y-94768425D01*
X86140590Y-94785462D01*
X85508282Y-95417769D01*
X85508282Y-95417770D01*
X85562452Y-95457126D01*
X85572048Y-95462016D01*
X85622844Y-95509991D01*
X85639638Y-95577812D01*
X85617100Y-95643947D01*
X85572051Y-95682983D01*
X85562440Y-95687880D01*
X85508282Y-95727227D01*
X85508282Y-95727228D01*
X86140591Y-96359537D01*
X86077007Y-96376575D01*
X85962993Y-96442401D01*
X85869901Y-96535493D01*
X85804075Y-96649507D01*
X85787037Y-96713091D01*
X85154728Y-96080782D01*
X85154727Y-96080782D01*
X85115380Y-96134940D01*
X85110483Y-96144551D01*
X85062506Y-96195345D01*
X84994684Y-96212138D01*
X84928550Y-96189598D01*
X84889516Y-96144548D01*
X84884626Y-96134952D01*
X84845270Y-96080782D01*
X84845269Y-96080782D01*
X84212962Y-96713090D01*
X84195925Y-96649507D01*
X84130099Y-96535493D01*
X84037007Y-96442401D01*
X83922993Y-96376575D01*
X83859409Y-96359537D01*
X84491716Y-95727228D01*
X84437550Y-95687875D01*
X84427954Y-95682986D01*
X84377157Y-95635012D01*
X84360361Y-95567192D01*
X84381288Y-95503395D01*
X84460027Y-95386081D01*
X83859408Y-94785462D01*
X83922993Y-94768425D01*
X84037007Y-94702599D01*
X84130099Y-94609507D01*
X84195925Y-94495493D01*
X84212962Y-94431908D01*
X84845270Y-95064217D01*
X84845270Y-95064216D01*
X84884622Y-95010054D01*
X84889514Y-95000454D01*
X84937488Y-94949657D01*
X85005308Y-94932861D01*
X85071444Y-94955397D01*
X85110486Y-95000454D01*
X85115375Y-95010050D01*
X85154728Y-95064216D01*
X85787037Y-94431908D01*
X85804075Y-94495493D01*
G37*
%TD.AperFunction*%
%TA.AperFunction,Conductor*%
G36*
X85804075Y-91955493D02*
G01*
X85869901Y-92069507D01*
X85962993Y-92162599D01*
X86077007Y-92228425D01*
X86140590Y-92245462D01*
X85508282Y-92877769D01*
X85508282Y-92877770D01*
X85562452Y-92917126D01*
X85572048Y-92922016D01*
X85622844Y-92969991D01*
X85639638Y-93037812D01*
X85617100Y-93103947D01*
X85572051Y-93142983D01*
X85562440Y-93147880D01*
X85508282Y-93187227D01*
X85508282Y-93187228D01*
X86140591Y-93819537D01*
X86077007Y-93836575D01*
X85962993Y-93902401D01*
X85869901Y-93995493D01*
X85804075Y-94109507D01*
X85787037Y-94173091D01*
X85154728Y-93540782D01*
X85154727Y-93540782D01*
X85115380Y-93594940D01*
X85110483Y-93604551D01*
X85062506Y-93655345D01*
X84994684Y-93672138D01*
X84928550Y-93649598D01*
X84889516Y-93604548D01*
X84884626Y-93594952D01*
X84845270Y-93540782D01*
X84845269Y-93540782D01*
X84212962Y-94173090D01*
X84195925Y-94109507D01*
X84130099Y-93995493D01*
X84037007Y-93902401D01*
X83922993Y-93836575D01*
X83859409Y-93819537D01*
X84491716Y-93187228D01*
X84437550Y-93147875D01*
X84427954Y-93142986D01*
X84377157Y-93095012D01*
X84360361Y-93027192D01*
X84381288Y-92963395D01*
X84460027Y-92846081D01*
X83859408Y-92245462D01*
X83922993Y-92228425D01*
X84037007Y-92162599D01*
X84130099Y-92069507D01*
X84195925Y-91955493D01*
X84212962Y-91891908D01*
X84845270Y-92524217D01*
X84845270Y-92524216D01*
X84884622Y-92470054D01*
X84889514Y-92460454D01*
X84937488Y-92409657D01*
X85005308Y-92392861D01*
X85071444Y-92415397D01*
X85110486Y-92460454D01*
X85115375Y-92470050D01*
X85154728Y-92524216D01*
X85787037Y-91891908D01*
X85804075Y-91955493D01*
G37*
%TD.AperFunction*%
%TA.AperFunction,Conductor*%
G36*
X84954297Y-90105364D02*
G01*
X84973711Y-90139218D01*
X84974835Y-90138695D01*
X84977884Y-90145235D01*
X84977885Y-90145238D01*
X85070970Y-90296152D01*
X85196348Y-90421530D01*
X85347262Y-90514615D01*
X85393158Y-90529823D01*
X85422123Y-90539421D01*
X85479568Y-90579194D01*
X85506391Y-90643709D01*
X85506415Y-90645361D01*
X86140591Y-91279537D01*
X86077007Y-91296575D01*
X85962993Y-91362401D01*
X85869901Y-91455493D01*
X85804075Y-91569507D01*
X85787037Y-91633091D01*
X85154728Y-91000782D01*
X85154727Y-91000782D01*
X85115380Y-91054940D01*
X85110483Y-91064551D01*
X85062506Y-91115345D01*
X84994684Y-91132138D01*
X84928550Y-91109598D01*
X84889516Y-91064548D01*
X84884626Y-91054952D01*
X84845270Y-91000782D01*
X84845269Y-91000782D01*
X84212962Y-91633090D01*
X84195925Y-91569507D01*
X84130099Y-91455493D01*
X84037007Y-91362401D01*
X83922993Y-91296575D01*
X83859408Y-91279537D01*
X84491716Y-90647228D01*
X84437547Y-90607873D01*
X84437545Y-90607871D01*
X84437308Y-90607751D01*
X84437234Y-90607681D01*
X84433396Y-90605329D01*
X84433890Y-90604522D01*
X84386515Y-90559774D01*
X84369724Y-90491951D01*
X84392266Y-90425818D01*
X84437319Y-90386783D01*
X84442009Y-90384394D01*
X84615004Y-90258706D01*
X84766206Y-90107504D01*
X84766218Y-90107487D01*
X84766876Y-90106718D01*
X84767210Y-90106499D01*
X84769651Y-90104059D01*
X84770163Y-90104571D01*
X84825380Y-90068520D01*
X84895247Y-90068016D01*
X84954297Y-90105364D01*
G37*
%TD.AperFunction*%
%TA.AperFunction,Conductor*%
G36*
X83548393Y-73574985D02*
G01*
X83594148Y-73627789D01*
X83604092Y-73696947D01*
X83575067Y-73760503D01*
X83539807Y-73788658D01*
X83301419Y-73916079D01*
X83301401Y-73916090D01*
X83031829Y-74096212D01*
X83031815Y-74096222D01*
X82849444Y-74245890D01*
X82849443Y-74245891D01*
X84059301Y-75455748D01*
X83957670Y-75529588D01*
X83779588Y-75707670D01*
X83705748Y-75809301D01*
X82495891Y-74599443D01*
X82495890Y-74599444D01*
X82346222Y-74781815D01*
X82346212Y-74781829D01*
X82166090Y-75051401D01*
X82166079Y-75051419D01*
X82013240Y-75337359D01*
X82013238Y-75337364D01*
X81889157Y-75636921D01*
X81795033Y-75947207D01*
X81795030Y-75947218D01*
X81731782Y-76265198D01*
X81731779Y-76265215D01*
X81700000Y-76587884D01*
X81700000Y-76912115D01*
X81731779Y-77234784D01*
X81731782Y-77234801D01*
X81795030Y-77552781D01*
X81795033Y-77552792D01*
X81889157Y-77863078D01*
X82013238Y-78162635D01*
X82013240Y-78162640D01*
X82166079Y-78448580D01*
X82166090Y-78448598D01*
X82346212Y-78718170D01*
X82346222Y-78718184D01*
X82495890Y-78900554D01*
X82495891Y-78900555D01*
X83705747Y-77690698D01*
X83779588Y-77792330D01*
X83957670Y-77970412D01*
X84059300Y-78044251D01*
X82849443Y-79254107D01*
X82849444Y-79254108D01*
X83031815Y-79403777D01*
X83031829Y-79403787D01*
X83301401Y-79583909D01*
X83301419Y-79583920D01*
X83587359Y-79736759D01*
X83587364Y-79736761D01*
X83886921Y-79860842D01*
X84197207Y-79954966D01*
X84197218Y-79954969D01*
X84515198Y-80018217D01*
X84515215Y-80018220D01*
X84837884Y-80050000D01*
X85162116Y-80050000D01*
X85484784Y-80018220D01*
X85484801Y-80018217D01*
X85802781Y-79954969D01*
X85802792Y-79954966D01*
X86113078Y-79860842D01*
X86412635Y-79736761D01*
X86412640Y-79736759D01*
X86698580Y-79583920D01*
X86698598Y-79583909D01*
X86968170Y-79403787D01*
X86968183Y-79403777D01*
X87150554Y-79254108D01*
X87150554Y-79254107D01*
X85940698Y-78044251D01*
X86042330Y-77970412D01*
X86220412Y-77792330D01*
X86294251Y-77690698D01*
X87504107Y-78900554D01*
X87504108Y-78900554D01*
X87653777Y-78718183D01*
X87653787Y-78718170D01*
X87833909Y-78448598D01*
X87833920Y-78448580D01*
X87986759Y-78162640D01*
X87986761Y-78162635D01*
X88110842Y-77863078D01*
X88204966Y-77552792D01*
X88204969Y-77552781D01*
X88268217Y-77234801D01*
X88268220Y-77234784D01*
X88300000Y-76912115D01*
X88300000Y-76587884D01*
X88268220Y-76265215D01*
X88268217Y-76265198D01*
X88204969Y-75947218D01*
X88204966Y-75947207D01*
X88110842Y-75636921D01*
X87986761Y-75337364D01*
X87986759Y-75337359D01*
X87833920Y-75051419D01*
X87833909Y-75051401D01*
X87653787Y-74781829D01*
X87653777Y-74781815D01*
X87504108Y-74599444D01*
X87504107Y-74599443D01*
X86294250Y-75809299D01*
X86220412Y-75707670D01*
X86042330Y-75529588D01*
X85940697Y-75455747D01*
X87150555Y-74245891D01*
X87150554Y-74245890D01*
X86968184Y-74096222D01*
X86968170Y-74096212D01*
X86698598Y-73916090D01*
X86698580Y-73916079D01*
X86460193Y-73788658D01*
X86410348Y-73739696D01*
X86394888Y-73671558D01*
X86418720Y-73605878D01*
X86474278Y-73563510D01*
X86518646Y-73555300D01*
X93451645Y-73555300D01*
X93494588Y-73555300D01*
X93505395Y-73555772D01*
X93653239Y-73568706D01*
X93674516Y-73572457D01*
X93812628Y-73609464D01*
X93832938Y-73616857D01*
X93962515Y-73677280D01*
X93981233Y-73688087D01*
X94098357Y-73770098D01*
X94114915Y-73783992D01*
X94216007Y-73885084D01*
X94229901Y-73901642D01*
X94311912Y-74018766D01*
X94322719Y-74037484D01*
X94383142Y-74167061D01*
X94390535Y-74187372D01*
X94427540Y-74325476D01*
X94431293Y-74346762D01*
X94444228Y-74494603D01*
X94444700Y-74505411D01*
X94444700Y-152494588D01*
X94444228Y-152505395D01*
X94444228Y-152505396D01*
X94431293Y-152653237D01*
X94427540Y-152674523D01*
X94390535Y-152812627D01*
X94383142Y-152832938D01*
X94322719Y-152962515D01*
X94311912Y-152981233D01*
X94229901Y-153098357D01*
X94216007Y-153114915D01*
X94114915Y-153216007D01*
X94098357Y-153229901D01*
X93981233Y-153311912D01*
X93962515Y-153322719D01*
X93832938Y-153383142D01*
X93812627Y-153390535D01*
X93674523Y-153427540D01*
X93653237Y-153431293D01*
X93524760Y-153442533D01*
X93505394Y-153444228D01*
X93494588Y-153444700D01*
X86518646Y-153444700D01*
X86451607Y-153425015D01*
X86405852Y-153372211D01*
X86395908Y-153303053D01*
X86424933Y-153239497D01*
X86460193Y-153211342D01*
X86698580Y-153083920D01*
X86698598Y-153083909D01*
X86968170Y-152903787D01*
X86968183Y-152903777D01*
X87150554Y-152754108D01*
X87150554Y-152754107D01*
X85940698Y-151544251D01*
X86042330Y-151470412D01*
X86220412Y-151292330D01*
X86294251Y-151190698D01*
X87504107Y-152400554D01*
X87504108Y-152400554D01*
X87653777Y-152218183D01*
X87653787Y-152218170D01*
X87833909Y-151948598D01*
X87833920Y-151948580D01*
X87986759Y-151662640D01*
X87986761Y-151662635D01*
X88110842Y-151363078D01*
X88204966Y-151052792D01*
X88204969Y-151052781D01*
X88268217Y-150734801D01*
X88268220Y-150734784D01*
X88300000Y-150412115D01*
X88300000Y-150087884D01*
X88268220Y-149765215D01*
X88268217Y-149765198D01*
X88204969Y-149447218D01*
X88204966Y-149447207D01*
X88110842Y-149136921D01*
X87986761Y-148837364D01*
X87986759Y-148837359D01*
X87833920Y-148551419D01*
X87833909Y-148551401D01*
X87653787Y-148281829D01*
X87653777Y-148281815D01*
X87504108Y-148099444D01*
X87504107Y-148099443D01*
X86294250Y-149309299D01*
X86220412Y-149207670D01*
X86042330Y-149029588D01*
X85940697Y-148955747D01*
X87150555Y-147745891D01*
X87150554Y-147745890D01*
X86968184Y-147596222D01*
X86968170Y-147596212D01*
X86698598Y-147416090D01*
X86698580Y-147416079D01*
X86412640Y-147263240D01*
X86412635Y-147263238D01*
X86113078Y-147139157D01*
X85802792Y-147045033D01*
X85802781Y-147045030D01*
X85484801Y-146981782D01*
X85484784Y-146981779D01*
X85162116Y-146950000D01*
X84837884Y-146950000D01*
X84515215Y-146981779D01*
X84515198Y-146981782D01*
X84197218Y-147045030D01*
X84197207Y-147045033D01*
X83886921Y-147139157D01*
X83587364Y-147263238D01*
X83587359Y-147263240D01*
X83301419Y-147416079D01*
X83301401Y-147416090D01*
X83031829Y-147596212D01*
X83031815Y-147596222D01*
X82849444Y-147745890D01*
X82849443Y-147745891D01*
X84059301Y-148955748D01*
X83957670Y-149029588D01*
X83779588Y-149207670D01*
X83705748Y-149309301D01*
X82495891Y-148099443D01*
X82495890Y-148099444D01*
X82346222Y-148281815D01*
X82346212Y-148281829D01*
X82166090Y-148551401D01*
X82166079Y-148551419D01*
X82013240Y-148837359D01*
X82013238Y-148837364D01*
X81889157Y-149136921D01*
X81795033Y-149447207D01*
X81795030Y-149447218D01*
X81731782Y-149765198D01*
X81731779Y-149765215D01*
X81700000Y-150087884D01*
X81700000Y-150412115D01*
X81731779Y-150734784D01*
X81731782Y-150734801D01*
X81795030Y-151052781D01*
X81795033Y-151052792D01*
X81889157Y-151363078D01*
X82013238Y-151662635D01*
X82013240Y-151662640D01*
X82166079Y-151948580D01*
X82166090Y-151948598D01*
X82346212Y-152218170D01*
X82346222Y-152218184D01*
X82495890Y-152400554D01*
X82495891Y-152400555D01*
X83705747Y-151190698D01*
X83779588Y-151292330D01*
X83957670Y-151470412D01*
X84059300Y-151544251D01*
X82849443Y-152754107D01*
X82849444Y-152754108D01*
X83031815Y-152903777D01*
X83031829Y-152903787D01*
X83301401Y-153083909D01*
X83301419Y-153083920D01*
X83539807Y-153211342D01*
X83589652Y-153260304D01*
X83605112Y-153328442D01*
X83581280Y-153394122D01*
X83525722Y-153436490D01*
X83481354Y-153444700D01*
X76505412Y-153444700D01*
X76494605Y-153444228D01*
X76472272Y-153442274D01*
X76346762Y-153431293D01*
X76325476Y-153427540D01*
X76187372Y-153390535D01*
X76167061Y-153383142D01*
X76037484Y-153322719D01*
X76018766Y-153311912D01*
X75901642Y-153229901D01*
X75885084Y-153216007D01*
X75783992Y-153114915D01*
X75770098Y-153098357D01*
X75688087Y-152981233D01*
X75677280Y-152962515D01*
X75616857Y-152832938D01*
X75609464Y-152812627D01*
X75593784Y-152754107D01*
X75572457Y-152674516D01*
X75568706Y-152653236D01*
X75555772Y-152505395D01*
X75555300Y-152494588D01*
X75555300Y-135302155D01*
X82325000Y-135302155D01*
X82325000Y-136000000D01*
X83349722Y-136000000D01*
X83305667Y-136076306D01*
X83275000Y-136190756D01*
X83275000Y-136309244D01*
X83305667Y-136423694D01*
X83349722Y-136500000D01*
X82325000Y-136500000D01*
X82325000Y-137197844D01*
X82331401Y-137257372D01*
X82331403Y-137257379D01*
X82381645Y-137392086D01*
X82381649Y-137392093D01*
X82467809Y-137507187D01*
X82467812Y-137507190D01*
X82582906Y-137593350D01*
X82582913Y-137593354D01*
X82717620Y-137643596D01*
X82717627Y-137643598D01*
X82777155Y-137649999D01*
X82777172Y-137650000D01*
X83475000Y-137650000D01*
X83475000Y-136625277D01*
X83551306Y-136669333D01*
X83665756Y-136700000D01*
X83784244Y-136700000D01*
X83898694Y-136669333D01*
X83975000Y-136625277D01*
X83975000Y-137650000D01*
X84672828Y-137650000D01*
X84672844Y-137649999D01*
X84732372Y-137643598D01*
X84732379Y-137643596D01*
X84867086Y-137593354D01*
X84867093Y-137593350D01*
X84982187Y-137507190D01*
X84982190Y-137507187D01*
X85068350Y-137392093D01*
X85068354Y-137392086D01*
X85095140Y-137320270D01*
X85137011Y-137264336D01*
X85202475Y-137239919D01*
X85270748Y-137254770D01*
X85299003Y-137275922D01*
X85347424Y-137324343D01*
X85526785Y-137454657D01*
X85620114Y-137502210D01*
X85724319Y-137555306D01*
X85724321Y-137555306D01*
X85724324Y-137555308D01*
X85935176Y-137623818D01*
X86154149Y-137658500D01*
X86154150Y-137658500D01*
X86375850Y-137658500D01*
X86375851Y-137658500D01*
X86594824Y-137623818D01*
X86805676Y-137555308D01*
X87003215Y-137454657D01*
X87182576Y-137324343D01*
X87339343Y-137167576D01*
X87469657Y-136988215D01*
X87474552Y-136978607D01*
X87522525Y-136927811D01*
X87585038Y-136910900D01*
X90049596Y-136910900D01*
X90116635Y-136930585D01*
X90149914Y-136962015D01*
X90251926Y-137102423D01*
X90251930Y-137102428D01*
X90397571Y-137248069D01*
X90397576Y-137248073D01*
X90496948Y-137320270D01*
X90564197Y-137369129D01*
X90681128Y-137428709D01*
X90747705Y-137462632D01*
X90747707Y-137462632D01*
X90747710Y-137462634D01*
X90852707Y-137496749D01*
X90943591Y-137526280D01*
X91045305Y-137542390D01*
X91147019Y-137558500D01*
X91147020Y-137558500D01*
X91352980Y-137558500D01*
X91352981Y-137558500D01*
X91556408Y-137526280D01*
X91752290Y-137462634D01*
X91935803Y-137369129D01*
X92102430Y-137248068D01*
X92248068Y-137102430D01*
X92369129Y-136935803D01*
X92462634Y-136752290D01*
X92526280Y-136556408D01*
X92558500Y-136352981D01*
X92558500Y-136147019D01*
X92526280Y-135943592D01*
X92462634Y-135747710D01*
X92462632Y-135747707D01*
X92462632Y-135747705D01*
X92428709Y-135681128D01*
X92369129Y-135564197D01*
X92338030Y-135521392D01*
X92248073Y-135397576D01*
X92248069Y-135397571D01*
X92102428Y-135251930D01*
X92102423Y-135251926D01*
X91935806Y-135130873D01*
X91935805Y-135130872D01*
X91935803Y-135130871D01*
X91878496Y-135101671D01*
X91752294Y-135037367D01*
X91556408Y-134973719D01*
X91380794Y-134945905D01*
X91352981Y-134941500D01*
X91147019Y-134941500D01*
X91122550Y-134945375D01*
X90943591Y-134973719D01*
X90747705Y-135037367D01*
X90564193Y-135130873D01*
X90397576Y-135251926D01*
X90397571Y-135251930D01*
X90251930Y-135397571D01*
X90251926Y-135397576D01*
X90149914Y-135537985D01*
X90094584Y-135580651D01*
X90049596Y-135589100D01*
X87585038Y-135589100D01*
X87517999Y-135569415D01*
X87474552Y-135521392D01*
X87469657Y-135511785D01*
X87339343Y-135332424D01*
X87182576Y-135175657D01*
X87003215Y-135045343D01*
X86987559Y-135037366D01*
X86805680Y-134944693D01*
X86594824Y-134876182D01*
X86375851Y-134841500D01*
X86154149Y-134841500D01*
X86044662Y-134858841D01*
X85935175Y-134876182D01*
X85724319Y-134944693D01*
X85526784Y-135045343D01*
X85440675Y-135107906D01*
X85347424Y-135175657D01*
X85347422Y-135175659D01*
X85347420Y-135175660D01*
X85299002Y-135224078D01*
X85237679Y-135257562D01*
X85167987Y-135252577D01*
X85112054Y-135210705D01*
X85095140Y-135179729D01*
X85068354Y-135107913D01*
X85068350Y-135107906D01*
X84982190Y-134992812D01*
X84982187Y-134992809D01*
X84867093Y-134906649D01*
X84867086Y-134906645D01*
X84732379Y-134856403D01*
X84732372Y-134856401D01*
X84672844Y-134850000D01*
X83975000Y-134850000D01*
X83975000Y-135874722D01*
X83898694Y-135830667D01*
X83784244Y-135800000D01*
X83665756Y-135800000D01*
X83551306Y-135830667D01*
X83475000Y-135874722D01*
X83475000Y-134850000D01*
X82777155Y-134850000D01*
X82717627Y-134856401D01*
X82717620Y-134856403D01*
X82582913Y-134906645D01*
X82582906Y-134906649D01*
X82467812Y-134992809D01*
X82467809Y-134992812D01*
X82381649Y-135107906D01*
X82381645Y-135107913D01*
X82331403Y-135242620D01*
X82331401Y-135242627D01*
X82325000Y-135302155D01*
X75555300Y-135302155D01*
X75555300Y-127397019D01*
X77441500Y-127397019D01*
X77441500Y-127602980D01*
X77473719Y-127806408D01*
X77537367Y-128002294D01*
X77579858Y-128085685D01*
X77622487Y-128169349D01*
X77630873Y-128185806D01*
X77751926Y-128352423D01*
X77751930Y-128352428D01*
X77897571Y-128498069D01*
X77897576Y-128498073D01*
X78042908Y-128603661D01*
X78064197Y-128619129D01*
X78181128Y-128678709D01*
X78247705Y-128712632D01*
X78247707Y-128712632D01*
X78247710Y-128712634D01*
X78352707Y-128746749D01*
X78443591Y-128776280D01*
X78545305Y-128792390D01*
X78647019Y-128808500D01*
X78647020Y-128808500D01*
X78852980Y-128808500D01*
X78852981Y-128808500D01*
X79056408Y-128776280D01*
X79252290Y-128712634D01*
X79435803Y-128619129D01*
X79602430Y-128498068D01*
X79748068Y-128352430D01*
X79755858Y-128341706D01*
X79850086Y-128212015D01*
X79905416Y-128169349D01*
X79950404Y-128160900D01*
X82790095Y-128160900D01*
X82790096Y-128160899D01*
X82917777Y-128135502D01*
X83038054Y-128085682D01*
X83146299Y-128013355D01*
X83464835Y-127694819D01*
X83526158Y-127661334D01*
X83552516Y-127658500D01*
X84673638Y-127658500D01*
X84673654Y-127658499D01*
X84700692Y-127655591D01*
X84734201Y-127651989D01*
X84871204Y-127600889D01*
X84988261Y-127513261D01*
X85075889Y-127396204D01*
X85126989Y-127259201D01*
X85130591Y-127225692D01*
X85133499Y-127198654D01*
X85133500Y-127198637D01*
X85133500Y-127079308D01*
X85153185Y-127012269D01*
X85169819Y-126991627D01*
X85822861Y-126338584D01*
X85845667Y-126423694D01*
X85904910Y-126526306D01*
X85988694Y-126610090D01*
X86091306Y-126669333D01*
X86176414Y-126692137D01*
X85467485Y-127401065D01*
X85467485Y-127401066D01*
X85531243Y-127447388D01*
X85727589Y-127547432D01*
X85937164Y-127615526D01*
X86154819Y-127650000D01*
X86375181Y-127650000D01*
X86592835Y-127615526D01*
X86802410Y-127547432D01*
X86998760Y-127447386D01*
X87062513Y-127401066D01*
X87062514Y-127401066D01*
X86353585Y-126692138D01*
X86438694Y-126669333D01*
X86541306Y-126610090D01*
X86625090Y-126526306D01*
X86684333Y-126423694D01*
X86707137Y-126338585D01*
X87416066Y-127047514D01*
X87416066Y-127047513D01*
X87462386Y-126983760D01*
X87562432Y-126787410D01*
X87630526Y-126577835D01*
X87665000Y-126360181D01*
X87665000Y-126139818D01*
X87630526Y-125922164D01*
X87562432Y-125712589D01*
X87462388Y-125516243D01*
X87416066Y-125452485D01*
X87416065Y-125452485D01*
X86707137Y-126161413D01*
X86684333Y-126076306D01*
X86625090Y-125973694D01*
X86541306Y-125889910D01*
X86438694Y-125830667D01*
X86353583Y-125807861D01*
X87062513Y-125098932D01*
X86998756Y-125052611D01*
X86802410Y-124952567D01*
X86592835Y-124884473D01*
X86375181Y-124850000D01*
X86154819Y-124850000D01*
X85937164Y-124884473D01*
X85727589Y-124952567D01*
X85531233Y-125052616D01*
X85467485Y-125098931D01*
X85467485Y-125098932D01*
X86176414Y-125807861D01*
X86091306Y-125830667D01*
X85988694Y-125889910D01*
X85904910Y-125973694D01*
X85845667Y-126076306D01*
X85822861Y-126161414D01*
X85169819Y-125508372D01*
X85136334Y-125447049D01*
X85133500Y-125420691D01*
X85133500Y-125301362D01*
X85133499Y-125301345D01*
X85130157Y-125270270D01*
X85126989Y-125240799D01*
X85075889Y-125103796D01*
X84988261Y-124986739D01*
X84871204Y-124899111D01*
X84734203Y-124848011D01*
X84673654Y-124841500D01*
X84673638Y-124841500D01*
X82776362Y-124841500D01*
X82776345Y-124841500D01*
X82715797Y-124848011D01*
X82715795Y-124848011D01*
X82578795Y-124899111D01*
X82461739Y-124986739D01*
X82374111Y-125103795D01*
X82323011Y-125240795D01*
X82323011Y-125240797D01*
X82316500Y-125301345D01*
X82316500Y-126715100D01*
X82296815Y-126782139D01*
X82244011Y-126827894D01*
X82192500Y-126839100D01*
X79950404Y-126839100D01*
X79883365Y-126819415D01*
X79850086Y-126787985D01*
X79748073Y-126647576D01*
X79748069Y-126647571D01*
X79602428Y-126501930D01*
X79602423Y-126501926D01*
X79435806Y-126380873D01*
X79435805Y-126380872D01*
X79435803Y-126380871D01*
X79378496Y-126351671D01*
X79252294Y-126287367D01*
X79056408Y-126223719D01*
X78880794Y-126195905D01*
X78852981Y-126191500D01*
X78647019Y-126191500D01*
X78622550Y-126195375D01*
X78443591Y-126223719D01*
X78247705Y-126287367D01*
X78064193Y-126380873D01*
X77897576Y-126501926D01*
X77897571Y-126501930D01*
X77751930Y-126647571D01*
X77751926Y-126647576D01*
X77630873Y-126814193D01*
X77537367Y-126997705D01*
X77473719Y-127193591D01*
X77441500Y-127397019D01*
X75555300Y-127397019D01*
X75555300Y-117237019D01*
X77441500Y-117237019D01*
X77441500Y-117442980D01*
X77473719Y-117646408D01*
X77537367Y-117842294D01*
X77630873Y-118025806D01*
X77751926Y-118192423D01*
X77751930Y-118192428D01*
X77897571Y-118338069D01*
X77897576Y-118338073D01*
X78042908Y-118443661D01*
X78064197Y-118459129D01*
X78169071Y-118512565D01*
X78247705Y-118552632D01*
X78247707Y-118552632D01*
X78247710Y-118552634D01*
X78352707Y-118586749D01*
X78443591Y-118616280D01*
X78545305Y-118632390D01*
X78647019Y-118648500D01*
X78647020Y-118648500D01*
X78852980Y-118648500D01*
X78852981Y-118648500D01*
X79056408Y-118616280D01*
X79252290Y-118552634D01*
X79435803Y-118459129D01*
X79602430Y-118338068D01*
X79748068Y-118192430D01*
X79869129Y-118025803D01*
X79962634Y-117842290D01*
X80026280Y-117646408D01*
X80058500Y-117442981D01*
X80058500Y-117237019D01*
X80026280Y-117033592D01*
X79962634Y-116837710D01*
X79962632Y-116837707D01*
X79962632Y-116837705D01*
X79928709Y-116771128D01*
X79869129Y-116654197D01*
X79815094Y-116579824D01*
X79772739Y-116521526D01*
X79772736Y-116521523D01*
X79748072Y-116487576D01*
X79748068Y-116487570D01*
X79602430Y-116341932D01*
X79602428Y-116341930D01*
X79602423Y-116341926D01*
X79462015Y-116239914D01*
X79419349Y-116184584D01*
X79410900Y-116139596D01*
X79410900Y-115302155D01*
X82325000Y-115302155D01*
X82325000Y-116000000D01*
X83349722Y-116000000D01*
X83305667Y-116076306D01*
X83275000Y-116190756D01*
X83275000Y-116309244D01*
X83305667Y-116423694D01*
X83349722Y-116500000D01*
X82325000Y-116500000D01*
X82325000Y-117197844D01*
X82331401Y-117257372D01*
X82331403Y-117257379D01*
X82381645Y-117392086D01*
X82381649Y-117392093D01*
X82467809Y-117507187D01*
X82467812Y-117507190D01*
X82582906Y-117593350D01*
X82582913Y-117593354D01*
X82717620Y-117643596D01*
X82717627Y-117643598D01*
X82777155Y-117649999D01*
X82777172Y-117650000D01*
X83475000Y-117650000D01*
X83475000Y-116625277D01*
X83551306Y-116669333D01*
X83665756Y-116700000D01*
X83784244Y-116700000D01*
X83898694Y-116669333D01*
X83975000Y-116625277D01*
X83975000Y-117650000D01*
X84672828Y-117650000D01*
X84672844Y-117649999D01*
X84732372Y-117643598D01*
X84732379Y-117643596D01*
X84867086Y-117593354D01*
X84867093Y-117593350D01*
X84982187Y-117507190D01*
X84982190Y-117507187D01*
X85068350Y-117392093D01*
X85068354Y-117392086D01*
X85095140Y-117320270D01*
X85137011Y-117264336D01*
X85202475Y-117239919D01*
X85270748Y-117254770D01*
X85299003Y-117275922D01*
X85347424Y-117324343D01*
X85526785Y-117454657D01*
X85536392Y-117459551D01*
X85587188Y-117507521D01*
X85604100Y-117570037D01*
X85604100Y-118815097D01*
X85629496Y-118942769D01*
X85629499Y-118942781D01*
X85679314Y-119063047D01*
X85679321Y-119063060D01*
X85751644Y-119171298D01*
X85751647Y-119171302D01*
X89501645Y-122921299D01*
X89582636Y-123002290D01*
X89593702Y-123013356D01*
X89701939Y-123085678D01*
X89701952Y-123085685D01*
X89822218Y-123135500D01*
X89822223Y-123135502D01*
X89949902Y-123160899D01*
X89949905Y-123160900D01*
X89949907Y-123160900D01*
X90049596Y-123160900D01*
X90116635Y-123180585D01*
X90149914Y-123212015D01*
X90251926Y-123352423D01*
X90251930Y-123352428D01*
X90397571Y-123498069D01*
X90397576Y-123498073D01*
X90491409Y-123566246D01*
X90564197Y-123619129D01*
X90681128Y-123678709D01*
X90747705Y-123712632D01*
X90747707Y-123712632D01*
X90747710Y-123712634D01*
X90852707Y-123746749D01*
X90943591Y-123776280D01*
X91045305Y-123792390D01*
X91147019Y-123808500D01*
X91147020Y-123808500D01*
X91352980Y-123808500D01*
X91352981Y-123808500D01*
X91556408Y-123776280D01*
X91752290Y-123712634D01*
X91935803Y-123619129D01*
X92102430Y-123498068D01*
X92248068Y-123352430D01*
X92369129Y-123185803D01*
X92462634Y-123002290D01*
X92526280Y-122806408D01*
X92558500Y-122602981D01*
X92558500Y-122397019D01*
X92526280Y-122193592D01*
X92462634Y-121997710D01*
X92462632Y-121997707D01*
X92462632Y-121997705D01*
X92428709Y-121931128D01*
X92369129Y-121814197D01*
X92313170Y-121737175D01*
X92248073Y-121647576D01*
X92248069Y-121647571D01*
X92102428Y-121501930D01*
X92102423Y-121501926D01*
X91935806Y-121380873D01*
X91935805Y-121380872D01*
X91935803Y-121380871D01*
X91878496Y-121351671D01*
X91752294Y-121287367D01*
X91556408Y-121223719D01*
X91380794Y-121195905D01*
X91352981Y-121191500D01*
X91147019Y-121191500D01*
X91122550Y-121195375D01*
X90943591Y-121223719D01*
X90747705Y-121287367D01*
X90564193Y-121380873D01*
X90397576Y-121501926D01*
X90397571Y-121501930D01*
X90262259Y-121637243D01*
X90200936Y-121670728D01*
X90131244Y-121665744D01*
X90086897Y-121637243D01*
X86962219Y-118512565D01*
X86928734Y-118451242D01*
X86925900Y-118424884D01*
X86925900Y-117570037D01*
X86945585Y-117502998D01*
X86993607Y-117459552D01*
X87003215Y-117454657D01*
X87182576Y-117324343D01*
X87339343Y-117167576D01*
X87469657Y-116988215D01*
X87570308Y-116790676D01*
X87638818Y-116579824D01*
X87673500Y-116360851D01*
X87673500Y-116139149D01*
X87638818Y-115920176D01*
X87570308Y-115709324D01*
X87570306Y-115709321D01*
X87570306Y-115709319D01*
X87469656Y-115511784D01*
X87339343Y-115332424D01*
X87182576Y-115175657D01*
X87003215Y-115045343D01*
X86805680Y-114944693D01*
X86594824Y-114876182D01*
X86375851Y-114841500D01*
X86154149Y-114841500D01*
X86044662Y-114858841D01*
X85935175Y-114876182D01*
X85724319Y-114944693D01*
X85526784Y-115045343D01*
X85440675Y-115107906D01*
X85347424Y-115175657D01*
X85347422Y-115175659D01*
X85347420Y-115175660D01*
X85299002Y-115224078D01*
X85237679Y-115257562D01*
X85167987Y-115252577D01*
X85112054Y-115210705D01*
X85095140Y-115179729D01*
X85068354Y-115107913D01*
X85068350Y-115107906D01*
X84982190Y-114992812D01*
X84982187Y-114992809D01*
X84867093Y-114906649D01*
X84867086Y-114906645D01*
X84732379Y-114856403D01*
X84732372Y-114856401D01*
X84672844Y-114850000D01*
X83975000Y-114850000D01*
X83975000Y-115874722D01*
X83898694Y-115830667D01*
X83784244Y-115800000D01*
X83665756Y-115800000D01*
X83551306Y-115830667D01*
X83475000Y-115874722D01*
X83475000Y-114850000D01*
X82777155Y-114850000D01*
X82717627Y-114856401D01*
X82717620Y-114856403D01*
X82582913Y-114906645D01*
X82582906Y-114906649D01*
X82467812Y-114992809D01*
X82467809Y-114992812D01*
X82381649Y-115107906D01*
X82381645Y-115107913D01*
X82331403Y-115242620D01*
X82331401Y-115242627D01*
X82325000Y-115302155D01*
X79410900Y-115302155D01*
X79410900Y-94527615D01*
X79430585Y-94460576D01*
X79447214Y-94439939D01*
X82168321Y-91718831D01*
X82229642Y-91685348D01*
X82299334Y-91690332D01*
X82355267Y-91732204D01*
X82379684Y-91797668D01*
X82380000Y-91806514D01*
X82380000Y-91868746D01*
X82413242Y-92078627D01*
X82413242Y-92078630D01*
X82478904Y-92280717D01*
X82575375Y-92470050D01*
X82614728Y-92524216D01*
X83247037Y-91891908D01*
X83264075Y-91955493D01*
X83329901Y-92069507D01*
X83422993Y-92162599D01*
X83537007Y-92228425D01*
X83600591Y-92245462D01*
X82999971Y-92846081D01*
X83078711Y-92963395D01*
X83079920Y-92967229D01*
X83082844Y-92969991D01*
X83090343Y-93000278D01*
X83099727Y-93030029D01*
X83098671Y-93033908D01*
X83099638Y-93037812D01*
X83089573Y-93067344D01*
X83081383Y-93097447D01*
X83078397Y-93100140D01*
X83077100Y-93103947D01*
X83032051Y-93142983D01*
X83022440Y-93147880D01*
X82968282Y-93187227D01*
X82968282Y-93187228D01*
X83600591Y-93819537D01*
X83537007Y-93836575D01*
X83422993Y-93902401D01*
X83329901Y-93995493D01*
X83264075Y-94109507D01*
X83247037Y-94173091D01*
X82614728Y-93540782D01*
X82614727Y-93540782D01*
X82575380Y-93594939D01*
X82478904Y-93784282D01*
X82413242Y-93986369D01*
X82413242Y-93986372D01*
X82380000Y-94196253D01*
X82380000Y-94408746D01*
X82413242Y-94618627D01*
X82413242Y-94618630D01*
X82478904Y-94820717D01*
X82575375Y-95010050D01*
X82614728Y-95064216D01*
X83247037Y-94431908D01*
X83264075Y-94495493D01*
X83329901Y-94609507D01*
X83422993Y-94702599D01*
X83537007Y-94768425D01*
X83600591Y-94785462D01*
X82999971Y-95386081D01*
X83078711Y-95503395D01*
X83079920Y-95507229D01*
X83082844Y-95509991D01*
X83090343Y-95540278D01*
X83099727Y-95570029D01*
X83098671Y-95573908D01*
X83099638Y-95577812D01*
X83089573Y-95607344D01*
X83081383Y-95637447D01*
X83078397Y-95640140D01*
X83077100Y-95643947D01*
X83032051Y-95682983D01*
X83022440Y-95687880D01*
X82968282Y-95727227D01*
X82968282Y-95727228D01*
X83600591Y-96359537D01*
X83537007Y-96376575D01*
X83422993Y-96442401D01*
X83329901Y-96535493D01*
X83264075Y-96649507D01*
X83247037Y-96713091D01*
X82614728Y-96080782D01*
X82614727Y-96080782D01*
X82575380Y-96134939D01*
X82478904Y-96324282D01*
X82413242Y-96526369D01*
X82413242Y-96526372D01*
X82380000Y-96736253D01*
X82380000Y-96948746D01*
X82413242Y-97158627D01*
X82413242Y-97158630D01*
X82478904Y-97360717D01*
X82575375Y-97550050D01*
X82614728Y-97604216D01*
X83247037Y-96971908D01*
X83264075Y-97035493D01*
X83329901Y-97149507D01*
X83422993Y-97242599D01*
X83537007Y-97308425D01*
X83600590Y-97325462D01*
X82968282Y-97957769D01*
X82968282Y-97957770D01*
X83022449Y-97997124D01*
X83022682Y-97997243D01*
X83022755Y-97997312D01*
X83026604Y-97999671D01*
X83026108Y-98000479D01*
X83073479Y-98045216D01*
X83090275Y-98113037D01*
X83067739Y-98179172D01*
X83022693Y-98218209D01*
X83017994Y-98220603D01*
X82844993Y-98346296D01*
X82693796Y-98497493D01*
X82568106Y-98670490D01*
X82471027Y-98861016D01*
X82471026Y-98861019D01*
X82404951Y-99064382D01*
X82371500Y-99275584D01*
X82371500Y-99489415D01*
X82404951Y-99700617D01*
X82471026Y-99903980D01*
X82471027Y-99903983D01*
X82555651Y-100070064D01*
X82568106Y-100094509D01*
X82693794Y-100267504D01*
X82844996Y-100418706D01*
X83017991Y-100544394D01*
X83021873Y-100546773D01*
X83068748Y-100598586D01*
X83080169Y-100667516D01*
X83052512Y-100731678D01*
X83021873Y-100758227D01*
X83017991Y-100760605D01*
X82844993Y-100886296D01*
X82693796Y-101037493D01*
X82568106Y-101210490D01*
X82471027Y-101401016D01*
X82471026Y-101401019D01*
X82404951Y-101604382D01*
X82404951Y-101604384D01*
X82371500Y-101815584D01*
X82371500Y-102029416D01*
X82378738Y-102075116D01*
X82404951Y-102240617D01*
X82471026Y-102443980D01*
X82471027Y-102443983D01*
X82554469Y-102607745D01*
X82568106Y-102634509D01*
X82693794Y-102807504D01*
X82844996Y-102958706D01*
X83017991Y-103084394D01*
X83021873Y-103086773D01*
X83068748Y-103138586D01*
X83080169Y-103207516D01*
X83052512Y-103271678D01*
X83021873Y-103298227D01*
X83017991Y-103300605D01*
X82844993Y-103426296D01*
X82693796Y-103577493D01*
X82568106Y-103750490D01*
X82471027Y-103941016D01*
X82471026Y-103941019D01*
X82404951Y-104144382D01*
X82371500Y-104355584D01*
X82371500Y-104569415D01*
X82404951Y-104780617D01*
X82471026Y-104983980D01*
X82471027Y-104983983D01*
X82542245Y-105123754D01*
X82568106Y-105174509D01*
X82693794Y-105347504D01*
X82844996Y-105498706D01*
X83017991Y-105624394D01*
X83021873Y-105626773D01*
X83068748Y-105678586D01*
X83080169Y-105747516D01*
X83052512Y-105811678D01*
X83021873Y-105838227D01*
X83017991Y-105840605D01*
X82844993Y-105966296D01*
X82693796Y-106117493D01*
X82568106Y-106290490D01*
X82471027Y-106481016D01*
X82471026Y-106481019D01*
X82404951Y-106684382D01*
X82371500Y-106895584D01*
X82371500Y-107109415D01*
X82404951Y-107320617D01*
X82471026Y-107523980D01*
X82471027Y-107523983D01*
X82542245Y-107663754D01*
X82568106Y-107714509D01*
X82693794Y-107887504D01*
X82844996Y-108038706D01*
X83017991Y-108164394D01*
X83111438Y-108212007D01*
X83208516Y-108261472D01*
X83208519Y-108261473D01*
X83310200Y-108294510D01*
X83411884Y-108327549D01*
X83623084Y-108361000D01*
X83623085Y-108361000D01*
X83836915Y-108361000D01*
X83836916Y-108361000D01*
X84048116Y-108327549D01*
X84251483Y-108261472D01*
X84442009Y-108164394D01*
X84615004Y-108038706D01*
X84766206Y-107887504D01*
X84891894Y-107714509D01*
X84891896Y-107714504D01*
X84894270Y-107710632D01*
X84946080Y-107663754D01*
X85015009Y-107652329D01*
X85079173Y-107679983D01*
X85105730Y-107710632D01*
X85108103Y-107714505D01*
X85108106Y-107714509D01*
X85233794Y-107887504D01*
X85384996Y-108038706D01*
X85557991Y-108164394D01*
X85651438Y-108212007D01*
X85748516Y-108261472D01*
X85748519Y-108261473D01*
X85850200Y-108294510D01*
X85951884Y-108327549D01*
X86163084Y-108361000D01*
X86163085Y-108361000D01*
X86376915Y-108361000D01*
X86376916Y-108361000D01*
X86588116Y-108327549D01*
X86791483Y-108261472D01*
X86982009Y-108164394D01*
X87155004Y-108038706D01*
X87306206Y-107887504D01*
X87431894Y-107714509D01*
X87528972Y-107523983D01*
X87595049Y-107320616D01*
X87628500Y-107109416D01*
X87628500Y-106895584D01*
X87595049Y-106684384D01*
X87528972Y-106481017D01*
X87528972Y-106481016D01*
X87431893Y-106290490D01*
X87306206Y-106117496D01*
X87155004Y-105966294D01*
X86982009Y-105840606D01*
X86982005Y-105840603D01*
X86978132Y-105838230D01*
X86931254Y-105786420D01*
X86919829Y-105717491D01*
X86947483Y-105653327D01*
X86978132Y-105626770D01*
X86982005Y-105624396D01*
X86982004Y-105624396D01*
X86982009Y-105624394D01*
X87155004Y-105498706D01*
X87306206Y-105347504D01*
X87431894Y-105174509D01*
X87528972Y-104983983D01*
X87595049Y-104780616D01*
X87628500Y-104569416D01*
X87628500Y-104515016D01*
X87648185Y-104447977D01*
X87700989Y-104402222D01*
X87770147Y-104392278D01*
X87833703Y-104421303D01*
X87840181Y-104427335D01*
X88052781Y-104639935D01*
X88086266Y-104701258D01*
X88089100Y-104727616D01*
X88089100Y-115065097D01*
X88114496Y-115192769D01*
X88114499Y-115192781D01*
X88164314Y-115313047D01*
X88164321Y-115313060D01*
X88236644Y-115421298D01*
X88236647Y-115421302D01*
X92802781Y-119987434D01*
X92836266Y-120048757D01*
X92839100Y-120075115D01*
X92839100Y-123514883D01*
X92819415Y-123581922D01*
X92802781Y-123602564D01*
X91631485Y-124773859D01*
X91570162Y-124807344D01*
X91524406Y-124808651D01*
X91408634Y-124790314D01*
X91352981Y-124781500D01*
X91147019Y-124781500D01*
X91122550Y-124785375D01*
X90943591Y-124813719D01*
X90747705Y-124877367D01*
X90564193Y-124970873D01*
X90397576Y-125091926D01*
X90397571Y-125091930D01*
X90251930Y-125237571D01*
X90251926Y-125237576D01*
X90130873Y-125404193D01*
X90037367Y-125587705D01*
X89973719Y-125783591D01*
X89941500Y-125987019D01*
X89941500Y-126192980D01*
X89973719Y-126396408D01*
X90037367Y-126592294D01*
X90130873Y-126775806D01*
X90251926Y-126942423D01*
X90251930Y-126942428D01*
X90397571Y-127088069D01*
X90397576Y-127088073D01*
X90542811Y-127193591D01*
X90564197Y-127209129D01*
X90681128Y-127268709D01*
X90747705Y-127302632D01*
X90747707Y-127302632D01*
X90747710Y-127302634D01*
X90852707Y-127336749D01*
X90943591Y-127366280D01*
X91045305Y-127382390D01*
X91147019Y-127398500D01*
X91147020Y-127398500D01*
X91352980Y-127398500D01*
X91352981Y-127398500D01*
X91556408Y-127366280D01*
X91752290Y-127302634D01*
X91935803Y-127209129D01*
X92102430Y-127088068D01*
X92248068Y-126942430D01*
X92369129Y-126775803D01*
X92462634Y-126592290D01*
X92526280Y-126396408D01*
X92558500Y-126192981D01*
X92558500Y-125987019D01*
X92531348Y-125815590D01*
X92540302Y-125746298D01*
X92566137Y-125708515D01*
X94013355Y-124261299D01*
X94085682Y-124153054D01*
X94135503Y-124032777D01*
X94160901Y-123905093D01*
X94160901Y-123774906D01*
X94160901Y-123769796D01*
X94160900Y-123769770D01*
X94160900Y-119684904D01*
X94160899Y-119684902D01*
X94135503Y-119557230D01*
X94135502Y-119557223D01*
X94135500Y-119557218D01*
X94085685Y-119436952D01*
X94085678Y-119436939D01*
X94013355Y-119328701D01*
X94013352Y-119328697D01*
X93916980Y-119232325D01*
X93916957Y-119232304D01*
X89447219Y-114762565D01*
X89413734Y-114701242D01*
X89410900Y-114674884D01*
X89410900Y-104337406D01*
X89410899Y-104337402D01*
X89385504Y-104209730D01*
X89385503Y-104209723D01*
X89335682Y-104089446D01*
X89335680Y-104089443D01*
X89335678Y-104089439D01*
X89263355Y-103981201D01*
X89263352Y-103981197D01*
X87629842Y-102347688D01*
X87596357Y-102286365D01*
X87595050Y-102240609D01*
X87621262Y-102075116D01*
X87628500Y-102029416D01*
X87628500Y-101815584D01*
X87595049Y-101604384D01*
X87528972Y-101401017D01*
X87528972Y-101401016D01*
X87447905Y-101241915D01*
X87431894Y-101210491D01*
X87306206Y-101037496D01*
X87155004Y-100886294D01*
X86982009Y-100760606D01*
X86982005Y-100760603D01*
X86978132Y-100758230D01*
X86931254Y-100706420D01*
X86919829Y-100637491D01*
X86947483Y-100573327D01*
X86978132Y-100546770D01*
X86982005Y-100544396D01*
X86982004Y-100544396D01*
X86982009Y-100544394D01*
X87155004Y-100418706D01*
X87306206Y-100267504D01*
X87431890Y-100094515D01*
X87487220Y-100051849D01*
X87532208Y-100043400D01*
X88557384Y-100043400D01*
X88624423Y-100063085D01*
X88645065Y-100079719D01*
X90552781Y-101987435D01*
X90586266Y-102048758D01*
X90589100Y-102075116D01*
X90589100Y-111139596D01*
X90569415Y-111206635D01*
X90537985Y-111239914D01*
X90397576Y-111341926D01*
X90397571Y-111341930D01*
X90251930Y-111487571D01*
X90251926Y-111487576D01*
X90130873Y-111654193D01*
X90037367Y-111837705D01*
X89973719Y-112033591D01*
X89941500Y-112237019D01*
X89941500Y-112442980D01*
X89973719Y-112646408D01*
X90037367Y-112842294D01*
X90130873Y-113025806D01*
X90251926Y-113192423D01*
X90251930Y-113192428D01*
X90397571Y-113338069D01*
X90397576Y-113338073D01*
X90542908Y-113443661D01*
X90564197Y-113459129D01*
X90681128Y-113518709D01*
X90747705Y-113552632D01*
X90747707Y-113552632D01*
X90747710Y-113552634D01*
X90852707Y-113586749D01*
X90943591Y-113616280D01*
X91045305Y-113632390D01*
X91147019Y-113648500D01*
X91147020Y-113648500D01*
X91352980Y-113648500D01*
X91352981Y-113648500D01*
X91556408Y-113616280D01*
X91752290Y-113552634D01*
X91935803Y-113459129D01*
X92102430Y-113338068D01*
X92248068Y-113192430D01*
X92369129Y-113025803D01*
X92462634Y-112842290D01*
X92526280Y-112646408D01*
X92558500Y-112442981D01*
X92558500Y-112237019D01*
X92526280Y-112033592D01*
X92462634Y-111837710D01*
X92462632Y-111837707D01*
X92462632Y-111837705D01*
X92428709Y-111771128D01*
X92369129Y-111654197D01*
X92353661Y-111632908D01*
X92248073Y-111487576D01*
X92248069Y-111487571D01*
X92102428Y-111341930D01*
X92102423Y-111341926D01*
X91962015Y-111239914D01*
X91919349Y-111184584D01*
X91910900Y-111139596D01*
X91910900Y-101684906D01*
X91910899Y-101684902D01*
X91885503Y-101557223D01*
X91835682Y-101436946D01*
X91835680Y-101436943D01*
X91835678Y-101436939D01*
X91763355Y-101328701D01*
X91763352Y-101328697D01*
X89303802Y-98869147D01*
X89303798Y-98869144D01*
X89195560Y-98796821D01*
X89195547Y-98796814D01*
X89075281Y-98746999D01*
X89075269Y-98746996D01*
X88947596Y-98721600D01*
X88947593Y-98721600D01*
X87532208Y-98721600D01*
X87465169Y-98701915D01*
X87431890Y-98670485D01*
X87306208Y-98497499D01*
X87306203Y-98497493D01*
X87155006Y-98346296D01*
X87155004Y-98346294D01*
X86982009Y-98220606D01*
X86982010Y-98220606D01*
X86982008Y-98220605D01*
X86977311Y-98218212D01*
X86926517Y-98170235D01*
X86909724Y-98102414D01*
X86932264Y-98036280D01*
X86973790Y-98000301D01*
X86973402Y-97999668D01*
X86977229Y-97997322D01*
X86977327Y-97997238D01*
X86977556Y-97997121D01*
X87031716Y-97957770D01*
X87031717Y-97957770D01*
X86399408Y-97325462D01*
X86462993Y-97308425D01*
X86577007Y-97242599D01*
X86670099Y-97149507D01*
X86735925Y-97035493D01*
X86752962Y-96971908D01*
X87385270Y-97604217D01*
X87385270Y-97604216D01*
X87424622Y-97550054D01*
X87521095Y-97360717D01*
X87586757Y-97158630D01*
X87586757Y-97158627D01*
X87620000Y-96948746D01*
X87620000Y-96736253D01*
X87586757Y-96526372D01*
X87586757Y-96526369D01*
X87521095Y-96324282D01*
X87424624Y-96134949D01*
X87385270Y-96080782D01*
X87385269Y-96080782D01*
X86752962Y-96713090D01*
X86735925Y-96649507D01*
X86670099Y-96535493D01*
X86577007Y-96442401D01*
X86462993Y-96376575D01*
X86399409Y-96359537D01*
X87031716Y-95727228D01*
X86977550Y-95687875D01*
X86967954Y-95682986D01*
X86917157Y-95635012D01*
X86900361Y-95567192D01*
X86922897Y-95501056D01*
X86967954Y-95462014D01*
X86977554Y-95457122D01*
X87031716Y-95417770D01*
X87031717Y-95417770D01*
X86399408Y-94785462D01*
X86462993Y-94768425D01*
X86577007Y-94702599D01*
X86670099Y-94609507D01*
X86735925Y-94495493D01*
X86752962Y-94431908D01*
X87385270Y-95064217D01*
X87385270Y-95064216D01*
X87424622Y-95010054D01*
X87521095Y-94820717D01*
X87586757Y-94618630D01*
X87586757Y-94618627D01*
X87620000Y-94408746D01*
X87620000Y-94196253D01*
X87586757Y-93986372D01*
X87586757Y-93986369D01*
X87521095Y-93784282D01*
X87424624Y-93594949D01*
X87385270Y-93540782D01*
X87385269Y-93540782D01*
X86752962Y-94173090D01*
X86735925Y-94109507D01*
X86670099Y-93995493D01*
X86577007Y-93902401D01*
X86462993Y-93836575D01*
X86399409Y-93819537D01*
X87031716Y-93187228D01*
X86977550Y-93147875D01*
X86967954Y-93142986D01*
X86917157Y-93095012D01*
X86900361Y-93027192D01*
X86922897Y-92961056D01*
X86967954Y-92922014D01*
X86977554Y-92917122D01*
X87031716Y-92877770D01*
X87031717Y-92877770D01*
X86399408Y-92245462D01*
X86462993Y-92228425D01*
X86577007Y-92162599D01*
X86670099Y-92069507D01*
X86735925Y-91955493D01*
X86752962Y-91891908D01*
X87385270Y-92524217D01*
X87385270Y-92524216D01*
X87424622Y-92470054D01*
X87521095Y-92280717D01*
X87586757Y-92078630D01*
X87586757Y-92078627D01*
X87620000Y-91868746D01*
X87620000Y-91656253D01*
X87586757Y-91446372D01*
X87586757Y-91446369D01*
X87521095Y-91244282D01*
X87424624Y-91054949D01*
X87385270Y-91000782D01*
X87385269Y-91000782D01*
X86752962Y-91633090D01*
X86735925Y-91569507D01*
X86670099Y-91455493D01*
X86577007Y-91362401D01*
X86462993Y-91296575D01*
X86399409Y-91279537D01*
X87038891Y-90640053D01*
X87047624Y-90598481D01*
X87096675Y-90548723D01*
X87117872Y-90539422D01*
X87192738Y-90514615D01*
X87343652Y-90421530D01*
X87469030Y-90296152D01*
X87562115Y-90145238D01*
X87617887Y-89976926D01*
X87628500Y-89873045D01*
X87628499Y-88571956D01*
X87617887Y-88468074D01*
X87562115Y-88299762D01*
X87469030Y-88148848D01*
X87343652Y-88023470D01*
X87192738Y-87930385D01*
X87093348Y-87897451D01*
X87024427Y-87874613D01*
X86920545Y-87864000D01*
X85619462Y-87864000D01*
X85619446Y-87864001D01*
X85515572Y-87874613D01*
X85347264Y-87930384D01*
X85347259Y-87930386D01*
X85196346Y-88023471D01*
X85070971Y-88148846D01*
X84977886Y-88299759D01*
X84974835Y-88306305D01*
X84972901Y-88305403D01*
X84939086Y-88354222D01*
X84874564Y-88381032D01*
X84805791Y-88368702D01*
X84769924Y-88340667D01*
X84769651Y-88340941D01*
X84767416Y-88338706D01*
X84766885Y-88338291D01*
X84766205Y-88337495D01*
X84615006Y-88186296D01*
X84615004Y-88186294D01*
X84442009Y-88060606D01*
X84369126Y-88023470D01*
X84251483Y-87963527D01*
X84251480Y-87963526D01*
X84048117Y-87897451D01*
X83903923Y-87874613D01*
X83836916Y-87864000D01*
X83623084Y-87864000D01*
X83556077Y-87874613D01*
X83411882Y-87897451D01*
X83208519Y-87963526D01*
X83208516Y-87963527D01*
X83017990Y-88060606D01*
X82844993Y-88186296D01*
X82693796Y-88337493D01*
X82568106Y-88510490D01*
X82471027Y-88701016D01*
X82471026Y-88701019D01*
X82404951Y-88904382D01*
X82371500Y-89115584D01*
X82371500Y-89329415D01*
X82404949Y-89540608D01*
X82395994Y-89609902D01*
X82370157Y-89647687D01*
X79275016Y-92742830D01*
X78328701Y-93689145D01*
X78282672Y-93735174D01*
X78236643Y-93781202D01*
X78164321Y-93889439D01*
X78164314Y-93889452D01*
X78114499Y-94009718D01*
X78114496Y-94009730D01*
X78089100Y-94137402D01*
X78089100Y-116139596D01*
X78069415Y-116206635D01*
X78037985Y-116239914D01*
X77897576Y-116341926D01*
X77897571Y-116341930D01*
X77751930Y-116487571D01*
X77751926Y-116487576D01*
X77630873Y-116654193D01*
X77537367Y-116837705D01*
X77473719Y-117033591D01*
X77441500Y-117237019D01*
X75555300Y-117237019D01*
X75555300Y-74505411D01*
X75555772Y-74494604D01*
X75568706Y-74346763D01*
X75568707Y-74346756D01*
X75572457Y-74325484D01*
X75609465Y-74187367D01*
X75616857Y-74167061D01*
X75677280Y-74037484D01*
X75688087Y-74018766D01*
X75770098Y-73901642D01*
X75783986Y-73885090D01*
X75885090Y-73783986D01*
X75901642Y-73770098D01*
X76018766Y-73688087D01*
X76037481Y-73677281D01*
X76167063Y-73616856D01*
X76187367Y-73609465D01*
X76325484Y-73572457D01*
X76346758Y-73568706D01*
X76494605Y-73555772D01*
X76505412Y-73555300D01*
X76548355Y-73555300D01*
X83481354Y-73555300D01*
X83548393Y-73574985D01*
G37*
%TD.AperFunction*%
%TD*%
M02*
