M48
; DRILL file {KiCad 9.0.7} date 2026-01-24T13:01:49+0000
; FORMAT={-:-/ absolute / inch / decimal}
; #@! TF.CreationDate,2026-01-24T13:01:49+00:00
; #@! TF.GenerationSoftware,Kicad,Pcbnew,9.0.7
; #@! TF.FileFunction,MixedPlating,1,2
FMAT,2
INCH
; #@! TA.AperFunction,Plated,PTH,ComponentDrill
T1C0.0315
; #@! TA.AperFunction,Plated,PTH,ComponentDrill
T2C0.0354
; #@! TA.AperFunction,Plated,PTH,ComponentDrill
T3C0.0394
; #@! TA.AperFunction,Plated,PTH,ComponentDrill
T4C0.0433
; #@! TA.AperFunction,Plated,PTH,ComponentDrill
T5C0.0512
; #@! TA.AperFunction,Plated,PTH,ComponentDrill
T6C0.1260
; #@! TA.AperFunction,NonPlated,NPTH,ComponentDrill
T7C0.1378
%
G90
G05
T1
X2.695Y-3.2874
X2.695Y-3.4771
X2.695Y-3.6667
X2.695Y-3.8537
X3.095Y-3.2874
X3.095Y-3.4771
X3.095Y-3.6667
X3.095Y-3.8537
X3.6909Y-2.5787
X3.6909Y-2.6772
X3.6909Y-3.1299
X3.6909Y-3.2283
X3.6909Y-3.6811
X3.6909Y-3.7795
X3.7894Y-2.3031
X3.7894Y-2.4016
X3.7894Y-2.8543
X3.7894Y-2.9528
X3.7894Y-3.4055
X3.7894Y-3.5039
T2
X2.505Y-3.2624
X2.505Y-3.4521
X2.505Y-3.6417
X2.505Y-3.8287
X2.605Y-3.2624
X2.605Y-3.4521
X2.605Y-3.6417
X2.605Y-3.8287
T3
X2.7844Y-4.1331
X2.7844Y-4.2331
X2.8844Y-4.1331
X2.8844Y-4.2331
X2.9844Y-4.1331
X2.9844Y-4.2331
X3.0844Y-4.1331
X3.0844Y-4.2331
X3.1844Y-4.1331
X3.1844Y-4.2331
X3.255Y-2.8248
X3.255Y-3.2776
X3.2844Y-4.1331
X3.2844Y-4.2331
X3.3844Y-4.1331
X3.3844Y-4.2331
X3.455Y-2.8248
X3.455Y-3.2776
X3.4844Y-4.1331
X3.4844Y-4.2331
X4.0442Y-4.1331
X4.0442Y-4.2331
X4.1442Y-4.1331
X4.1442Y-4.2331
X4.2442Y-4.1331
X4.2442Y-4.2331
X4.3442Y-4.1331
X4.3442Y-4.2331
X4.4442Y-4.1331
X4.4442Y-4.2331
X4.5442Y-4.1331
X4.5442Y-4.2331
X4.6442Y-4.1331
X4.6442Y-4.2331
X4.7442Y-4.1331
X4.7442Y-4.2331
T4
X3.0315Y-2.6543
X3.0315Y-3.0543
X4.0354Y-2.3622
X4.0354Y-2.4622
X4.0354Y-2.5622
X4.0354Y-2.9528
X4.0354Y-3.0528
X4.0354Y-3.1528
X4.0354Y-3.5433
X4.0354Y-3.6433
X4.0354Y-3.7433
T5
X2.66Y-2.7738
X2.66Y-2.9738
X2.687Y-2.4114
X2.9154Y-2.4114
X3.2657Y-2.4114
X3.4941Y-2.4114
T6
X2.4803Y-2.3228
X2.4803Y-4.4882
X5.0394Y-2.3228
X5.0394Y-4.4882
T7
X4.6913Y-2.4622
X4.6913Y-3.0528
X4.6913Y-3.6433
M30
