%TF.GenerationSoftware,KiCad,Pcbnew,9.0.7*%
%TF.CreationDate,2026-01-24T13:01:46+00:00*%
%TF.ProjectId,bcm-power-supply,62636d2d-706f-4776-9572-2d737570706c,rev03*%
%TF.SameCoordinates,Original*%
%TF.FileFunction,Legend,Bot*%
%TF.FilePolarity,Positive*%
%FSLAX46Y46*%
G04 Gerber Fmt 4.6, Leading zero omitted, Abs format (unit mm)*
G04 Created by KiCad (PCBNEW 9.0.7) date 2026-01-24 13:01:46*
%MOMM*%
%LPD*%
G01*
G04 APERTURE LIST*
%ADD10C,0.010000*%
G04 APERTURE END LIST*
D10*
%TO.C,Ref\u002A\u002A*%
X112050843Y-80780695D02*
X112207214Y-80784799D01*
X112401221Y-80790971D01*
X112509194Y-80794617D01*
X112682702Y-80801149D01*
X112822114Y-80807615D01*
X112932802Y-80814441D01*
X113020141Y-80822052D01*
X113089504Y-80830873D01*
X113146265Y-80841328D01*
X113195798Y-80853844D01*
X113199245Y-80854837D01*
X113273423Y-80878140D01*
X113331163Y-80899716D01*
X113360221Y-80915011D01*
X113363238Y-80924245D01*
X113366604Y-80972278D01*
X113366933Y-81057509D01*
X113364279Y-81176649D01*
X113358699Y-81326411D01*
X113350248Y-81503506D01*
X113343205Y-81637801D01*
X113335437Y-81778543D01*
X113328613Y-81885949D01*
X113322072Y-81965072D01*
X113315154Y-82020966D01*
X113307198Y-82058684D01*
X113297543Y-82083278D01*
X113285527Y-82099801D01*
X113270491Y-82113308D01*
X113245242Y-82130805D01*
X113213860Y-82142136D01*
X113168466Y-82147025D01*
X113099670Y-82146438D01*
X112998081Y-82141342D01*
X112696607Y-82121629D01*
X112372862Y-82094302D01*
X112089173Y-82062828D01*
X111844397Y-82027076D01*
X111637390Y-81986917D01*
X111580905Y-81973439D01*
X111516917Y-81952158D01*
X111474345Y-81923338D01*
X111449961Y-81880086D01*
X111440532Y-81815509D01*
X111442829Y-81722714D01*
X111453620Y-81594808D01*
X111470451Y-81441518D01*
X111492792Y-81283924D01*
X111518042Y-81142280D01*
X111544875Y-81023165D01*
X111571965Y-80933158D01*
X111597985Y-80878838D01*
X111617841Y-80852824D01*
X111641496Y-80828139D01*
X111670103Y-80809099D01*
X111708332Y-80795193D01*
X111760851Y-80785911D01*
X111832330Y-80780741D01*
X111927438Y-80779172D01*
X112050843Y-80780695D01*
G36*
X112050843Y-80780695D02*
G01*
X112207214Y-80784799D01*
X112401221Y-80790971D01*
X112509194Y-80794617D01*
X112682702Y-80801149D01*
X112822114Y-80807615D01*
X112932802Y-80814441D01*
X113020141Y-80822052D01*
X113089504Y-80830873D01*
X113146265Y-80841328D01*
X113195798Y-80853844D01*
X113199245Y-80854837D01*
X113273423Y-80878140D01*
X113331163Y-80899716D01*
X113360221Y-80915011D01*
X113363238Y-80924245D01*
X113366604Y-80972278D01*
X113366933Y-81057509D01*
X113364279Y-81176649D01*
X113358699Y-81326411D01*
X113350248Y-81503506D01*
X113343205Y-81637801D01*
X113335437Y-81778543D01*
X113328613Y-81885949D01*
X113322072Y-81965072D01*
X113315154Y-82020966D01*
X113307198Y-82058684D01*
X113297543Y-82083278D01*
X113285527Y-82099801D01*
X113270491Y-82113308D01*
X113245242Y-82130805D01*
X113213860Y-82142136D01*
X113168466Y-82147025D01*
X113099670Y-82146438D01*
X112998081Y-82141342D01*
X112696607Y-82121629D01*
X112372862Y-82094302D01*
X112089173Y-82062828D01*
X111844397Y-82027076D01*
X111637390Y-81986917D01*
X111580905Y-81973439D01*
X111516917Y-81952158D01*
X111474345Y-81923338D01*
X111449961Y-81880086D01*
X111440532Y-81815509D01*
X111442829Y-81722714D01*
X111453620Y-81594808D01*
X111470451Y-81441518D01*
X111492792Y-81283924D01*
X111518042Y-81142280D01*
X111544875Y-81023165D01*
X111571965Y-80933158D01*
X111597985Y-80878838D01*
X111617841Y-80852824D01*
X111641496Y-80828139D01*
X111670103Y-80809099D01*
X111708332Y-80795193D01*
X111760851Y-80785911D01*
X111832330Y-80780741D01*
X111927438Y-80779172D01*
X112050843Y-80780695D01*
G37*
X111829368Y-82339413D02*
X111976314Y-82341801D01*
X112269521Y-82358738D01*
X112595914Y-82392255D01*
X112614475Y-82394500D01*
X112752724Y-82410507D01*
X112882698Y-82424391D01*
X112995969Y-82435330D01*
X113084110Y-82442505D01*
X113138692Y-82445096D01*
X113168139Y-82445810D01*
X113230012Y-82454467D01*
X113257532Y-82471630D01*
X113260377Y-82495166D01*
X113260792Y-82555666D01*
X113258227Y-82642522D01*
X113253226Y-82746962D01*
X113246334Y-82860215D01*
X113238095Y-82973510D01*
X113229052Y-83078076D01*
X113219751Y-83165141D01*
X113210735Y-83225935D01*
X113204498Y-83262348D01*
X113192989Y-83359572D01*
X113188292Y-83448185D01*
X113187306Y-83498700D01*
X113178465Y-83584373D01*
X113159254Y-83635976D01*
X113128201Y-83658665D01*
X113127647Y-83658811D01*
X113072292Y-83666315D01*
X112981599Y-83670602D01*
X112862043Y-83671959D01*
X112720094Y-83670669D01*
X112562227Y-83667019D01*
X112394912Y-83661293D01*
X112224623Y-83653777D01*
X112057832Y-83644755D01*
X111901012Y-83634513D01*
X111760634Y-83623337D01*
X111643173Y-83611511D01*
X111555099Y-83599321D01*
X111502885Y-83587051D01*
X111498186Y-83585245D01*
X111449770Y-83562772D01*
X111413367Y-83534434D01*
X111388149Y-83495088D01*
X111373288Y-83439588D01*
X111367956Y-83362790D01*
X111371325Y-83259551D01*
X111382567Y-83124726D01*
X111400853Y-82953171D01*
X111401712Y-82945520D01*
X111414984Y-82826288D01*
X111427686Y-82710431D01*
X111438417Y-82610843D01*
X111445772Y-82540421D01*
X111449814Y-82499177D01*
X111457464Y-82437318D01*
X111470332Y-82393872D01*
X111494601Y-82365598D01*
X111536455Y-82349256D01*
X111602078Y-82341605D01*
X111697654Y-82339404D01*
X111829368Y-82339413D01*
G36*
X111829368Y-82339413D02*
G01*
X111976314Y-82341801D01*
X112269521Y-82358738D01*
X112595914Y-82392255D01*
X112614475Y-82394500D01*
X112752724Y-82410507D01*
X112882698Y-82424391D01*
X112995969Y-82435330D01*
X113084110Y-82442505D01*
X113138692Y-82445096D01*
X113168139Y-82445810D01*
X113230012Y-82454467D01*
X113257532Y-82471630D01*
X113260377Y-82495166D01*
X113260792Y-82555666D01*
X113258227Y-82642522D01*
X113253226Y-82746962D01*
X113246334Y-82860215D01*
X113238095Y-82973510D01*
X113229052Y-83078076D01*
X113219751Y-83165141D01*
X113210735Y-83225935D01*
X113204498Y-83262348D01*
X113192989Y-83359572D01*
X113188292Y-83448185D01*
X113187306Y-83498700D01*
X113178465Y-83584373D01*
X113159254Y-83635976D01*
X113128201Y-83658665D01*
X113127647Y-83658811D01*
X113072292Y-83666315D01*
X112981599Y-83670602D01*
X112862043Y-83671959D01*
X112720094Y-83670669D01*
X112562227Y-83667019D01*
X112394912Y-83661293D01*
X112224623Y-83653777D01*
X112057832Y-83644755D01*
X111901012Y-83634513D01*
X111760634Y-83623337D01*
X111643173Y-83611511D01*
X111555099Y-83599321D01*
X111502885Y-83587051D01*
X111498186Y-83585245D01*
X111449770Y-83562772D01*
X111413367Y-83534434D01*
X111388149Y-83495088D01*
X111373288Y-83439588D01*
X111367956Y-83362790D01*
X111371325Y-83259551D01*
X111382567Y-83124726D01*
X111400853Y-82953171D01*
X111401712Y-82945520D01*
X111414984Y-82826288D01*
X111427686Y-82710431D01*
X111438417Y-82610843D01*
X111445772Y-82540421D01*
X111449814Y-82499177D01*
X111457464Y-82437318D01*
X111470332Y-82393872D01*
X111494601Y-82365598D01*
X111536455Y-82349256D01*
X111602078Y-82341605D01*
X111697654Y-82339404D01*
X111829368Y-82339413D01*
G37*
X116757713Y-80824081D02*
X117072520Y-81280989D01*
X117350691Y-81758971D01*
X117592100Y-82257771D01*
X117796621Y-82777130D01*
X117964128Y-83316794D01*
X118094495Y-83876504D01*
X118187596Y-84456005D01*
X118192359Y-84498859D01*
X118202230Y-84631064D01*
X118209422Y-84794107D01*
X118213987Y-84979866D01*
X118215974Y-85180220D01*
X118215433Y-85387046D01*
X118214800Y-85430091D01*
X118212416Y-85592223D01*
X118206972Y-85787630D01*
X118199152Y-85965143D01*
X118189006Y-86116642D01*
X118176584Y-86234005D01*
X118156449Y-86371022D01*
X118050848Y-86928433D01*
X117910036Y-87468288D01*
X117735152Y-87986065D01*
X117727512Y-88005993D01*
X117662461Y-88163997D01*
X117581500Y-88345199D01*
X117489798Y-88539142D01*
X117392522Y-88735369D01*
X117294840Y-88923419D01*
X117201919Y-89092837D01*
X117118927Y-89233162D01*
X116935842Y-89512604D01*
X116605269Y-89958007D01*
X116244101Y-90377660D01*
X115854747Y-90769521D01*
X115439620Y-91131546D01*
X115001128Y-91461693D01*
X114541684Y-91757919D01*
X114063698Y-92018183D01*
X113569581Y-92240441D01*
X113359442Y-92322522D01*
X113032216Y-92437757D01*
X112708950Y-92534714D01*
X112380520Y-92615550D01*
X112037802Y-92682419D01*
X111671669Y-92737477D01*
X111272998Y-92782878D01*
X111233240Y-92784756D01*
X111155939Y-92786087D01*
X111049065Y-92786710D01*
X110919201Y-92786612D01*
X110772928Y-92785781D01*
X110616831Y-92784203D01*
X110354491Y-92778719D01*
X110093181Y-92767000D01*
X109853753Y-92748109D01*
X109625577Y-92720748D01*
X109398022Y-92683620D01*
X109160456Y-92635426D01*
X108902249Y-92574868D01*
X108531495Y-92472996D01*
X108011411Y-92293947D01*
X107509483Y-92078313D01*
X107027276Y-91827749D01*
X106566356Y-91543913D01*
X106128289Y-91228462D01*
X105714642Y-90883054D01*
X105326980Y-90509344D01*
X104966871Y-90108990D01*
X104635879Y-89683649D01*
X104432442Y-89379707D01*
X107418701Y-89379707D01*
X107420261Y-89423390D01*
X107421333Y-89430252D01*
X107450680Y-89526356D01*
X107497529Y-89589280D01*
X107555356Y-89617751D01*
X107617639Y-89610498D01*
X107677855Y-89566246D01*
X107729481Y-89483724D01*
X107742301Y-89449078D01*
X107766792Y-89350043D01*
X107790022Y-89212484D01*
X107811807Y-89038923D01*
X107831965Y-88831881D01*
X107850311Y-88593881D01*
X107866661Y-88327443D01*
X107880832Y-88035090D01*
X107892640Y-87719343D01*
X107901902Y-87382724D01*
X107908432Y-87027755D01*
X107909184Y-86975316D01*
X107913896Y-86693182D01*
X107919433Y-86449986D01*
X107926168Y-86242828D01*
X107934473Y-86068811D01*
X107944722Y-85925037D01*
X107957287Y-85808608D01*
X107972543Y-85716624D01*
X107990860Y-85646190D01*
X108012613Y-85594405D01*
X108038175Y-85558373D01*
X108067918Y-85535194D01*
X108102215Y-85521971D01*
X108141268Y-85517934D01*
X108218087Y-85515642D01*
X108326983Y-85515099D01*
X108462784Y-85516174D01*
X108620318Y-85518735D01*
X108794415Y-85522654D01*
X108979901Y-85527798D01*
X109171605Y-85534037D01*
X109364355Y-85541240D01*
X109552980Y-85549277D01*
X109732307Y-85558017D01*
X109897164Y-85567329D01*
X109989634Y-85573136D01*
X110176683Y-85586067D01*
X110325621Y-85598389D01*
X110439394Y-85610443D01*
X110520950Y-85622568D01*
X110573234Y-85635104D01*
X110599192Y-85648393D01*
X110609304Y-85664344D01*
X110625305Y-85726038D01*
X110635372Y-85824471D01*
X110639224Y-85956151D01*
X110636585Y-86117588D01*
X110635427Y-86152012D01*
X110631821Y-86263056D01*
X110627334Y-86405122D01*
X110622216Y-86570180D01*
X110616713Y-86750200D01*
X110611075Y-86937151D01*
X110605547Y-87123005D01*
X110605006Y-87141139D01*
X110598089Y-87348416D01*
X110589449Y-87572792D01*
X110579618Y-87802381D01*
X110569127Y-88025299D01*
X110558509Y-88229663D01*
X110548293Y-88403588D01*
X110540633Y-88529311D01*
X110531329Y-88697359D01*
X110523357Y-88858961D01*
X110517121Y-89005172D01*
X110513026Y-89127045D01*
X110511479Y-89215633D01*
X110510998Y-89456179D01*
X110595055Y-89528840D01*
X110667111Y-89578417D01*
X110745375Y-89598969D01*
X110815207Y-89578480D01*
X110875442Y-89516999D01*
X110923748Y-89445077D01*
X110924375Y-88564499D01*
X110924592Y-88441213D01*
X110925779Y-88187255D01*
X110927891Y-87927642D01*
X110930839Y-87666374D01*
X110934532Y-87407450D01*
X110938878Y-87154868D01*
X110943786Y-86912628D01*
X110949167Y-86684729D01*
X110954928Y-86475168D01*
X110960979Y-86287947D01*
X110967229Y-86127062D01*
X110973587Y-85996514D01*
X110979962Y-85900300D01*
X110986264Y-85842421D01*
X110995952Y-85791064D01*
X111017103Y-85724226D01*
X111050345Y-85680686D01*
X111103195Y-85655592D01*
X111183168Y-85644093D01*
X111297780Y-85641338D01*
X111345027Y-85641947D01*
X111437224Y-85644486D01*
X111558250Y-85648754D01*
X111702634Y-85654483D01*
X111864904Y-85661406D01*
X112039590Y-85669255D01*
X112221221Y-85677765D01*
X112404324Y-85686667D01*
X112583429Y-85695694D01*
X112753064Y-85704580D01*
X112907758Y-85713057D01*
X113042040Y-85720858D01*
X113150438Y-85727715D01*
X113227481Y-85733362D01*
X113267699Y-85737531D01*
X113317153Y-85751689D01*
X113350914Y-85780401D01*
X113367834Y-85829889D01*
X113370142Y-85906929D01*
X113360066Y-86018292D01*
X113351871Y-86089662D01*
X113340214Y-86202575D01*
X113330194Y-86317766D01*
X113321681Y-86439238D01*
X113314546Y-86570998D01*
X113308660Y-86717051D01*
X113303893Y-86881403D01*
X113300117Y-87068060D01*
X113297202Y-87281026D01*
X113295019Y-87524307D01*
X113293438Y-87801909D01*
X113292331Y-88117838D01*
X113292089Y-88209231D01*
X113291529Y-88444278D01*
X113291087Y-88665949D01*
X113290766Y-88870623D01*
X113290568Y-89054682D01*
X113290494Y-89214506D01*
X113290547Y-89346475D01*
X113290730Y-89446970D01*
X113291043Y-89512370D01*
X113291490Y-89539058D01*
X113293605Y-89548222D01*
X113316565Y-89590486D01*
X113355823Y-89639599D01*
X113410741Y-89684178D01*
X113482497Y-89707872D01*
X113549687Y-89695608D01*
X113603847Y-89647130D01*
X113610635Y-89636275D01*
X113620510Y-89614697D01*
X113628007Y-89585622D01*
X113633368Y-89544074D01*
X113636835Y-89485077D01*
X113638652Y-89403656D01*
X113639061Y-89294835D01*
X113638305Y-89153637D01*
X113636626Y-88975088D01*
X113636313Y-88942636D01*
X113635887Y-88651048D01*
X113640345Y-88391002D01*
X113649943Y-88152948D01*
X113664941Y-87927338D01*
X113669699Y-87864489D01*
X113680792Y-87680926D01*
X113688967Y-87478519D01*
X113694380Y-87251413D01*
X113697186Y-86993749D01*
X113697540Y-86699671D01*
X113697204Y-86543428D01*
X113697182Y-86363843D01*
X113697868Y-86217536D01*
X113699490Y-86099289D01*
X113702274Y-86003883D01*
X113706447Y-85926100D01*
X113712237Y-85860721D01*
X113719869Y-85802527D01*
X113729571Y-85746301D01*
X113741569Y-85686823D01*
X113750023Y-85645370D01*
X113770036Y-85522165D01*
X113773933Y-85430091D01*
X113760705Y-85362503D01*
X113729341Y-85312757D01*
X113678832Y-85274210D01*
X113666589Y-85267153D01*
X113642114Y-85254982D01*
X113615570Y-85247620D01*
X113580326Y-85245324D01*
X113529752Y-85248348D01*
X113457216Y-85256947D01*
X113356086Y-85271378D01*
X113219732Y-85291895D01*
X113116481Y-85307372D01*
X113026763Y-85320012D01*
X112946475Y-85329729D01*
X112869149Y-85336796D01*
X112788313Y-85341485D01*
X112697499Y-85344067D01*
X112590237Y-85344815D01*
X112460057Y-85344000D01*
X112300489Y-85341895D01*
X112105065Y-85338772D01*
X112085907Y-85338446D01*
X111871165Y-85333536D01*
X111635193Y-85326186D01*
X111390702Y-85316916D01*
X111150406Y-85306245D01*
X110927017Y-85294691D01*
X110733248Y-85282774D01*
X110669165Y-85278403D01*
X110250000Y-85250000D01*
X109870771Y-85224690D01*
X109529489Y-85202399D01*
X109224163Y-85183050D01*
X108952803Y-85166569D01*
X108713421Y-85152881D01*
X108504026Y-85141909D01*
X108322628Y-85133580D01*
X108167238Y-85127818D01*
X108035866Y-85124547D01*
X107926522Y-85123692D01*
X107837216Y-85125178D01*
X107765959Y-85128929D01*
X107710761Y-85134872D01*
X107669631Y-85142929D01*
X107640581Y-85153026D01*
X107621621Y-85165088D01*
X107602711Y-85183496D01*
X107588031Y-85207793D01*
X107582371Y-85242932D01*
X107584375Y-85299314D01*
X107592690Y-85387338D01*
X107593984Y-85401590D01*
X107598514Y-85479095D01*
X107602490Y-85589889D01*
X107605764Y-85726845D01*
X107608190Y-85882836D01*
X107609622Y-86050737D01*
X107609912Y-86223421D01*
X107609540Y-86319698D01*
X107607845Y-86485952D01*
X107604598Y-86649026D01*
X107599528Y-86813453D01*
X107592367Y-86983761D01*
X107582843Y-87164479D01*
X107570687Y-87360139D01*
X107555628Y-87575269D01*
X107537397Y-87814399D01*
X107515722Y-88082059D01*
X107490334Y-88382779D01*
X107460964Y-88721088D01*
X107458543Y-88748936D01*
X107445435Y-88909141D01*
X107434533Y-89058599D01*
X107426201Y-89191033D01*
X107420802Y-89300162D01*
X107418701Y-89379707D01*
X104432442Y-89379707D01*
X104335572Y-89234979D01*
X104067516Y-88764635D01*
X103833275Y-88274275D01*
X103634418Y-87765557D01*
X103472510Y-87240136D01*
X103349117Y-86699671D01*
X103317651Y-86527832D01*
X103290128Y-86360497D01*
X103268935Y-86205184D01*
X103253316Y-86052839D01*
X103242514Y-85894410D01*
X103235771Y-85720843D01*
X103232331Y-85523087D01*
X103231438Y-85292088D01*
X103231479Y-85253522D01*
X103233022Y-85023392D01*
X103237364Y-84825104D01*
X103245338Y-84649593D01*
X103257776Y-84487794D01*
X103275513Y-84330643D01*
X103299379Y-84169074D01*
X103330209Y-83994022D01*
X103368835Y-83796422D01*
X103414821Y-83587010D01*
X107733146Y-83587010D01*
X107738568Y-83666706D01*
X107774121Y-83742864D01*
X107837624Y-83804085D01*
X107843690Y-83807901D01*
X107929696Y-83840578D01*
X108041195Y-83847969D01*
X108182664Y-83830416D01*
X108227013Y-83824075D01*
X108319526Y-83815504D01*
X108443694Y-83807277D01*
X108593371Y-83799737D01*
X108762409Y-83793224D01*
X108944664Y-83788080D01*
X108989724Y-83787050D01*
X109173746Y-83783421D01*
X109323714Y-83781748D01*
X109446404Y-83782192D01*
X109548590Y-83784912D01*
X109637046Y-83790069D01*
X109718546Y-83797824D01*
X109799866Y-83808337D01*
X109850472Y-83815230D01*
X109989151Y-83828988D01*
X110091913Y-83829552D01*
X110162098Y-83816773D01*
X110163923Y-83815602D01*
X110906824Y-83815602D01*
X110908411Y-83848001D01*
X110934296Y-83882891D01*
X110978794Y-83919596D01*
X110984857Y-83923269D01*
X111004205Y-83931732D01*
X111032053Y-83939025D01*
X111072158Y-83945380D01*
X111128280Y-83951026D01*
X111204176Y-83956195D01*
X111303604Y-83961117D01*
X111430323Y-83966022D01*
X111588091Y-83971140D01*
X111780666Y-83976703D01*
X112011806Y-83982940D01*
X112024489Y-83983276D01*
X112302260Y-83990682D01*
X112540984Y-83996978D01*
X112743804Y-84001964D01*
X112913864Y-84005438D01*
X113054306Y-84007200D01*
X113168274Y-84007047D01*
X113258912Y-84004779D01*
X113329363Y-84000195D01*
X113382770Y-83993094D01*
X113422277Y-83983274D01*
X113451027Y-83970534D01*
X113472162Y-83954674D01*
X113488828Y-83935492D01*
X113504166Y-83912787D01*
X113521321Y-83886358D01*
X113546019Y-83842870D01*
X113560916Y-83794357D01*
X113568421Y-83728429D01*
X113570964Y-83632666D01*
X113572229Y-83518960D01*
X113574879Y-83356565D01*
X113578613Y-83169249D01*
X113583246Y-82963735D01*
X113588593Y-82746748D01*
X113594467Y-82525014D01*
X113600685Y-82305258D01*
X113607062Y-82094203D01*
X113613411Y-81898576D01*
X113619549Y-81725101D01*
X113625289Y-81580502D01*
X113630447Y-81471505D01*
X113634291Y-81400359D01*
X113645222Y-81196588D01*
X113653825Y-81029747D01*
X113660046Y-80895753D01*
X113663827Y-80790527D01*
X113665111Y-80709988D01*
X113663843Y-80650052D01*
X113659965Y-80606641D01*
X113653421Y-80575671D01*
X113644155Y-80553063D01*
X113632111Y-80534735D01*
X113617231Y-80516605D01*
X113562487Y-80451545D01*
X113190326Y-80465899D01*
X113099677Y-80469107D01*
X112992988Y-80471520D01*
X112895847Y-80471328D01*
X112799664Y-80468064D01*
X112695849Y-80461263D01*
X112575814Y-80450456D01*
X112430970Y-80435178D01*
X112252729Y-80414962D01*
X112062436Y-80393384D01*
X111888607Y-80374908D01*
X111748198Y-80361900D01*
X111636739Y-80354246D01*
X111549755Y-80351834D01*
X111482774Y-80354549D01*
X111431324Y-80362281D01*
X111390932Y-80374915D01*
X111357125Y-80392338D01*
X111344572Y-80400349D01*
X111302036Y-80433792D01*
X111269123Y-80474743D01*
X111244262Y-80529005D01*
X111225881Y-80602383D01*
X111213891Y-80689870D01*
X111212410Y-80700681D01*
X111202277Y-80829703D01*
X111193911Y-80995255D01*
X111184440Y-81174659D01*
X111168599Y-81407878D01*
X111148028Y-81667222D01*
X111123561Y-81944378D01*
X111096030Y-82231034D01*
X111066267Y-82518877D01*
X111035104Y-82799594D01*
X111003374Y-83064871D01*
X110971909Y-83306397D01*
X110941541Y-83515859D01*
X110935843Y-83553568D01*
X110921394Y-83659824D01*
X110911436Y-83750023D01*
X110906824Y-83815602D01*
X110163923Y-83815602D01*
X110203044Y-83790505D01*
X110210391Y-83779551D01*
X110233498Y-83732858D01*
X110258216Y-83671010D01*
X110264861Y-83649209D01*
X110272565Y-83611113D01*
X110279006Y-83559274D01*
X110284373Y-83489608D01*
X110288854Y-83398031D01*
X110292640Y-83280458D01*
X110295919Y-83132805D01*
X110298880Y-82950988D01*
X110301711Y-82730921D01*
X110302959Y-82633502D01*
X110308439Y-82328985D01*
X110316019Y-82059660D01*
X110325912Y-81820044D01*
X110338334Y-81604653D01*
X110353500Y-81408005D01*
X110357729Y-81359844D01*
X110370691Y-81212136D01*
X110382997Y-81071763D01*
X110393885Y-80947434D01*
X110402591Y-80847857D01*
X110408353Y-80781743D01*
X110409947Y-80763021D01*
X110414380Y-80689870D01*
X110411064Y-80644112D01*
X110397737Y-80613518D01*
X110372140Y-80585860D01*
X110361170Y-80576371D01*
X110303339Y-80536129D01*
X110237033Y-80499785D01*
X110234886Y-80498783D01*
X110192754Y-80481601D01*
X110149901Y-80471619D01*
X110095981Y-80468136D01*
X110020648Y-80470451D01*
X109913556Y-80477863D01*
X109818922Y-80483734D01*
X109680062Y-80489586D01*
X109516534Y-80494403D01*
X109335780Y-80498132D01*
X109145242Y-80500722D01*
X108952362Y-80502124D01*
X108764580Y-80502285D01*
X108589339Y-80501155D01*
X108434081Y-80498683D01*
X108306246Y-80494818D01*
X108213276Y-80489509D01*
X108113480Y-80482050D01*
X108039838Y-80479653D01*
X107986046Y-80483607D01*
X107940761Y-80494778D01*
X107892637Y-80514034D01*
X107844845Y-80539889D01*
X107789547Y-80596784D01*
X107774565Y-80666450D01*
X107800003Y-80748624D01*
X107817510Y-80778464D01*
X107890694Y-80852708D01*
X107988816Y-80893235D01*
X108111095Y-80899836D01*
X108256748Y-80872298D01*
X108266076Y-80869993D01*
X108326820Y-80861068D01*
X108419325Y-80853079D01*
X108537894Y-80846090D01*
X108676831Y-80840164D01*
X108830439Y-80835366D01*
X108993020Y-80831759D01*
X109158879Y-80829408D01*
X109322319Y-80828376D01*
X109477643Y-80828728D01*
X109619153Y-80830527D01*
X109741154Y-80833837D01*
X109837949Y-80838723D01*
X109903841Y-80845247D01*
X109933133Y-80853476D01*
X109946296Y-80884558D01*
X109954067Y-80952451D01*
X109955175Y-81057234D01*
X109949595Y-81200132D01*
X109937303Y-81382370D01*
X109918274Y-81605174D01*
X109909639Y-81716487D01*
X109899995Y-81896798D01*
X109892783Y-82105727D01*
X109888255Y-82335451D01*
X109886667Y-82578143D01*
X109886467Y-82731363D01*
X109885268Y-82901499D01*
X109882323Y-83037035D01*
X109876890Y-83142386D01*
X109868226Y-83221967D01*
X109855588Y-83280194D01*
X109838233Y-83321481D01*
X109815418Y-83350242D01*
X109786401Y-83370893D01*
X109750439Y-83387850D01*
X109699185Y-83402304D01*
X109608800Y-83414608D01*
X109500969Y-83419278D01*
X109496197Y-83419300D01*
X109404241Y-83422109D01*
X109285954Y-83428877D01*
X109156072Y-83438632D01*
X109029331Y-83450401D01*
X108973305Y-83456046D01*
X108777935Y-83472417D01*
X108611769Y-83479816D01*
X108465121Y-83478212D01*
X108328301Y-83467577D01*
X108191621Y-83447882D01*
X108131213Y-83438181D01*
X108004725Y-83425514D01*
X107908122Y-83430004D01*
X107834794Y-83452378D01*
X107778133Y-83493362D01*
X107760040Y-83515180D01*
X107733146Y-83587010D01*
X103414821Y-83587010D01*
X103422732Y-83550986D01*
X103570617Y-83017071D01*
X103756274Y-82499230D01*
X103978184Y-81999175D01*
X104234827Y-81518615D01*
X104524681Y-81059261D01*
X104846226Y-80622824D01*
X105197943Y-80211015D01*
X105578311Y-79825544D01*
X105985809Y-79468121D01*
X106418917Y-79140457D01*
X106876115Y-78844263D01*
X107355882Y-78581249D01*
X107856698Y-78353126D01*
X108377042Y-78161605D01*
X108744210Y-78051933D01*
X109292710Y-77924398D01*
X109845886Y-77838240D01*
X110401739Y-77793448D01*
X110958269Y-77790009D01*
X111513478Y-77827912D01*
X112065366Y-77907144D01*
X112611934Y-78027696D01*
X113151183Y-78189553D01*
X113190187Y-78202969D01*
X113707671Y-78402688D01*
X114199075Y-78634450D01*
X114667151Y-78899946D01*
X115114648Y-79200868D01*
X115544319Y-79538907D01*
X115958913Y-79915755D01*
X116018696Y-79974514D01*
X116406396Y-80388504D01*
X116665691Y-80709988D01*
X116757713Y-80824081D01*
G36*
X116757713Y-80824081D02*
G01*
X117072520Y-81280989D01*
X117350691Y-81758971D01*
X117592100Y-82257771D01*
X117796621Y-82777130D01*
X117964128Y-83316794D01*
X118094495Y-83876504D01*
X118187596Y-84456005D01*
X118192359Y-84498859D01*
X118202230Y-84631064D01*
X118209422Y-84794107D01*
X118213987Y-84979866D01*
X118215974Y-85180220D01*
X118215433Y-85387046D01*
X118214800Y-85430091D01*
X118212416Y-85592223D01*
X118206972Y-85787630D01*
X118199152Y-85965143D01*
X118189006Y-86116642D01*
X118176584Y-86234005D01*
X118156449Y-86371022D01*
X118050848Y-86928433D01*
X117910036Y-87468288D01*
X117735152Y-87986065D01*
X117727512Y-88005993D01*
X117662461Y-88163997D01*
X117581500Y-88345199D01*
X117489798Y-88539142D01*
X117392522Y-88735369D01*
X117294840Y-88923419D01*
X117201919Y-89092837D01*
X117118927Y-89233162D01*
X116935842Y-89512604D01*
X116605269Y-89958007D01*
X116244101Y-90377660D01*
X115854747Y-90769521D01*
X115439620Y-91131546D01*
X115001128Y-91461693D01*
X114541684Y-91757919D01*
X114063698Y-92018183D01*
X113569581Y-92240441D01*
X113359442Y-92322522D01*
X113032216Y-92437757D01*
X112708950Y-92534714D01*
X112380520Y-92615550D01*
X112037802Y-92682419D01*
X111671669Y-92737477D01*
X111272998Y-92782878D01*
X111233240Y-92784756D01*
X111155939Y-92786087D01*
X111049065Y-92786710D01*
X110919201Y-92786612D01*
X110772928Y-92785781D01*
X110616831Y-92784203D01*
X110354491Y-92778719D01*
X110093181Y-92767000D01*
X109853753Y-92748109D01*
X109625577Y-92720748D01*
X109398022Y-92683620D01*
X109160456Y-92635426D01*
X108902249Y-92574868D01*
X108531495Y-92472996D01*
X108011411Y-92293947D01*
X107509483Y-92078313D01*
X107027276Y-91827749D01*
X106566356Y-91543913D01*
X106128289Y-91228462D01*
X105714642Y-90883054D01*
X105326980Y-90509344D01*
X104966871Y-90108990D01*
X104635879Y-89683649D01*
X104432442Y-89379707D01*
X107418701Y-89379707D01*
X107420261Y-89423390D01*
X107421333Y-89430252D01*
X107450680Y-89526356D01*
X107497529Y-89589280D01*
X107555356Y-89617751D01*
X107617639Y-89610498D01*
X107677855Y-89566246D01*
X107729481Y-89483724D01*
X107742301Y-89449078D01*
X107766792Y-89350043D01*
X107790022Y-89212484D01*
X107811807Y-89038923D01*
X107831965Y-88831881D01*
X107850311Y-88593881D01*
X107866661Y-88327443D01*
X107880832Y-88035090D01*
X107892640Y-87719343D01*
X107901902Y-87382724D01*
X107908432Y-87027755D01*
X107909184Y-86975316D01*
X107913896Y-86693182D01*
X107919433Y-86449986D01*
X107926168Y-86242828D01*
X107934473Y-86068811D01*
X107944722Y-85925037D01*
X107957287Y-85808608D01*
X107972543Y-85716624D01*
X107990860Y-85646190D01*
X108012613Y-85594405D01*
X108038175Y-85558373D01*
X108067918Y-85535194D01*
X108102215Y-85521971D01*
X108141268Y-85517934D01*
X108218087Y-85515642D01*
X108326983Y-85515099D01*
X108462784Y-85516174D01*
X108620318Y-85518735D01*
X108794415Y-85522654D01*
X108979901Y-85527798D01*
X109171605Y-85534037D01*
X109364355Y-85541240D01*
X109552980Y-85549277D01*
X109732307Y-85558017D01*
X109897164Y-85567329D01*
X109989634Y-85573136D01*
X110176683Y-85586067D01*
X110325621Y-85598389D01*
X110439394Y-85610443D01*
X110520950Y-85622568D01*
X110573234Y-85635104D01*
X110599192Y-85648393D01*
X110609304Y-85664344D01*
X110625305Y-85726038D01*
X110635372Y-85824471D01*
X110639224Y-85956151D01*
X110636585Y-86117588D01*
X110635427Y-86152012D01*
X110631821Y-86263056D01*
X110627334Y-86405122D01*
X110622216Y-86570180D01*
X110616713Y-86750200D01*
X110611075Y-86937151D01*
X110605547Y-87123005D01*
X110605006Y-87141139D01*
X110598089Y-87348416D01*
X110589449Y-87572792D01*
X110579618Y-87802381D01*
X110569127Y-88025299D01*
X110558509Y-88229663D01*
X110548293Y-88403588D01*
X110540633Y-88529311D01*
X110531329Y-88697359D01*
X110523357Y-88858961D01*
X110517121Y-89005172D01*
X110513026Y-89127045D01*
X110511479Y-89215633D01*
X110510998Y-89456179D01*
X110595055Y-89528840D01*
X110667111Y-89578417D01*
X110745375Y-89598969D01*
X110815207Y-89578480D01*
X110875442Y-89516999D01*
X110923748Y-89445077D01*
X110924375Y-88564499D01*
X110924592Y-88441213D01*
X110925779Y-88187255D01*
X110927891Y-87927642D01*
X110930839Y-87666374D01*
X110934532Y-87407450D01*
X110938878Y-87154868D01*
X110943786Y-86912628D01*
X110949167Y-86684729D01*
X110954928Y-86475168D01*
X110960979Y-86287947D01*
X110967229Y-86127062D01*
X110973587Y-85996514D01*
X110979962Y-85900300D01*
X110986264Y-85842421D01*
X110995952Y-85791064D01*
X111017103Y-85724226D01*
X111050345Y-85680686D01*
X111103195Y-85655592D01*
X111183168Y-85644093D01*
X111297780Y-85641338D01*
X111345027Y-85641947D01*
X111437224Y-85644486D01*
X111558250Y-85648754D01*
X111702634Y-85654483D01*
X111864904Y-85661406D01*
X112039590Y-85669255D01*
X112221221Y-85677765D01*
X112404324Y-85686667D01*
X112583429Y-85695694D01*
X112753064Y-85704580D01*
X112907758Y-85713057D01*
X113042040Y-85720858D01*
X113150438Y-85727715D01*
X113227481Y-85733362D01*
X113267699Y-85737531D01*
X113317153Y-85751689D01*
X113350914Y-85780401D01*
X113367834Y-85829889D01*
X113370142Y-85906929D01*
X113360066Y-86018292D01*
X113351871Y-86089662D01*
X113340214Y-86202575D01*
X113330194Y-86317766D01*
X113321681Y-86439238D01*
X113314546Y-86570998D01*
X113308660Y-86717051D01*
X113303893Y-86881403D01*
X113300117Y-87068060D01*
X113297202Y-87281026D01*
X113295019Y-87524307D01*
X113293438Y-87801909D01*
X113292331Y-88117838D01*
X113292089Y-88209231D01*
X113291529Y-88444278D01*
X113291087Y-88665949D01*
X113290766Y-88870623D01*
X113290568Y-89054682D01*
X113290494Y-89214506D01*
X113290547Y-89346475D01*
X113290730Y-89446970D01*
X113291043Y-89512370D01*
X113291490Y-89539058D01*
X113293605Y-89548222D01*
X113316565Y-89590486D01*
X113355823Y-89639599D01*
X113410741Y-89684178D01*
X113482497Y-89707872D01*
X113549687Y-89695608D01*
X113603847Y-89647130D01*
X113610635Y-89636275D01*
X113620510Y-89614697D01*
X113628007Y-89585622D01*
X113633368Y-89544074D01*
X113636835Y-89485077D01*
X113638652Y-89403656D01*
X113639061Y-89294835D01*
X113638305Y-89153637D01*
X113636626Y-88975088D01*
X113636313Y-88942636D01*
X113635887Y-88651048D01*
X113640345Y-88391002D01*
X113649943Y-88152948D01*
X113664941Y-87927338D01*
X113669699Y-87864489D01*
X113680792Y-87680926D01*
X113688967Y-87478519D01*
X113694380Y-87251413D01*
X113697186Y-86993749D01*
X113697540Y-86699671D01*
X113697204Y-86543428D01*
X113697182Y-86363843D01*
X113697868Y-86217536D01*
X113699490Y-86099289D01*
X113702274Y-86003883D01*
X113706447Y-85926100D01*
X113712237Y-85860721D01*
X113719869Y-85802527D01*
X113729571Y-85746301D01*
X113741569Y-85686823D01*
X113750023Y-85645370D01*
X113770036Y-85522165D01*
X113773933Y-85430091D01*
X113760705Y-85362503D01*
X113729341Y-85312757D01*
X113678832Y-85274210D01*
X113666589Y-85267153D01*
X113642114Y-85254982D01*
X113615570Y-85247620D01*
X113580326Y-85245324D01*
X113529752Y-85248348D01*
X113457216Y-85256947D01*
X113356086Y-85271378D01*
X113219732Y-85291895D01*
X113116481Y-85307372D01*
X113026763Y-85320012D01*
X112946475Y-85329729D01*
X112869149Y-85336796D01*
X112788313Y-85341485D01*
X112697499Y-85344067D01*
X112590237Y-85344815D01*
X112460057Y-85344000D01*
X112300489Y-85341895D01*
X112105065Y-85338772D01*
X112085907Y-85338446D01*
X111871165Y-85333536D01*
X111635193Y-85326186D01*
X111390702Y-85316916D01*
X111150406Y-85306245D01*
X110927017Y-85294691D01*
X110733248Y-85282774D01*
X110669165Y-85278403D01*
X110250000Y-85250000D01*
X109870771Y-85224690D01*
X109529489Y-85202399D01*
X109224163Y-85183050D01*
X108952803Y-85166569D01*
X108713421Y-85152881D01*
X108504026Y-85141909D01*
X108322628Y-85133580D01*
X108167238Y-85127818D01*
X108035866Y-85124547D01*
X107926522Y-85123692D01*
X107837216Y-85125178D01*
X107765959Y-85128929D01*
X107710761Y-85134872D01*
X107669631Y-85142929D01*
X107640581Y-85153026D01*
X107621621Y-85165088D01*
X107602711Y-85183496D01*
X107588031Y-85207793D01*
X107582371Y-85242932D01*
X107584375Y-85299314D01*
X107592690Y-85387338D01*
X107593984Y-85401590D01*
X107598514Y-85479095D01*
X107602490Y-85589889D01*
X107605764Y-85726845D01*
X107608190Y-85882836D01*
X107609622Y-86050737D01*
X107609912Y-86223421D01*
X107609540Y-86319698D01*
X107607845Y-86485952D01*
X107604598Y-86649026D01*
X107599528Y-86813453D01*
X107592367Y-86983761D01*
X107582843Y-87164479D01*
X107570687Y-87360139D01*
X107555628Y-87575269D01*
X107537397Y-87814399D01*
X107515722Y-88082059D01*
X107490334Y-88382779D01*
X107460964Y-88721088D01*
X107458543Y-88748936D01*
X107445435Y-88909141D01*
X107434533Y-89058599D01*
X107426201Y-89191033D01*
X107420802Y-89300162D01*
X107418701Y-89379707D01*
X104432442Y-89379707D01*
X104335572Y-89234979D01*
X104067516Y-88764635D01*
X103833275Y-88274275D01*
X103634418Y-87765557D01*
X103472510Y-87240136D01*
X103349117Y-86699671D01*
X103317651Y-86527832D01*
X103290128Y-86360497D01*
X103268935Y-86205184D01*
X103253316Y-86052839D01*
X103242514Y-85894410D01*
X103235771Y-85720843D01*
X103232331Y-85523087D01*
X103231438Y-85292088D01*
X103231479Y-85253522D01*
X103233022Y-85023392D01*
X103237364Y-84825104D01*
X103245338Y-84649593D01*
X103257776Y-84487794D01*
X103275513Y-84330643D01*
X103299379Y-84169074D01*
X103330209Y-83994022D01*
X103368835Y-83796422D01*
X103414821Y-83587010D01*
X107733146Y-83587010D01*
X107738568Y-83666706D01*
X107774121Y-83742864D01*
X107837624Y-83804085D01*
X107843690Y-83807901D01*
X107929696Y-83840578D01*
X108041195Y-83847969D01*
X108182664Y-83830416D01*
X108227013Y-83824075D01*
X108319526Y-83815504D01*
X108443694Y-83807277D01*
X108593371Y-83799737D01*
X108762409Y-83793224D01*
X108944664Y-83788080D01*
X108989724Y-83787050D01*
X109173746Y-83783421D01*
X109323714Y-83781748D01*
X109446404Y-83782192D01*
X109548590Y-83784912D01*
X109637046Y-83790069D01*
X109718546Y-83797824D01*
X109799866Y-83808337D01*
X109850472Y-83815230D01*
X109989151Y-83828988D01*
X110091913Y-83829552D01*
X110162098Y-83816773D01*
X110163923Y-83815602D01*
X110906824Y-83815602D01*
X110908411Y-83848001D01*
X110934296Y-83882891D01*
X110978794Y-83919596D01*
X110984857Y-83923269D01*
X111004205Y-83931732D01*
X111032053Y-83939025D01*
X111072158Y-83945380D01*
X111128280Y-83951026D01*
X111204176Y-83956195D01*
X111303604Y-83961117D01*
X111430323Y-83966022D01*
X111588091Y-83971140D01*
X111780666Y-83976703D01*
X112011806Y-83982940D01*
X112024489Y-83983276D01*
X112302260Y-83990682D01*
X112540984Y-83996978D01*
X112743804Y-84001964D01*
X112913864Y-84005438D01*
X113054306Y-84007200D01*
X113168274Y-84007047D01*
X113258912Y-84004779D01*
X113329363Y-84000195D01*
X113382770Y-83993094D01*
X113422277Y-83983274D01*
X113451027Y-83970534D01*
X113472162Y-83954674D01*
X113488828Y-83935492D01*
X113504166Y-83912787D01*
X113521321Y-83886358D01*
X113546019Y-83842870D01*
X113560916Y-83794357D01*
X113568421Y-83728429D01*
X113570964Y-83632666D01*
X113572229Y-83518960D01*
X113574879Y-83356565D01*
X113578613Y-83169249D01*
X113583246Y-82963735D01*
X113588593Y-82746748D01*
X113594467Y-82525014D01*
X113600685Y-82305258D01*
X113607062Y-82094203D01*
X113613411Y-81898576D01*
X113619549Y-81725101D01*
X113625289Y-81580502D01*
X113630447Y-81471505D01*
X113634291Y-81400359D01*
X113645222Y-81196588D01*
X113653825Y-81029747D01*
X113660046Y-80895753D01*
X113663827Y-80790527D01*
X113665111Y-80709988D01*
X113663843Y-80650052D01*
X113659965Y-80606641D01*
X113653421Y-80575671D01*
X113644155Y-80553063D01*
X113632111Y-80534735D01*
X113617231Y-80516605D01*
X113562487Y-80451545D01*
X113190326Y-80465899D01*
X113099677Y-80469107D01*
X112992988Y-80471520D01*
X112895847Y-80471328D01*
X112799664Y-80468064D01*
X112695849Y-80461263D01*
X112575814Y-80450456D01*
X112430970Y-80435178D01*
X112252729Y-80414962D01*
X112062436Y-80393384D01*
X111888607Y-80374908D01*
X111748198Y-80361900D01*
X111636739Y-80354246D01*
X111549755Y-80351834D01*
X111482774Y-80354549D01*
X111431324Y-80362281D01*
X111390932Y-80374915D01*
X111357125Y-80392338D01*
X111344572Y-80400349D01*
X111302036Y-80433792D01*
X111269123Y-80474743D01*
X111244262Y-80529005D01*
X111225881Y-80602383D01*
X111213891Y-80689870D01*
X111212410Y-80700681D01*
X111202277Y-80829703D01*
X111193911Y-80995255D01*
X111184440Y-81174659D01*
X111168599Y-81407878D01*
X111148028Y-81667222D01*
X111123561Y-81944378D01*
X111096030Y-82231034D01*
X111066267Y-82518877D01*
X111035104Y-82799594D01*
X111003374Y-83064871D01*
X110971909Y-83306397D01*
X110941541Y-83515859D01*
X110935843Y-83553568D01*
X110921394Y-83659824D01*
X110911436Y-83750023D01*
X110906824Y-83815602D01*
X110163923Y-83815602D01*
X110203044Y-83790505D01*
X110210391Y-83779551D01*
X110233498Y-83732858D01*
X110258216Y-83671010D01*
X110264861Y-83649209D01*
X110272565Y-83611113D01*
X110279006Y-83559274D01*
X110284373Y-83489608D01*
X110288854Y-83398031D01*
X110292640Y-83280458D01*
X110295919Y-83132805D01*
X110298880Y-82950988D01*
X110301711Y-82730921D01*
X110302959Y-82633502D01*
X110308439Y-82328985D01*
X110316019Y-82059660D01*
X110325912Y-81820044D01*
X110338334Y-81604653D01*
X110353500Y-81408005D01*
X110357729Y-81359844D01*
X110370691Y-81212136D01*
X110382997Y-81071763D01*
X110393885Y-80947434D01*
X110402591Y-80847857D01*
X110408353Y-80781743D01*
X110409947Y-80763021D01*
X110414380Y-80689870D01*
X110411064Y-80644112D01*
X110397737Y-80613518D01*
X110372140Y-80585860D01*
X110361170Y-80576371D01*
X110303339Y-80536129D01*
X110237033Y-80499785D01*
X110234886Y-80498783D01*
X110192754Y-80481601D01*
X110149901Y-80471619D01*
X110095981Y-80468136D01*
X110020648Y-80470451D01*
X109913556Y-80477863D01*
X109818922Y-80483734D01*
X109680062Y-80489586D01*
X109516534Y-80494403D01*
X109335780Y-80498132D01*
X109145242Y-80500722D01*
X108952362Y-80502124D01*
X108764580Y-80502285D01*
X108589339Y-80501155D01*
X108434081Y-80498683D01*
X108306246Y-80494818D01*
X108213276Y-80489509D01*
X108113480Y-80482050D01*
X108039838Y-80479653D01*
X107986046Y-80483607D01*
X107940761Y-80494778D01*
X107892637Y-80514034D01*
X107844845Y-80539889D01*
X107789547Y-80596784D01*
X107774565Y-80666450D01*
X107800003Y-80748624D01*
X107817510Y-80778464D01*
X107890694Y-80852708D01*
X107988816Y-80893235D01*
X108111095Y-80899836D01*
X108256748Y-80872298D01*
X108266076Y-80869993D01*
X108326820Y-80861068D01*
X108419325Y-80853079D01*
X108537894Y-80846090D01*
X108676831Y-80840164D01*
X108830439Y-80835366D01*
X108993020Y-80831759D01*
X109158879Y-80829408D01*
X109322319Y-80828376D01*
X109477643Y-80828728D01*
X109619153Y-80830527D01*
X109741154Y-80833837D01*
X109837949Y-80838723D01*
X109903841Y-80845247D01*
X109933133Y-80853476D01*
X109946296Y-80884558D01*
X109954067Y-80952451D01*
X109955175Y-81057234D01*
X109949595Y-81200132D01*
X109937303Y-81382370D01*
X109918274Y-81605174D01*
X109909639Y-81716487D01*
X109899995Y-81896798D01*
X109892783Y-82105727D01*
X109888255Y-82335451D01*
X109886667Y-82578143D01*
X109886467Y-82731363D01*
X109885268Y-82901499D01*
X109882323Y-83037035D01*
X109876890Y-83142386D01*
X109868226Y-83221967D01*
X109855588Y-83280194D01*
X109838233Y-83321481D01*
X109815418Y-83350242D01*
X109786401Y-83370893D01*
X109750439Y-83387850D01*
X109699185Y-83402304D01*
X109608800Y-83414608D01*
X109500969Y-83419278D01*
X109496197Y-83419300D01*
X109404241Y-83422109D01*
X109285954Y-83428877D01*
X109156072Y-83438632D01*
X109029331Y-83450401D01*
X108973305Y-83456046D01*
X108777935Y-83472417D01*
X108611769Y-83479816D01*
X108465121Y-83478212D01*
X108328301Y-83467577D01*
X108191621Y-83447882D01*
X108131213Y-83438181D01*
X108004725Y-83425514D01*
X107908122Y-83430004D01*
X107834794Y-83452378D01*
X107778133Y-83493362D01*
X107760040Y-83515180D01*
X107733146Y-83587010D01*
X103414821Y-83587010D01*
X103422732Y-83550986D01*
X103570617Y-83017071D01*
X103756274Y-82499230D01*
X103978184Y-81999175D01*
X104234827Y-81518615D01*
X104524681Y-81059261D01*
X104846226Y-80622824D01*
X105197943Y-80211015D01*
X105578311Y-79825544D01*
X105985809Y-79468121D01*
X106418917Y-79140457D01*
X106876115Y-78844263D01*
X107355882Y-78581249D01*
X107856698Y-78353126D01*
X108377042Y-78161605D01*
X108744210Y-78051933D01*
X109292710Y-77924398D01*
X109845886Y-77838240D01*
X110401739Y-77793448D01*
X110958269Y-77790009D01*
X111513478Y-77827912D01*
X112065366Y-77907144D01*
X112611934Y-78027696D01*
X113151183Y-78189553D01*
X113190187Y-78202969D01*
X113707671Y-78402688D01*
X114199075Y-78634450D01*
X114667151Y-78899946D01*
X115114648Y-79200868D01*
X115544319Y-79538907D01*
X115958913Y-79915755D01*
X116018696Y-79974514D01*
X116406396Y-80388504D01*
X116665691Y-80709988D01*
X116757713Y-80824081D01*
G37*
%TD*%
M02*
