%TF.GenerationSoftware,KiCad,Pcbnew,9.0.3*%
%TF.CreationDate,2025-08-01T18:14:25+01:00*%
%TF.ProjectId,bcm-power-supply,62636d2d-706f-4776-9572-2d737570706c,rev01*%
%TF.SameCoordinates,Original*%
%TF.FileFunction,Soldermask,Bot*%
%TF.FilePolarity,Negative*%
%FSLAX46Y46*%
G04 Gerber Fmt 4.6, Leading zero omitted, Abs format (unit mm)*
G04 Created by KiCad (PCBNEW 9.0.3) date 2025-08-01 18:14:25*
%MOMM*%
%LPD*%
G01*
G04 APERTURE LIST*
G04 Aperture macros list*
%AMRoundRect*
0 Rectangle with rounded corners*
0 $1 Rounding radius*
0 $2 $3 $4 $5 $6 $7 $8 $9 X,Y pos of 4 corners*
0 Add a 4 corners polygon primitive as box body*
4,1,4,$2,$3,$4,$5,$6,$7,$8,$9,$2,$3,0*
0 Add four circle primitives for the rounded corners*
1,1,$1+$1,$2,$3*
1,1,$1+$1,$4,$5*
1,1,$1+$1,$6,$7*
1,1,$1+$1,$8,$9*
0 Add four rect primitives between the rounded corners*
20,1,$1+$1,$2,$3,$4,$5,0*
20,1,$1+$1,$4,$5,$6,$7,0*
20,1,$1+$1,$6,$7,$8,$9,0*
20,1,$1+$1,$8,$9,$2,$3,0*%
G04 Aperture macros list end*
%ADD10C,1.600000*%
%ADD11RoundRect,0.575000X0.575000X0.575000X-0.575000X0.575000X-0.575000X-0.575000X0.575000X-0.575000X0*%
%ADD12C,2.300000*%
%ADD13RoundRect,0.250000X-1.050000X1.050000X-1.050000X-1.050000X1.050000X-1.050000X1.050000X1.050000X0*%
%ADD14C,2.600000*%
%ADD15R,1.800000X1.800000*%
%ADD16C,1.800000*%
%ADD17RoundRect,0.250000X0.550000X0.550000X-0.550000X0.550000X-0.550000X-0.550000X0.550000X-0.550000X0*%
%ADD18C,2.000000*%
%ADD19RoundRect,0.250000X1.800000X-1.330000X1.800000X1.330000X-1.800000X1.330000X-1.800000X-1.330000X0*%
%ADD20O,4.100000X3.160000*%
%ADD21C,3.500000*%
%ADD22R,1.905000X2.000000*%
%ADD23O,1.905000X2.000000*%
%ADD24RoundRect,0.250000X-0.550000X-0.550000X0.550000X-0.550000X0.550000X0.550000X-0.550000X0.550000X0*%
%ADD25RoundRect,0.250000X0.600000X-0.600000X0.600000X0.600000X-0.600000X0.600000X-0.600000X-0.600000X0*%
%ADD26C,1.700000*%
%ADD27C,5.600000*%
%ADD28RoundRect,0.249999X-0.850001X0.850001X-0.850001X-0.850001X0.850001X-0.850001X0.850001X0.850001X0*%
%ADD29C,2.200000*%
G04 APERTURE END LIST*
D10*
%TO.C,R3*%
X72898000Y-98552000D03*
X83058000Y-98552000D03*
%TD*%
D11*
%TO.C,F1*%
X91714000Y-66548000D03*
X85914000Y-66548000D03*
D12*
X77014000Y-66548000D03*
X71214000Y-66548000D03*
%TD*%
D13*
%TO.C,J1*%
X68834000Y-76200000D03*
D14*
X68834000Y-81280000D03*
%TD*%
D15*
%TO.C,D3*%
X66548000Y-105156000D03*
D16*
X69088000Y-105156000D03*
%TD*%
D10*
%TO.C,R1*%
X83058000Y-92964000D03*
X72898000Y-92964000D03*
%TD*%
D17*
%TO.C,C3*%
X118618000Y-90678000D03*
D10*
X116118000Y-90678000D03*
%TD*%
D18*
%TO.C,L1*%
X86614000Y-83312000D03*
X86614000Y-88392000D03*
%TD*%
D19*
%TO.C,J4*%
X136002000Y-102206000D03*
D20*
X136002000Y-98246000D03*
X136002000Y-94286000D03*
X136002000Y-90326000D03*
%TD*%
D19*
%TO.C,J5*%
X136002000Y-84172000D03*
D20*
X136002000Y-80212000D03*
X136002000Y-76252000D03*
X136002000Y-72292000D03*
%TD*%
D21*
%TO.C,U1*%
X116840000Y-67310000D03*
D22*
X114300000Y-83970000D03*
D23*
X116840000Y-83970000D03*
X119380000Y-83970000D03*
%TD*%
D10*
%TO.C,R2*%
X83058000Y-105156000D03*
X72898000Y-105156000D03*
%TD*%
D24*
%TO.C,C2*%
X97536000Y-90678000D03*
D10*
X100036000Y-90678000D03*
%TD*%
D25*
%TO.C,J2*%
X77724000Y-118364000D03*
D26*
X77724000Y-115824000D03*
X80264000Y-118364000D03*
X80264000Y-115824000D03*
X82804000Y-118364000D03*
X82804000Y-115824000D03*
X85344000Y-118364000D03*
X85344000Y-115824000D03*
X87884000Y-118364000D03*
X87884000Y-115824000D03*
X90424000Y-118364000D03*
X90424000Y-115824000D03*
X92964000Y-118364000D03*
X92964000Y-115824000D03*
X95504000Y-118364000D03*
X95504000Y-115824000D03*
%TD*%
D17*
%TO.C,C4*%
X109688000Y-90678000D03*
D10*
X107188000Y-90678000D03*
%TD*%
D27*
%TO.C,H1*%
X63500000Y-63500000D03*
%TD*%
D25*
%TO.C,J3*%
X113284000Y-118364000D03*
D26*
X113284000Y-115824000D03*
X115824000Y-118364000D03*
X115824000Y-115824000D03*
X118364000Y-118364000D03*
X118364000Y-115824000D03*
X120904000Y-118364000D03*
X120904000Y-115824000D03*
X123444000Y-118364000D03*
X123444000Y-115824000D03*
X125984000Y-118364000D03*
X125984000Y-115824000D03*
X128524000Y-118364000D03*
X128524000Y-115824000D03*
X131064000Y-118364000D03*
X131064000Y-115824000D03*
%TD*%
D28*
%TO.C,D1*%
X77978000Y-73914000D03*
D29*
X77978000Y-84074000D03*
%TD*%
D17*
%TO.C,C1*%
X89154000Y-76962000D03*
D10*
X86654000Y-76962000D03*
%TD*%
D21*
%TO.C,U2*%
X102870000Y-67310000D03*
D22*
X100330000Y-83970000D03*
D23*
X102870000Y-83970000D03*
X105410000Y-83970000D03*
%TD*%
D27*
%TO.C,H2*%
X63500000Y-127000000D03*
%TD*%
D15*
%TO.C,D2*%
X66543000Y-91948000D03*
D16*
X69083000Y-91948000D03*
%TD*%
D27*
%TO.C,H4*%
X139700000Y-127000000D03*
%TD*%
D15*
%TO.C,D4*%
X69088000Y-98552000D03*
D16*
X66548000Y-98552000D03*
%TD*%
D27*
%TO.C,H3*%
X139700000Y-63500000D03*
%TD*%
M02*
