M48
; DRILL file {KiCad 9.0.3} date 2026-01-03T18:42:11+0000
; FORMAT={-:-/ absolute / inch / decimal}
; #@! TF.CreationDate,2026-01-03T18:42:11+00:00
; #@! TF.GenerationSoftware,Kicad,Pcbnew,9.0.3
; #@! TF.FileFunction,MixedPlating,1,2
FMAT,2
INCH
; #@! TA.AperFunction,Plated,PTH,ComponentDrill
T1C0.0315
; #@! TA.AperFunction,Plated,PTH,ComponentDrill
T2C0.0354
; #@! TA.AperFunction,Plated,PTH,ComponentDrill
T3C0.0394
; #@! TA.AperFunction,Plated,PTH,ComponentDrill
T4C0.0433
; #@! TA.AperFunction,Plated,PTH,ComponentDrill
T5C0.0512
; #@! TA.AperFunction,Plated,PTH,ComponentDrill
T6C0.1260
; #@! TA.AperFunction,NonPlated,NPTH,ComponentDrill
T7C0.1378
%
G90
G05
T1
X2.695Y-3.325
X2.695Y-3.505
X2.695Y-3.685
X2.695Y-3.865
X3.095Y-3.325
X3.095Y-3.505
X3.095Y-3.685
X3.095Y-3.865
X3.3416Y-3.8
X3.44Y-3.8
X3.79Y-2.47
X3.79Y-2.5684
X3.79Y-2.815
X3.79Y-2.9134
X3.79Y-3.16
X3.79Y-3.2584
X3.8116Y-3.8
X3.91Y-3.8
X4.5Y-3.8
X4.5984Y-3.8
T2
X2.505Y-3.3
X2.505Y-3.48
X2.505Y-3.66
X2.505Y-3.84
X2.605Y-3.3
X2.605Y-3.48
X2.605Y-3.66
X2.605Y-3.84
T3
X2.72Y-4.11
X2.72Y-4.21
X2.82Y-4.11
X2.82Y-4.21
X2.92Y-4.11
X2.92Y-4.21
X3.02Y-4.11
X3.02Y-4.21
X3.12Y-4.11
X3.12Y-4.21
X3.22Y-4.11
X3.22Y-4.21
X3.255Y-2.89
X3.255Y-3.31
X3.32Y-4.11
X3.32Y-4.21
X3.42Y-4.11
X3.42Y-4.21
X3.455Y-2.89
X3.455Y-3.31
X4.0Y-4.11
X4.0Y-4.21
X4.1Y-4.11
X4.1Y-4.21
X4.2Y-4.11
X4.2Y-4.21
X4.3Y-4.11
X4.3Y-4.21
X4.4Y-4.11
X4.4Y-4.21
X4.5Y-4.11
X4.5Y-4.21
X4.6Y-4.11
X4.6Y-4.21
X4.7Y-4.11
X4.7Y-4.21
T4
X2.97Y-2.735
X2.97Y-3.135
X4.0241Y-2.485
X4.0241Y-2.585
X4.0241Y-2.685
X4.0241Y-2.91
X4.0241Y-3.01
X4.0241Y-3.11
X4.0241Y-3.335
X4.0241Y-3.435
X4.0241Y-3.535
T5
X2.66Y-2.865
X2.66Y-3.065
X2.7417Y-2.5
X2.97Y-2.5
X3.3204Y-2.5
X3.5487Y-2.5
T6
X2.5Y-2.5
X2.5Y-4.5
X5.0Y-2.5
X5.0Y-4.5
T7
X4.68Y-2.585
X4.68Y-3.01
X4.68Y-3.435
M30
