%TF.GenerationSoftware,KiCad,Pcbnew,9.0.3*%
%TF.CreationDate,2025-08-01T18:14:25+01:00*%
%TF.ProjectId,bcm-power-supply,62636d2d-706f-4776-9572-2d737570706c,rev01*%
%TF.SameCoordinates,Original*%
%TF.FileFunction,Legend,Top*%
%TF.FilePolarity,Positive*%
%FSLAX46Y46*%
G04 Gerber Fmt 4.6, Leading zero omitted, Abs format (unit mm)*
G04 Created by KiCad (PCBNEW 9.0.3) date 2025-08-01 18:14:25*
%MOMM*%
%LPD*%
G01*
G04 APERTURE LIST*
%ADD10C,0.150000*%
%ADD11C,0.120000*%
%ADD12C,0.010000*%
%ADD13C,1.000000*%
G04 APERTURE END LIST*
D10*
X140281866Y-92185904D02*
X140281866Y-91424000D01*
X140662819Y-90424000D02*
X140662819Y-90995428D01*
X140662819Y-90709714D02*
X139662819Y-90709714D01*
X139662819Y-90709714D02*
X139805676Y-90804952D01*
X139805676Y-90804952D02*
X139900914Y-90900190D01*
X139900914Y-90900190D02*
X139948533Y-90995428D01*
X139758057Y-90043047D02*
X139710438Y-89995428D01*
X139710438Y-89995428D02*
X139662819Y-89900190D01*
X139662819Y-89900190D02*
X139662819Y-89662095D01*
X139662819Y-89662095D02*
X139710438Y-89566857D01*
X139710438Y-89566857D02*
X139758057Y-89519238D01*
X139758057Y-89519238D02*
X139853295Y-89471619D01*
X139853295Y-89471619D02*
X139948533Y-89471619D01*
X139948533Y-89471619D02*
X140091390Y-89519238D01*
X140091390Y-89519238D02*
X140662819Y-90090666D01*
X140662819Y-90090666D02*
X140662819Y-89471619D01*
X139662819Y-89185904D02*
X140662819Y-88852571D01*
X140662819Y-88852571D02*
X139662819Y-88519238D01*
X76235160Y-63068200D02*
X76330398Y-63115819D01*
X76330398Y-63115819D02*
X76520874Y-63115819D01*
X76520874Y-63115819D02*
X76616112Y-63068200D01*
X76616112Y-63068200D02*
X76663731Y-62972961D01*
X76663731Y-62972961D02*
X76663731Y-62925342D01*
X76663731Y-62925342D02*
X76616112Y-62830104D01*
X76616112Y-62830104D02*
X76520874Y-62782485D01*
X76520874Y-62782485D02*
X76378017Y-62782485D01*
X76378017Y-62782485D02*
X76282779Y-62734866D01*
X76282779Y-62734866D02*
X76235160Y-62639628D01*
X76235160Y-62639628D02*
X76235160Y-62592009D01*
X76235160Y-62592009D02*
X76282779Y-62496771D01*
X76282779Y-62496771D02*
X76378017Y-62449152D01*
X76378017Y-62449152D02*
X76520874Y-62449152D01*
X76520874Y-62449152D02*
X76616112Y-62496771D01*
X77235160Y-63115819D02*
X77139922Y-63068200D01*
X77139922Y-63068200D02*
X77092303Y-62972961D01*
X77092303Y-62972961D02*
X77092303Y-62115819D01*
X77758970Y-63115819D02*
X77663732Y-63068200D01*
X77663732Y-63068200D02*
X77616113Y-63020580D01*
X77616113Y-63020580D02*
X77568494Y-62925342D01*
X77568494Y-62925342D02*
X77568494Y-62639628D01*
X77568494Y-62639628D02*
X77616113Y-62544390D01*
X77616113Y-62544390D02*
X77663732Y-62496771D01*
X77663732Y-62496771D02*
X77758970Y-62449152D01*
X77758970Y-62449152D02*
X77901827Y-62449152D01*
X77901827Y-62449152D02*
X77997065Y-62496771D01*
X77997065Y-62496771D02*
X78044684Y-62544390D01*
X78044684Y-62544390D02*
X78092303Y-62639628D01*
X78092303Y-62639628D02*
X78092303Y-62925342D01*
X78092303Y-62925342D02*
X78044684Y-63020580D01*
X78044684Y-63020580D02*
X77997065Y-63068200D01*
X77997065Y-63068200D02*
X77901827Y-63115819D01*
X77901827Y-63115819D02*
X77758970Y-63115819D01*
X78425637Y-62449152D02*
X78616113Y-63115819D01*
X78616113Y-63115819D02*
X78806589Y-62639628D01*
X78806589Y-62639628D02*
X78997065Y-63115819D01*
X78997065Y-63115819D02*
X79187541Y-62449152D01*
X79568494Y-62734866D02*
X80330399Y-62734866D01*
X80806589Y-63115819D02*
X80806589Y-62115819D01*
X80806589Y-62496771D02*
X80901827Y-62449152D01*
X80901827Y-62449152D02*
X81092303Y-62449152D01*
X81092303Y-62449152D02*
X81187541Y-62496771D01*
X81187541Y-62496771D02*
X81235160Y-62544390D01*
X81235160Y-62544390D02*
X81282779Y-62639628D01*
X81282779Y-62639628D02*
X81282779Y-62925342D01*
X81282779Y-62925342D02*
X81235160Y-63020580D01*
X81235160Y-63020580D02*
X81187541Y-63068200D01*
X81187541Y-63068200D02*
X81092303Y-63115819D01*
X81092303Y-63115819D02*
X80901827Y-63115819D01*
X80901827Y-63115819D02*
X80806589Y-63068200D01*
X81854208Y-63115819D02*
X81758970Y-63068200D01*
X81758970Y-63068200D02*
X81711351Y-62972961D01*
X81711351Y-62972961D02*
X81711351Y-62115819D01*
X82378018Y-63115819D02*
X82282780Y-63068200D01*
X82282780Y-63068200D02*
X82235161Y-63020580D01*
X82235161Y-63020580D02*
X82187542Y-62925342D01*
X82187542Y-62925342D02*
X82187542Y-62639628D01*
X82187542Y-62639628D02*
X82235161Y-62544390D01*
X82235161Y-62544390D02*
X82282780Y-62496771D01*
X82282780Y-62496771D02*
X82378018Y-62449152D01*
X82378018Y-62449152D02*
X82520875Y-62449152D01*
X82520875Y-62449152D02*
X82616113Y-62496771D01*
X82616113Y-62496771D02*
X82663732Y-62544390D01*
X82663732Y-62544390D02*
X82711351Y-62639628D01*
X82711351Y-62639628D02*
X82711351Y-62925342D01*
X82711351Y-62925342D02*
X82663732Y-63020580D01*
X82663732Y-63020580D02*
X82616113Y-63068200D01*
X82616113Y-63068200D02*
X82520875Y-63115819D01*
X82520875Y-63115819D02*
X82378018Y-63115819D01*
X83044685Y-62449152D02*
X83235161Y-63115819D01*
X83235161Y-63115819D02*
X83425637Y-62639628D01*
X83425637Y-62639628D02*
X83616113Y-63115819D01*
X83616113Y-63115819D02*
X83806589Y-62449152D01*
X84806590Y-62449152D02*
X85187542Y-62449152D01*
X84949447Y-63115819D02*
X84949447Y-62258676D01*
X84949447Y-62258676D02*
X84997066Y-62163438D01*
X84997066Y-62163438D02*
X85092304Y-62115819D01*
X85092304Y-62115819D02*
X85187542Y-62115819D01*
X85949447Y-62449152D02*
X85949447Y-63115819D01*
X85520876Y-62449152D02*
X85520876Y-62972961D01*
X85520876Y-62972961D02*
X85568495Y-63068200D01*
X85568495Y-63068200D02*
X85663733Y-63115819D01*
X85663733Y-63115819D02*
X85806590Y-63115819D01*
X85806590Y-63115819D02*
X85901828Y-63068200D01*
X85901828Y-63068200D02*
X85949447Y-63020580D01*
X86378019Y-63068200D02*
X86473257Y-63115819D01*
X86473257Y-63115819D02*
X86663733Y-63115819D01*
X86663733Y-63115819D02*
X86758971Y-63068200D01*
X86758971Y-63068200D02*
X86806590Y-62972961D01*
X86806590Y-62972961D02*
X86806590Y-62925342D01*
X86806590Y-62925342D02*
X86758971Y-62830104D01*
X86758971Y-62830104D02*
X86663733Y-62782485D01*
X86663733Y-62782485D02*
X86520876Y-62782485D01*
X86520876Y-62782485D02*
X86425638Y-62734866D01*
X86425638Y-62734866D02*
X86378019Y-62639628D01*
X86378019Y-62639628D02*
X86378019Y-62592009D01*
X86378019Y-62592009D02*
X86425638Y-62496771D01*
X86425638Y-62496771D02*
X86520876Y-62449152D01*
X86520876Y-62449152D02*
X86663733Y-62449152D01*
X86663733Y-62449152D02*
X86758971Y-62496771D01*
X87616114Y-63068200D02*
X87520876Y-63115819D01*
X87520876Y-63115819D02*
X87330400Y-63115819D01*
X87330400Y-63115819D02*
X87235162Y-63068200D01*
X87235162Y-63068200D02*
X87187543Y-62972961D01*
X87187543Y-62972961D02*
X87187543Y-62592009D01*
X87187543Y-62592009D02*
X87235162Y-62496771D01*
X87235162Y-62496771D02*
X87330400Y-62449152D01*
X87330400Y-62449152D02*
X87520876Y-62449152D01*
X87520876Y-62449152D02*
X87616114Y-62496771D01*
X87616114Y-62496771D02*
X87663733Y-62592009D01*
X87663733Y-62592009D02*
X87663733Y-62687247D01*
X87663733Y-62687247D02*
X87187543Y-62782485D01*
X92284779Y-126529875D02*
X92284779Y-125529875D01*
X92284779Y-125529875D02*
X92665731Y-125529875D01*
X92665731Y-125529875D02*
X92760969Y-125577494D01*
X92760969Y-125577494D02*
X92808588Y-125625113D01*
X92808588Y-125625113D02*
X92856207Y-125720351D01*
X92856207Y-125720351D02*
X92856207Y-125863208D01*
X92856207Y-125863208D02*
X92808588Y-125958446D01*
X92808588Y-125958446D02*
X92760969Y-126006065D01*
X92760969Y-126006065D02*
X92665731Y-126053684D01*
X92665731Y-126053684D02*
X92284779Y-126053684D01*
X93427636Y-126529875D02*
X93332398Y-126482256D01*
X93332398Y-126482256D02*
X93284779Y-126434636D01*
X93284779Y-126434636D02*
X93237160Y-126339398D01*
X93237160Y-126339398D02*
X93237160Y-126053684D01*
X93237160Y-126053684D02*
X93284779Y-125958446D01*
X93284779Y-125958446D02*
X93332398Y-125910827D01*
X93332398Y-125910827D02*
X93427636Y-125863208D01*
X93427636Y-125863208D02*
X93570493Y-125863208D01*
X93570493Y-125863208D02*
X93665731Y-125910827D01*
X93665731Y-125910827D02*
X93713350Y-125958446D01*
X93713350Y-125958446D02*
X93760969Y-126053684D01*
X93760969Y-126053684D02*
X93760969Y-126339398D01*
X93760969Y-126339398D02*
X93713350Y-126434636D01*
X93713350Y-126434636D02*
X93665731Y-126482256D01*
X93665731Y-126482256D02*
X93570493Y-126529875D01*
X93570493Y-126529875D02*
X93427636Y-126529875D01*
X94094303Y-125863208D02*
X94284779Y-126529875D01*
X94284779Y-126529875D02*
X94475255Y-126053684D01*
X94475255Y-126053684D02*
X94665731Y-126529875D01*
X94665731Y-126529875D02*
X94856207Y-125863208D01*
X95618112Y-126482256D02*
X95522874Y-126529875D01*
X95522874Y-126529875D02*
X95332398Y-126529875D01*
X95332398Y-126529875D02*
X95237160Y-126482256D01*
X95237160Y-126482256D02*
X95189541Y-126387017D01*
X95189541Y-126387017D02*
X95189541Y-126006065D01*
X95189541Y-126006065D02*
X95237160Y-125910827D01*
X95237160Y-125910827D02*
X95332398Y-125863208D01*
X95332398Y-125863208D02*
X95522874Y-125863208D01*
X95522874Y-125863208D02*
X95618112Y-125910827D01*
X95618112Y-125910827D02*
X95665731Y-126006065D01*
X95665731Y-126006065D02*
X95665731Y-126101303D01*
X95665731Y-126101303D02*
X95189541Y-126196541D01*
X96094303Y-126529875D02*
X96094303Y-125863208D01*
X96094303Y-126053684D02*
X96141922Y-125958446D01*
X96141922Y-125958446D02*
X96189541Y-125910827D01*
X96189541Y-125910827D02*
X96284779Y-125863208D01*
X96284779Y-125863208D02*
X96380017Y-125863208D01*
X97475256Y-126529875D02*
X97475256Y-125529875D01*
X97475256Y-125529875D02*
X97713351Y-125529875D01*
X97713351Y-125529875D02*
X97856208Y-125577494D01*
X97856208Y-125577494D02*
X97951446Y-125672732D01*
X97951446Y-125672732D02*
X97999065Y-125767970D01*
X97999065Y-125767970D02*
X98046684Y-125958446D01*
X98046684Y-125958446D02*
X98046684Y-126101303D01*
X98046684Y-126101303D02*
X97999065Y-126291779D01*
X97999065Y-126291779D02*
X97951446Y-126387017D01*
X97951446Y-126387017D02*
X97856208Y-126482256D01*
X97856208Y-126482256D02*
X97713351Y-126529875D01*
X97713351Y-126529875D02*
X97475256Y-126529875D01*
X98475256Y-126529875D02*
X98475256Y-125863208D01*
X98475256Y-125529875D02*
X98427637Y-125577494D01*
X98427637Y-125577494D02*
X98475256Y-125625113D01*
X98475256Y-125625113D02*
X98522875Y-125577494D01*
X98522875Y-125577494D02*
X98475256Y-125529875D01*
X98475256Y-125529875D02*
X98475256Y-125625113D01*
X98903827Y-126482256D02*
X98999065Y-126529875D01*
X98999065Y-126529875D02*
X99189541Y-126529875D01*
X99189541Y-126529875D02*
X99284779Y-126482256D01*
X99284779Y-126482256D02*
X99332398Y-126387017D01*
X99332398Y-126387017D02*
X99332398Y-126339398D01*
X99332398Y-126339398D02*
X99284779Y-126244160D01*
X99284779Y-126244160D02*
X99189541Y-126196541D01*
X99189541Y-126196541D02*
X99046684Y-126196541D01*
X99046684Y-126196541D02*
X98951446Y-126148922D01*
X98951446Y-126148922D02*
X98903827Y-126053684D01*
X98903827Y-126053684D02*
X98903827Y-126006065D01*
X98903827Y-126006065D02*
X98951446Y-125910827D01*
X98951446Y-125910827D02*
X99046684Y-125863208D01*
X99046684Y-125863208D02*
X99189541Y-125863208D01*
X99189541Y-125863208D02*
X99284779Y-125910827D01*
X99618113Y-125863208D02*
X99999065Y-125863208D01*
X99760970Y-125529875D02*
X99760970Y-126387017D01*
X99760970Y-126387017D02*
X99808589Y-126482256D01*
X99808589Y-126482256D02*
X99903827Y-126529875D01*
X99903827Y-126529875D02*
X99999065Y-126529875D01*
X100332399Y-126529875D02*
X100332399Y-125863208D01*
X100332399Y-126053684D02*
X100380018Y-125958446D01*
X100380018Y-125958446D02*
X100427637Y-125910827D01*
X100427637Y-125910827D02*
X100522875Y-125863208D01*
X100522875Y-125863208D02*
X100618113Y-125863208D01*
X100951447Y-126529875D02*
X100951447Y-125863208D01*
X100951447Y-125529875D02*
X100903828Y-125577494D01*
X100903828Y-125577494D02*
X100951447Y-125625113D01*
X100951447Y-125625113D02*
X100999066Y-125577494D01*
X100999066Y-125577494D02*
X100951447Y-125529875D01*
X100951447Y-125529875D02*
X100951447Y-125625113D01*
X101427637Y-126529875D02*
X101427637Y-125529875D01*
X101427637Y-125910827D02*
X101522875Y-125863208D01*
X101522875Y-125863208D02*
X101713351Y-125863208D01*
X101713351Y-125863208D02*
X101808589Y-125910827D01*
X101808589Y-125910827D02*
X101856208Y-125958446D01*
X101856208Y-125958446D02*
X101903827Y-126053684D01*
X101903827Y-126053684D02*
X101903827Y-126339398D01*
X101903827Y-126339398D02*
X101856208Y-126434636D01*
X101856208Y-126434636D02*
X101808589Y-126482256D01*
X101808589Y-126482256D02*
X101713351Y-126529875D01*
X101713351Y-126529875D02*
X101522875Y-126529875D01*
X101522875Y-126529875D02*
X101427637Y-126482256D01*
X102760970Y-125863208D02*
X102760970Y-126529875D01*
X102332399Y-125863208D02*
X102332399Y-126387017D01*
X102332399Y-126387017D02*
X102380018Y-126482256D01*
X102380018Y-126482256D02*
X102475256Y-126529875D01*
X102475256Y-126529875D02*
X102618113Y-126529875D01*
X102618113Y-126529875D02*
X102713351Y-126482256D01*
X102713351Y-126482256D02*
X102760970Y-126434636D01*
X103094304Y-125863208D02*
X103475256Y-125863208D01*
X103237161Y-125529875D02*
X103237161Y-126387017D01*
X103237161Y-126387017D02*
X103284780Y-126482256D01*
X103284780Y-126482256D02*
X103380018Y-126529875D01*
X103380018Y-126529875D02*
X103475256Y-126529875D01*
X103808590Y-126529875D02*
X103808590Y-125863208D01*
X103808590Y-125529875D02*
X103760971Y-125577494D01*
X103760971Y-125577494D02*
X103808590Y-125625113D01*
X103808590Y-125625113D02*
X103856209Y-125577494D01*
X103856209Y-125577494D02*
X103808590Y-125529875D01*
X103808590Y-125529875D02*
X103808590Y-125625113D01*
X104427637Y-126529875D02*
X104332399Y-126482256D01*
X104332399Y-126482256D02*
X104284780Y-126434636D01*
X104284780Y-126434636D02*
X104237161Y-126339398D01*
X104237161Y-126339398D02*
X104237161Y-126053684D01*
X104237161Y-126053684D02*
X104284780Y-125958446D01*
X104284780Y-125958446D02*
X104332399Y-125910827D01*
X104332399Y-125910827D02*
X104427637Y-125863208D01*
X104427637Y-125863208D02*
X104570494Y-125863208D01*
X104570494Y-125863208D02*
X104665732Y-125910827D01*
X104665732Y-125910827D02*
X104713351Y-125958446D01*
X104713351Y-125958446D02*
X104760970Y-126053684D01*
X104760970Y-126053684D02*
X104760970Y-126339398D01*
X104760970Y-126339398D02*
X104713351Y-126434636D01*
X104713351Y-126434636D02*
X104665732Y-126482256D01*
X104665732Y-126482256D02*
X104570494Y-126529875D01*
X104570494Y-126529875D02*
X104427637Y-126529875D01*
X105189542Y-125863208D02*
X105189542Y-126529875D01*
X105189542Y-125958446D02*
X105237161Y-125910827D01*
X105237161Y-125910827D02*
X105332399Y-125863208D01*
X105332399Y-125863208D02*
X105475256Y-125863208D01*
X105475256Y-125863208D02*
X105570494Y-125910827D01*
X105570494Y-125910827D02*
X105618113Y-126006065D01*
X105618113Y-126006065D02*
X105618113Y-126529875D01*
X107189542Y-126006065D02*
X107332399Y-126053684D01*
X107332399Y-126053684D02*
X107380018Y-126101303D01*
X107380018Y-126101303D02*
X107427637Y-126196541D01*
X107427637Y-126196541D02*
X107427637Y-126339398D01*
X107427637Y-126339398D02*
X107380018Y-126434636D01*
X107380018Y-126434636D02*
X107332399Y-126482256D01*
X107332399Y-126482256D02*
X107237161Y-126529875D01*
X107237161Y-126529875D02*
X106856209Y-126529875D01*
X106856209Y-126529875D02*
X106856209Y-125529875D01*
X106856209Y-125529875D02*
X107189542Y-125529875D01*
X107189542Y-125529875D02*
X107284780Y-125577494D01*
X107284780Y-125577494D02*
X107332399Y-125625113D01*
X107332399Y-125625113D02*
X107380018Y-125720351D01*
X107380018Y-125720351D02*
X107380018Y-125815589D01*
X107380018Y-125815589D02*
X107332399Y-125910827D01*
X107332399Y-125910827D02*
X107284780Y-125958446D01*
X107284780Y-125958446D02*
X107189542Y-126006065D01*
X107189542Y-126006065D02*
X106856209Y-126006065D01*
X107999066Y-126529875D02*
X107903828Y-126482256D01*
X107903828Y-126482256D02*
X107856209Y-126434636D01*
X107856209Y-126434636D02*
X107808590Y-126339398D01*
X107808590Y-126339398D02*
X107808590Y-126053684D01*
X107808590Y-126053684D02*
X107856209Y-125958446D01*
X107856209Y-125958446D02*
X107903828Y-125910827D01*
X107903828Y-125910827D02*
X107999066Y-125863208D01*
X107999066Y-125863208D02*
X108141923Y-125863208D01*
X108141923Y-125863208D02*
X108237161Y-125910827D01*
X108237161Y-125910827D02*
X108284780Y-125958446D01*
X108284780Y-125958446D02*
X108332399Y-126053684D01*
X108332399Y-126053684D02*
X108332399Y-126339398D01*
X108332399Y-126339398D02*
X108284780Y-126434636D01*
X108284780Y-126434636D02*
X108237161Y-126482256D01*
X108237161Y-126482256D02*
X108141923Y-126529875D01*
X108141923Y-126529875D02*
X107999066Y-126529875D01*
X109189542Y-126529875D02*
X109189542Y-126006065D01*
X109189542Y-126006065D02*
X109141923Y-125910827D01*
X109141923Y-125910827D02*
X109046685Y-125863208D01*
X109046685Y-125863208D02*
X108856209Y-125863208D01*
X108856209Y-125863208D02*
X108760971Y-125910827D01*
X109189542Y-126482256D02*
X109094304Y-126529875D01*
X109094304Y-126529875D02*
X108856209Y-126529875D01*
X108856209Y-126529875D02*
X108760971Y-126482256D01*
X108760971Y-126482256D02*
X108713352Y-126387017D01*
X108713352Y-126387017D02*
X108713352Y-126291779D01*
X108713352Y-126291779D02*
X108760971Y-126196541D01*
X108760971Y-126196541D02*
X108856209Y-126148922D01*
X108856209Y-126148922D02*
X109094304Y-126148922D01*
X109094304Y-126148922D02*
X109189542Y-126101303D01*
X109665733Y-126529875D02*
X109665733Y-125863208D01*
X109665733Y-126053684D02*
X109713352Y-125958446D01*
X109713352Y-125958446D02*
X109760971Y-125910827D01*
X109760971Y-125910827D02*
X109856209Y-125863208D01*
X109856209Y-125863208D02*
X109951447Y-125863208D01*
X110713352Y-126529875D02*
X110713352Y-125529875D01*
X110713352Y-126482256D02*
X110618114Y-126529875D01*
X110618114Y-126529875D02*
X110427638Y-126529875D01*
X110427638Y-126529875D02*
X110332400Y-126482256D01*
X110332400Y-126482256D02*
X110284781Y-126434636D01*
X110284781Y-126434636D02*
X110237162Y-126339398D01*
X110237162Y-126339398D02*
X110237162Y-126053684D01*
X110237162Y-126053684D02*
X110284781Y-125958446D01*
X110284781Y-125958446D02*
X110332400Y-125910827D01*
X110332400Y-125910827D02*
X110427638Y-125863208D01*
X110427638Y-125863208D02*
X110618114Y-125863208D01*
X110618114Y-125863208D02*
X110713352Y-125910827D01*
X92284779Y-128139819D02*
X92284779Y-127473152D01*
X92284779Y-127663628D02*
X92332398Y-127568390D01*
X92332398Y-127568390D02*
X92380017Y-127520771D01*
X92380017Y-127520771D02*
X92475255Y-127473152D01*
X92475255Y-127473152D02*
X92570493Y-127473152D01*
X93284779Y-128092200D02*
X93189541Y-128139819D01*
X93189541Y-128139819D02*
X92999065Y-128139819D01*
X92999065Y-128139819D02*
X92903827Y-128092200D01*
X92903827Y-128092200D02*
X92856208Y-127996961D01*
X92856208Y-127996961D02*
X92856208Y-127616009D01*
X92856208Y-127616009D02*
X92903827Y-127520771D01*
X92903827Y-127520771D02*
X92999065Y-127473152D01*
X92999065Y-127473152D02*
X93189541Y-127473152D01*
X93189541Y-127473152D02*
X93284779Y-127520771D01*
X93284779Y-127520771D02*
X93332398Y-127616009D01*
X93332398Y-127616009D02*
X93332398Y-127711247D01*
X93332398Y-127711247D02*
X92856208Y-127806485D01*
X93665732Y-127473152D02*
X93903827Y-128139819D01*
X93903827Y-128139819D02*
X94141922Y-127473152D01*
X94713351Y-127139819D02*
X94808589Y-127139819D01*
X94808589Y-127139819D02*
X94903827Y-127187438D01*
X94903827Y-127187438D02*
X94951446Y-127235057D01*
X94951446Y-127235057D02*
X94999065Y-127330295D01*
X94999065Y-127330295D02*
X95046684Y-127520771D01*
X95046684Y-127520771D02*
X95046684Y-127758866D01*
X95046684Y-127758866D02*
X94999065Y-127949342D01*
X94999065Y-127949342D02*
X94951446Y-128044580D01*
X94951446Y-128044580D02*
X94903827Y-128092200D01*
X94903827Y-128092200D02*
X94808589Y-128139819D01*
X94808589Y-128139819D02*
X94713351Y-128139819D01*
X94713351Y-128139819D02*
X94618113Y-128092200D01*
X94618113Y-128092200D02*
X94570494Y-128044580D01*
X94570494Y-128044580D02*
X94522875Y-127949342D01*
X94522875Y-127949342D02*
X94475256Y-127758866D01*
X94475256Y-127758866D02*
X94475256Y-127520771D01*
X94475256Y-127520771D02*
X94522875Y-127330295D01*
X94522875Y-127330295D02*
X94570494Y-127235057D01*
X94570494Y-127235057D02*
X94618113Y-127187438D01*
X94618113Y-127187438D02*
X94713351Y-127139819D01*
X95999065Y-128139819D02*
X95427637Y-128139819D01*
X95713351Y-128139819D02*
X95713351Y-127139819D01*
X95713351Y-127139819D02*
X95618113Y-127282676D01*
X95618113Y-127282676D02*
X95522875Y-127377914D01*
X95522875Y-127377914D02*
X95427637Y-127425533D01*
X63680133Y-96790095D02*
X63680133Y-97552000D01*
X63299180Y-98551999D02*
X63299180Y-97980571D01*
X63299180Y-98266285D02*
X64299180Y-98266285D01*
X64299180Y-98266285D02*
X64156323Y-98171047D01*
X64156323Y-98171047D02*
X64061085Y-98075809D01*
X64061085Y-98075809D02*
X64013466Y-97980571D01*
X64203942Y-98932952D02*
X64251561Y-98980571D01*
X64251561Y-98980571D02*
X64299180Y-99075809D01*
X64299180Y-99075809D02*
X64299180Y-99313904D01*
X64299180Y-99313904D02*
X64251561Y-99409142D01*
X64251561Y-99409142D02*
X64203942Y-99456761D01*
X64203942Y-99456761D02*
X64108704Y-99504380D01*
X64108704Y-99504380D02*
X64013466Y-99504380D01*
X64013466Y-99504380D02*
X63870609Y-99456761D01*
X63870609Y-99456761D02*
X63299180Y-98885333D01*
X63299180Y-98885333D02*
X63299180Y-99504380D01*
X64299180Y-99790095D02*
X63299180Y-100123428D01*
X63299180Y-100123428D02*
X64299180Y-100456761D01*
X63029180Y-80803809D02*
X63029180Y-80899047D01*
X63029180Y-80899047D02*
X62981561Y-80994285D01*
X62981561Y-80994285D02*
X62933942Y-81041904D01*
X62933942Y-81041904D02*
X62838704Y-81089523D01*
X62838704Y-81089523D02*
X62648228Y-81137142D01*
X62648228Y-81137142D02*
X62410133Y-81137142D01*
X62410133Y-81137142D02*
X62219657Y-81089523D01*
X62219657Y-81089523D02*
X62124419Y-81041904D01*
X62124419Y-81041904D02*
X62076800Y-80994285D01*
X62076800Y-80994285D02*
X62029180Y-80899047D01*
X62029180Y-80899047D02*
X62029180Y-80803809D01*
X62029180Y-80803809D02*
X62076800Y-80708571D01*
X62076800Y-80708571D02*
X62124419Y-80660952D01*
X62124419Y-80660952D02*
X62219657Y-80613333D01*
X62219657Y-80613333D02*
X62410133Y-80565714D01*
X62410133Y-80565714D02*
X62648228Y-80565714D01*
X62648228Y-80565714D02*
X62838704Y-80613333D01*
X62838704Y-80613333D02*
X62933942Y-80660952D01*
X62933942Y-80660952D02*
X62981561Y-80708571D01*
X62981561Y-80708571D02*
X63029180Y-80803809D01*
X63029180Y-81422857D02*
X62029180Y-81756190D01*
X62029180Y-81756190D02*
X63029180Y-82089523D01*
X140281866Y-103869904D02*
X140281866Y-103108000D01*
X140662819Y-103488952D02*
X139900914Y-103488952D01*
X140662819Y-102108000D02*
X140662819Y-102679428D01*
X140662819Y-102393714D02*
X139662819Y-102393714D01*
X139662819Y-102393714D02*
X139805676Y-102488952D01*
X139805676Y-102488952D02*
X139900914Y-102584190D01*
X139900914Y-102584190D02*
X139948533Y-102679428D01*
X139758057Y-101727047D02*
X139710438Y-101679428D01*
X139710438Y-101679428D02*
X139662819Y-101584190D01*
X139662819Y-101584190D02*
X139662819Y-101346095D01*
X139662819Y-101346095D02*
X139710438Y-101250857D01*
X139710438Y-101250857D02*
X139758057Y-101203238D01*
X139758057Y-101203238D02*
X139853295Y-101155619D01*
X139853295Y-101155619D02*
X139948533Y-101155619D01*
X139948533Y-101155619D02*
X140091390Y-101203238D01*
X140091390Y-101203238D02*
X140662819Y-101774666D01*
X140662819Y-101774666D02*
X140662819Y-101155619D01*
X139662819Y-100869904D02*
X140662819Y-100536571D01*
X140662819Y-100536571D02*
X139662819Y-100203238D01*
X62410133Y-75390476D02*
X62410133Y-76152381D01*
X62029180Y-75771428D02*
X62791085Y-75771428D01*
X63029180Y-76485714D02*
X62029180Y-76819047D01*
X62029180Y-76819047D02*
X63029180Y-77152380D01*
X64299180Y-90471810D02*
X63299180Y-90805143D01*
X63299180Y-90805143D02*
X64299180Y-91138476D01*
X63299180Y-92233715D02*
X64299180Y-92233715D01*
X63299180Y-92709905D02*
X64299180Y-92709905D01*
X64299180Y-92709905D02*
X63299180Y-93281333D01*
X63299180Y-93281333D02*
X64299180Y-93281333D01*
X140281866Y-86089904D02*
X140281866Y-85328000D01*
X140662819Y-85708952D02*
X139900914Y-85708952D01*
X140662819Y-84328000D02*
X140662819Y-84899428D01*
X140662819Y-84613714D02*
X139662819Y-84613714D01*
X139662819Y-84613714D02*
X139805676Y-84708952D01*
X139805676Y-84708952D02*
X139900914Y-84804190D01*
X139900914Y-84804190D02*
X139948533Y-84899428D01*
X139758057Y-83947047D02*
X139710438Y-83899428D01*
X139710438Y-83899428D02*
X139662819Y-83804190D01*
X139662819Y-83804190D02*
X139662819Y-83566095D01*
X139662819Y-83566095D02*
X139710438Y-83470857D01*
X139710438Y-83470857D02*
X139758057Y-83423238D01*
X139758057Y-83423238D02*
X139853295Y-83375619D01*
X139853295Y-83375619D02*
X139948533Y-83375619D01*
X139948533Y-83375619D02*
X140091390Y-83423238D01*
X140091390Y-83423238D02*
X140662819Y-83994666D01*
X140662819Y-83994666D02*
X140662819Y-83375619D01*
X139662819Y-83089904D02*
X140662819Y-82756571D01*
X140662819Y-82756571D02*
X139662819Y-82423238D01*
X63680133Y-103394095D02*
X63680133Y-104156000D01*
X63299180Y-103775047D02*
X64061085Y-103775047D01*
X63299180Y-105155999D02*
X63299180Y-104584571D01*
X63299180Y-104870285D02*
X64299180Y-104870285D01*
X64299180Y-104870285D02*
X64156323Y-104775047D01*
X64156323Y-104775047D02*
X64061085Y-104679809D01*
X64061085Y-104679809D02*
X64013466Y-104584571D01*
X64203942Y-105536952D02*
X64251561Y-105584571D01*
X64251561Y-105584571D02*
X64299180Y-105679809D01*
X64299180Y-105679809D02*
X64299180Y-105917904D01*
X64299180Y-105917904D02*
X64251561Y-106013142D01*
X64251561Y-106013142D02*
X64203942Y-106060761D01*
X64203942Y-106060761D02*
X64108704Y-106108380D01*
X64108704Y-106108380D02*
X64013466Y-106108380D01*
X64013466Y-106108380D02*
X63870609Y-106060761D01*
X63870609Y-106060761D02*
X63299180Y-105489333D01*
X63299180Y-105489333D02*
X63299180Y-106108380D01*
X64299180Y-106394095D02*
X63299180Y-106727428D01*
X63299180Y-106727428D02*
X64299180Y-107060761D01*
X140281866Y-74151904D02*
X140281866Y-73390000D01*
X140662819Y-72390000D02*
X140662819Y-72961428D01*
X140662819Y-72675714D02*
X139662819Y-72675714D01*
X139662819Y-72675714D02*
X139805676Y-72770952D01*
X139805676Y-72770952D02*
X139900914Y-72866190D01*
X139900914Y-72866190D02*
X139948533Y-72961428D01*
X139758057Y-72009047D02*
X139710438Y-71961428D01*
X139710438Y-71961428D02*
X139662819Y-71866190D01*
X139662819Y-71866190D02*
X139662819Y-71628095D01*
X139662819Y-71628095D02*
X139710438Y-71532857D01*
X139710438Y-71532857D02*
X139758057Y-71485238D01*
X139758057Y-71485238D02*
X139853295Y-71437619D01*
X139853295Y-71437619D02*
X139948533Y-71437619D01*
X139948533Y-71437619D02*
X140091390Y-71485238D01*
X140091390Y-71485238D02*
X140662819Y-72056666D01*
X140662819Y-72056666D02*
X140662819Y-71437619D01*
X139662819Y-71151904D02*
X140662819Y-70818571D01*
X140662819Y-70818571D02*
X139662819Y-70485238D01*
X70266112Y-126092009D02*
X70408969Y-126139628D01*
X70408969Y-126139628D02*
X70456588Y-126187247D01*
X70456588Y-126187247D02*
X70504207Y-126282485D01*
X70504207Y-126282485D02*
X70504207Y-126425342D01*
X70504207Y-126425342D02*
X70456588Y-126520580D01*
X70456588Y-126520580D02*
X70408969Y-126568200D01*
X70408969Y-126568200D02*
X70313731Y-126615819D01*
X70313731Y-126615819D02*
X69932779Y-126615819D01*
X69932779Y-126615819D02*
X69932779Y-125615819D01*
X69932779Y-125615819D02*
X70266112Y-125615819D01*
X70266112Y-125615819D02*
X70361350Y-125663438D01*
X70361350Y-125663438D02*
X70408969Y-125711057D01*
X70408969Y-125711057D02*
X70456588Y-125806295D01*
X70456588Y-125806295D02*
X70456588Y-125901533D01*
X70456588Y-125901533D02*
X70408969Y-125996771D01*
X70408969Y-125996771D02*
X70361350Y-126044390D01*
X70361350Y-126044390D02*
X70266112Y-126092009D01*
X70266112Y-126092009D02*
X69932779Y-126092009D01*
X70932779Y-126615819D02*
X70932779Y-125949152D01*
X70932779Y-126139628D02*
X70980398Y-126044390D01*
X70980398Y-126044390D02*
X71028017Y-125996771D01*
X71028017Y-125996771D02*
X71123255Y-125949152D01*
X71123255Y-125949152D02*
X71218493Y-125949152D01*
X71551827Y-126615819D02*
X71551827Y-125949152D01*
X71551827Y-125615819D02*
X71504208Y-125663438D01*
X71504208Y-125663438D02*
X71551827Y-125711057D01*
X71551827Y-125711057D02*
X71599446Y-125663438D01*
X71599446Y-125663438D02*
X71551827Y-125615819D01*
X71551827Y-125615819D02*
X71551827Y-125711057D01*
X71980398Y-126568200D02*
X72075636Y-126615819D01*
X72075636Y-126615819D02*
X72266112Y-126615819D01*
X72266112Y-126615819D02*
X72361350Y-126568200D01*
X72361350Y-126568200D02*
X72408969Y-126472961D01*
X72408969Y-126472961D02*
X72408969Y-126425342D01*
X72408969Y-126425342D02*
X72361350Y-126330104D01*
X72361350Y-126330104D02*
X72266112Y-126282485D01*
X72266112Y-126282485D02*
X72123255Y-126282485D01*
X72123255Y-126282485D02*
X72028017Y-126234866D01*
X72028017Y-126234866D02*
X71980398Y-126139628D01*
X71980398Y-126139628D02*
X71980398Y-126092009D01*
X71980398Y-126092009D02*
X72028017Y-125996771D01*
X72028017Y-125996771D02*
X72123255Y-125949152D01*
X72123255Y-125949152D02*
X72266112Y-125949152D01*
X72266112Y-125949152D02*
X72361350Y-125996771D01*
X72694684Y-125949152D02*
X73075636Y-125949152D01*
X72837541Y-125615819D02*
X72837541Y-126472961D01*
X72837541Y-126472961D02*
X72885160Y-126568200D01*
X72885160Y-126568200D02*
X72980398Y-126615819D01*
X72980398Y-126615819D02*
X73075636Y-126615819D01*
X73551827Y-126615819D02*
X73456589Y-126568200D01*
X73456589Y-126568200D02*
X73408970Y-126520580D01*
X73408970Y-126520580D02*
X73361351Y-126425342D01*
X73361351Y-126425342D02*
X73361351Y-126139628D01*
X73361351Y-126139628D02*
X73408970Y-126044390D01*
X73408970Y-126044390D02*
X73456589Y-125996771D01*
X73456589Y-125996771D02*
X73551827Y-125949152D01*
X73551827Y-125949152D02*
X73694684Y-125949152D01*
X73694684Y-125949152D02*
X73789922Y-125996771D01*
X73789922Y-125996771D02*
X73837541Y-126044390D01*
X73837541Y-126044390D02*
X73885160Y-126139628D01*
X73885160Y-126139628D02*
X73885160Y-126425342D01*
X73885160Y-126425342D02*
X73837541Y-126520580D01*
X73837541Y-126520580D02*
X73789922Y-126568200D01*
X73789922Y-126568200D02*
X73694684Y-126615819D01*
X73694684Y-126615819D02*
X73551827Y-126615819D01*
X74456589Y-126615819D02*
X74361351Y-126568200D01*
X74361351Y-126568200D02*
X74313732Y-126472961D01*
X74313732Y-126472961D02*
X74313732Y-125615819D01*
X76170875Y-126520580D02*
X76123256Y-126568200D01*
X76123256Y-126568200D02*
X75980399Y-126615819D01*
X75980399Y-126615819D02*
X75885161Y-126615819D01*
X75885161Y-126615819D02*
X75742304Y-126568200D01*
X75742304Y-126568200D02*
X75647066Y-126472961D01*
X75647066Y-126472961D02*
X75599447Y-126377723D01*
X75599447Y-126377723D02*
X75551828Y-126187247D01*
X75551828Y-126187247D02*
X75551828Y-126044390D01*
X75551828Y-126044390D02*
X75599447Y-125853914D01*
X75599447Y-125853914D02*
X75647066Y-125758676D01*
X75647066Y-125758676D02*
X75742304Y-125663438D01*
X75742304Y-125663438D02*
X75885161Y-125615819D01*
X75885161Y-125615819D02*
X75980399Y-125615819D01*
X75980399Y-125615819D02*
X76123256Y-125663438D01*
X76123256Y-125663438D02*
X76170875Y-125711057D01*
X76742304Y-126615819D02*
X76647066Y-126568200D01*
X76647066Y-126568200D02*
X76599447Y-126520580D01*
X76599447Y-126520580D02*
X76551828Y-126425342D01*
X76551828Y-126425342D02*
X76551828Y-126139628D01*
X76551828Y-126139628D02*
X76599447Y-126044390D01*
X76599447Y-126044390D02*
X76647066Y-125996771D01*
X76647066Y-125996771D02*
X76742304Y-125949152D01*
X76742304Y-125949152D02*
X76885161Y-125949152D01*
X76885161Y-125949152D02*
X76980399Y-125996771D01*
X76980399Y-125996771D02*
X77028018Y-126044390D01*
X77028018Y-126044390D02*
X77075637Y-126139628D01*
X77075637Y-126139628D02*
X77075637Y-126425342D01*
X77075637Y-126425342D02*
X77028018Y-126520580D01*
X77028018Y-126520580D02*
X76980399Y-126568200D01*
X76980399Y-126568200D02*
X76885161Y-126615819D01*
X76885161Y-126615819D02*
X76742304Y-126615819D01*
X77504209Y-126615819D02*
X77504209Y-125949152D01*
X77504209Y-126044390D02*
X77551828Y-125996771D01*
X77551828Y-125996771D02*
X77647066Y-125949152D01*
X77647066Y-125949152D02*
X77789923Y-125949152D01*
X77789923Y-125949152D02*
X77885161Y-125996771D01*
X77885161Y-125996771D02*
X77932780Y-126092009D01*
X77932780Y-126092009D02*
X77932780Y-126615819D01*
X77932780Y-126092009D02*
X77980399Y-125996771D01*
X77980399Y-125996771D02*
X78075637Y-125949152D01*
X78075637Y-125949152D02*
X78218494Y-125949152D01*
X78218494Y-125949152D02*
X78313733Y-125996771D01*
X78313733Y-125996771D02*
X78361352Y-126092009D01*
X78361352Y-126092009D02*
X78361352Y-126615819D01*
X78837542Y-126615819D02*
X78837542Y-125949152D01*
X78837542Y-126044390D02*
X78885161Y-125996771D01*
X78885161Y-125996771D02*
X78980399Y-125949152D01*
X78980399Y-125949152D02*
X79123256Y-125949152D01*
X79123256Y-125949152D02*
X79218494Y-125996771D01*
X79218494Y-125996771D02*
X79266113Y-126092009D01*
X79266113Y-126092009D02*
X79266113Y-126615819D01*
X79266113Y-126092009D02*
X79313732Y-125996771D01*
X79313732Y-125996771D02*
X79408970Y-125949152D01*
X79408970Y-125949152D02*
X79551827Y-125949152D01*
X79551827Y-125949152D02*
X79647066Y-125996771D01*
X79647066Y-125996771D02*
X79694685Y-126092009D01*
X79694685Y-126092009D02*
X79694685Y-126615819D01*
X80599446Y-125949152D02*
X80599446Y-126615819D01*
X80170875Y-125949152D02*
X80170875Y-126472961D01*
X80170875Y-126472961D02*
X80218494Y-126568200D01*
X80218494Y-126568200D02*
X80313732Y-126615819D01*
X80313732Y-126615819D02*
X80456589Y-126615819D01*
X80456589Y-126615819D02*
X80551827Y-126568200D01*
X80551827Y-126568200D02*
X80599446Y-126520580D01*
X81075637Y-125949152D02*
X81075637Y-126615819D01*
X81075637Y-126044390D02*
X81123256Y-125996771D01*
X81123256Y-125996771D02*
X81218494Y-125949152D01*
X81218494Y-125949152D02*
X81361351Y-125949152D01*
X81361351Y-125949152D02*
X81456589Y-125996771D01*
X81456589Y-125996771D02*
X81504208Y-126092009D01*
X81504208Y-126092009D02*
X81504208Y-126615819D01*
X82408970Y-126615819D02*
X82408970Y-126092009D01*
X82408970Y-126092009D02*
X82361351Y-125996771D01*
X82361351Y-125996771D02*
X82266113Y-125949152D01*
X82266113Y-125949152D02*
X82075637Y-125949152D01*
X82075637Y-125949152D02*
X81980399Y-125996771D01*
X82408970Y-126568200D02*
X82313732Y-126615819D01*
X82313732Y-126615819D02*
X82075637Y-126615819D01*
X82075637Y-126615819D02*
X81980399Y-126568200D01*
X81980399Y-126568200D02*
X81932780Y-126472961D01*
X81932780Y-126472961D02*
X81932780Y-126377723D01*
X81932780Y-126377723D02*
X81980399Y-126282485D01*
X81980399Y-126282485D02*
X82075637Y-126234866D01*
X82075637Y-126234866D02*
X82313732Y-126234866D01*
X82313732Y-126234866D02*
X82408970Y-126187247D01*
X83028018Y-126615819D02*
X82932780Y-126568200D01*
X82932780Y-126568200D02*
X82885161Y-126472961D01*
X82885161Y-126472961D02*
X82885161Y-125615819D01*
X84170876Y-126615819D02*
X84170876Y-125615819D01*
X84170876Y-125615819D02*
X84504209Y-126330104D01*
X84504209Y-126330104D02*
X84837542Y-125615819D01*
X84837542Y-125615819D02*
X84837542Y-126615819D01*
X85456590Y-126615819D02*
X85361352Y-126568200D01*
X85361352Y-126568200D02*
X85313733Y-126520580D01*
X85313733Y-126520580D02*
X85266114Y-126425342D01*
X85266114Y-126425342D02*
X85266114Y-126139628D01*
X85266114Y-126139628D02*
X85313733Y-126044390D01*
X85313733Y-126044390D02*
X85361352Y-125996771D01*
X85361352Y-125996771D02*
X85456590Y-125949152D01*
X85456590Y-125949152D02*
X85599447Y-125949152D01*
X85599447Y-125949152D02*
X85694685Y-125996771D01*
X85694685Y-125996771D02*
X85742304Y-126044390D01*
X85742304Y-126044390D02*
X85789923Y-126139628D01*
X85789923Y-126139628D02*
X85789923Y-126425342D01*
X85789923Y-126425342D02*
X85742304Y-126520580D01*
X85742304Y-126520580D02*
X85694685Y-126568200D01*
X85694685Y-126568200D02*
X85599447Y-126615819D01*
X85599447Y-126615819D02*
X85456590Y-126615819D01*
X86647066Y-126615819D02*
X86647066Y-125615819D01*
X86647066Y-126568200D02*
X86551828Y-126615819D01*
X86551828Y-126615819D02*
X86361352Y-126615819D01*
X86361352Y-126615819D02*
X86266114Y-126568200D01*
X86266114Y-126568200D02*
X86218495Y-126520580D01*
X86218495Y-126520580D02*
X86170876Y-126425342D01*
X86170876Y-126425342D02*
X86170876Y-126139628D01*
X86170876Y-126139628D02*
X86218495Y-126044390D01*
X86218495Y-126044390D02*
X86266114Y-125996771D01*
X86266114Y-125996771D02*
X86361352Y-125949152D01*
X86361352Y-125949152D02*
X86551828Y-125949152D01*
X86551828Y-125949152D02*
X86647066Y-125996771D01*
X87551828Y-125949152D02*
X87551828Y-126615819D01*
X87123257Y-125949152D02*
X87123257Y-126472961D01*
X87123257Y-126472961D02*
X87170876Y-126568200D01*
X87170876Y-126568200D02*
X87266114Y-126615819D01*
X87266114Y-126615819D02*
X87408971Y-126615819D01*
X87408971Y-126615819D02*
X87504209Y-126568200D01*
X87504209Y-126568200D02*
X87551828Y-126520580D01*
X88170876Y-126615819D02*
X88075638Y-126568200D01*
X88075638Y-126568200D02*
X88028019Y-126472961D01*
X88028019Y-126472961D02*
X88028019Y-125615819D01*
X88980400Y-126615819D02*
X88980400Y-126092009D01*
X88980400Y-126092009D02*
X88932781Y-125996771D01*
X88932781Y-125996771D02*
X88837543Y-125949152D01*
X88837543Y-125949152D02*
X88647067Y-125949152D01*
X88647067Y-125949152D02*
X88551829Y-125996771D01*
X88980400Y-126568200D02*
X88885162Y-126615819D01*
X88885162Y-126615819D02*
X88647067Y-126615819D01*
X88647067Y-126615819D02*
X88551829Y-126568200D01*
X88551829Y-126568200D02*
X88504210Y-126472961D01*
X88504210Y-126472961D02*
X88504210Y-126377723D01*
X88504210Y-126377723D02*
X88551829Y-126282485D01*
X88551829Y-126282485D02*
X88647067Y-126234866D01*
X88647067Y-126234866D02*
X88885162Y-126234866D01*
X88885162Y-126234866D02*
X88980400Y-126187247D01*
X89456591Y-126615819D02*
X89456591Y-125949152D01*
X89456591Y-126139628D02*
X89504210Y-126044390D01*
X89504210Y-126044390D02*
X89551829Y-125996771D01*
X89551829Y-125996771D02*
X89647067Y-125949152D01*
X89647067Y-125949152D02*
X89742305Y-125949152D01*
X77811333Y-99006819D02*
X77478000Y-98530628D01*
X77239905Y-99006819D02*
X77239905Y-98006819D01*
X77239905Y-98006819D02*
X77620857Y-98006819D01*
X77620857Y-98006819D02*
X77716095Y-98054438D01*
X77716095Y-98054438D02*
X77763714Y-98102057D01*
X77763714Y-98102057D02*
X77811333Y-98197295D01*
X77811333Y-98197295D02*
X77811333Y-98340152D01*
X77811333Y-98340152D02*
X77763714Y-98435390D01*
X77763714Y-98435390D02*
X77716095Y-98483009D01*
X77716095Y-98483009D02*
X77620857Y-98530628D01*
X77620857Y-98530628D02*
X77239905Y-98530628D01*
X78144667Y-98006819D02*
X78763714Y-98006819D01*
X78763714Y-98006819D02*
X78430381Y-98387771D01*
X78430381Y-98387771D02*
X78573238Y-98387771D01*
X78573238Y-98387771D02*
X78668476Y-98435390D01*
X78668476Y-98435390D02*
X78716095Y-98483009D01*
X78716095Y-98483009D02*
X78763714Y-98578247D01*
X78763714Y-98578247D02*
X78763714Y-98816342D01*
X78763714Y-98816342D02*
X78716095Y-98911580D01*
X78716095Y-98911580D02*
X78668476Y-98959200D01*
X78668476Y-98959200D02*
X78573238Y-99006819D01*
X78573238Y-99006819D02*
X78287524Y-99006819D01*
X78287524Y-99006819D02*
X78192286Y-98959200D01*
X78192286Y-98959200D02*
X78144667Y-98911580D01*
X81130666Y-70543009D02*
X80797333Y-70543009D01*
X80797333Y-71066819D02*
X80797333Y-70066819D01*
X80797333Y-70066819D02*
X81273523Y-70066819D01*
X82178285Y-71066819D02*
X81606857Y-71066819D01*
X81892571Y-71066819D02*
X81892571Y-70066819D01*
X81892571Y-70066819D02*
X81797333Y-70209676D01*
X81797333Y-70209676D02*
X81702095Y-70304914D01*
X81702095Y-70304914D02*
X81606857Y-70352533D01*
X68500666Y-71844819D02*
X68500666Y-72559104D01*
X68500666Y-72559104D02*
X68453047Y-72701961D01*
X68453047Y-72701961D02*
X68357809Y-72797200D01*
X68357809Y-72797200D02*
X68214952Y-72844819D01*
X68214952Y-72844819D02*
X68119714Y-72844819D01*
X69500666Y-72844819D02*
X68929238Y-72844819D01*
X69214952Y-72844819D02*
X69214952Y-71844819D01*
X69214952Y-71844819D02*
X69119714Y-71987676D01*
X69119714Y-71987676D02*
X69024476Y-72082914D01*
X69024476Y-72082914D02*
X68929238Y-72130533D01*
X70889905Y-103578819D02*
X70889905Y-102578819D01*
X70889905Y-102578819D02*
X71128000Y-102578819D01*
X71128000Y-102578819D02*
X71270857Y-102626438D01*
X71270857Y-102626438D02*
X71366095Y-102721676D01*
X71366095Y-102721676D02*
X71413714Y-102816914D01*
X71413714Y-102816914D02*
X71461333Y-103007390D01*
X71461333Y-103007390D02*
X71461333Y-103150247D01*
X71461333Y-103150247D02*
X71413714Y-103340723D01*
X71413714Y-103340723D02*
X71366095Y-103435961D01*
X71366095Y-103435961D02*
X71270857Y-103531200D01*
X71270857Y-103531200D02*
X71128000Y-103578819D01*
X71128000Y-103578819D02*
X70889905Y-103578819D01*
X71794667Y-102578819D02*
X72413714Y-102578819D01*
X72413714Y-102578819D02*
X72080381Y-102959771D01*
X72080381Y-102959771D02*
X72223238Y-102959771D01*
X72223238Y-102959771D02*
X72318476Y-103007390D01*
X72318476Y-103007390D02*
X72366095Y-103055009D01*
X72366095Y-103055009D02*
X72413714Y-103150247D01*
X72413714Y-103150247D02*
X72413714Y-103388342D01*
X72413714Y-103388342D02*
X72366095Y-103483580D01*
X72366095Y-103483580D02*
X72318476Y-103531200D01*
X72318476Y-103531200D02*
X72223238Y-103578819D01*
X72223238Y-103578819D02*
X71937524Y-103578819D01*
X71937524Y-103578819D02*
X71842286Y-103531200D01*
X71842286Y-103531200D02*
X71794667Y-103483580D01*
X77811333Y-93418819D02*
X77478000Y-92942628D01*
X77239905Y-93418819D02*
X77239905Y-92418819D01*
X77239905Y-92418819D02*
X77620857Y-92418819D01*
X77620857Y-92418819D02*
X77716095Y-92466438D01*
X77716095Y-92466438D02*
X77763714Y-92514057D01*
X77763714Y-92514057D02*
X77811333Y-92609295D01*
X77811333Y-92609295D02*
X77811333Y-92752152D01*
X77811333Y-92752152D02*
X77763714Y-92847390D01*
X77763714Y-92847390D02*
X77716095Y-92895009D01*
X77716095Y-92895009D02*
X77620857Y-92942628D01*
X77620857Y-92942628D02*
X77239905Y-92942628D01*
X78763714Y-93418819D02*
X78192286Y-93418819D01*
X78478000Y-93418819D02*
X78478000Y-92418819D01*
X78478000Y-92418819D02*
X78382762Y-92561676D01*
X78382762Y-92561676D02*
X78287524Y-92656914D01*
X78287524Y-92656914D02*
X78192286Y-92704533D01*
X117201333Y-95437580D02*
X117153714Y-95485200D01*
X117153714Y-95485200D02*
X117010857Y-95532819D01*
X117010857Y-95532819D02*
X116915619Y-95532819D01*
X116915619Y-95532819D02*
X116772762Y-95485200D01*
X116772762Y-95485200D02*
X116677524Y-95389961D01*
X116677524Y-95389961D02*
X116629905Y-95294723D01*
X116629905Y-95294723D02*
X116582286Y-95104247D01*
X116582286Y-95104247D02*
X116582286Y-94961390D01*
X116582286Y-94961390D02*
X116629905Y-94770914D01*
X116629905Y-94770914D02*
X116677524Y-94675676D01*
X116677524Y-94675676D02*
X116772762Y-94580438D01*
X116772762Y-94580438D02*
X116915619Y-94532819D01*
X116915619Y-94532819D02*
X117010857Y-94532819D01*
X117010857Y-94532819D02*
X117153714Y-94580438D01*
X117153714Y-94580438D02*
X117201333Y-94628057D01*
X117534667Y-94532819D02*
X118153714Y-94532819D01*
X118153714Y-94532819D02*
X117820381Y-94913771D01*
X117820381Y-94913771D02*
X117963238Y-94913771D01*
X117963238Y-94913771D02*
X118058476Y-94961390D01*
X118058476Y-94961390D02*
X118106095Y-95009009D01*
X118106095Y-95009009D02*
X118153714Y-95104247D01*
X118153714Y-95104247D02*
X118153714Y-95342342D01*
X118153714Y-95342342D02*
X118106095Y-95437580D01*
X118106095Y-95437580D02*
X118058476Y-95485200D01*
X118058476Y-95485200D02*
X117963238Y-95532819D01*
X117963238Y-95532819D02*
X117677524Y-95532819D01*
X117677524Y-95532819D02*
X117582286Y-95485200D01*
X117582286Y-95485200D02*
X117534667Y-95437580D01*
X82129333Y-89862819D02*
X81653143Y-89862819D01*
X81653143Y-89862819D02*
X81653143Y-88862819D01*
X82986476Y-89862819D02*
X82415048Y-89862819D01*
X82700762Y-89862819D02*
X82700762Y-88862819D01*
X82700762Y-88862819D02*
X82605524Y-89005676D01*
X82605524Y-89005676D02*
X82510286Y-89100914D01*
X82510286Y-89100914D02*
X82415048Y-89148533D01*
X127174666Y-105118819D02*
X127174666Y-105833104D01*
X127174666Y-105833104D02*
X127127047Y-105975961D01*
X127127047Y-105975961D02*
X127031809Y-106071200D01*
X127031809Y-106071200D02*
X126888952Y-106118819D01*
X126888952Y-106118819D02*
X126793714Y-106118819D01*
X128079428Y-105452152D02*
X128079428Y-106118819D01*
X127841333Y-105071200D02*
X127603238Y-105785485D01*
X127603238Y-105785485D02*
X128222285Y-105785485D01*
X127682666Y-68542819D02*
X127682666Y-69257104D01*
X127682666Y-69257104D02*
X127635047Y-69399961D01*
X127635047Y-69399961D02*
X127539809Y-69495200D01*
X127539809Y-69495200D02*
X127396952Y-69542819D01*
X127396952Y-69542819D02*
X127301714Y-69542819D01*
X128635047Y-68542819D02*
X128158857Y-68542819D01*
X128158857Y-68542819D02*
X128111238Y-69019009D01*
X128111238Y-69019009D02*
X128158857Y-68971390D01*
X128158857Y-68971390D02*
X128254095Y-68923771D01*
X128254095Y-68923771D02*
X128492190Y-68923771D01*
X128492190Y-68923771D02*
X128587428Y-68971390D01*
X128587428Y-68971390D02*
X128635047Y-69019009D01*
X128635047Y-69019009D02*
X128682666Y-69114247D01*
X128682666Y-69114247D02*
X128682666Y-69352342D01*
X128682666Y-69352342D02*
X128635047Y-69447580D01*
X128635047Y-69447580D02*
X128587428Y-69495200D01*
X128587428Y-69495200D02*
X128492190Y-69542819D01*
X128492190Y-69542819D02*
X128254095Y-69542819D01*
X128254095Y-69542819D02*
X128158857Y-69495200D01*
X128158857Y-69495200D02*
X128111238Y-69447580D01*
X116078095Y-62954819D02*
X116078095Y-63764342D01*
X116078095Y-63764342D02*
X116125714Y-63859580D01*
X116125714Y-63859580D02*
X116173333Y-63907200D01*
X116173333Y-63907200D02*
X116268571Y-63954819D01*
X116268571Y-63954819D02*
X116459047Y-63954819D01*
X116459047Y-63954819D02*
X116554285Y-63907200D01*
X116554285Y-63907200D02*
X116601904Y-63859580D01*
X116601904Y-63859580D02*
X116649523Y-63764342D01*
X116649523Y-63764342D02*
X116649523Y-62954819D01*
X117649523Y-63954819D02*
X117078095Y-63954819D01*
X117363809Y-63954819D02*
X117363809Y-62954819D01*
X117363809Y-62954819D02*
X117268571Y-63097676D01*
X117268571Y-63097676D02*
X117173333Y-63192914D01*
X117173333Y-63192914D02*
X117078095Y-63240533D01*
X77811333Y-105610819D02*
X77478000Y-105134628D01*
X77239905Y-105610819D02*
X77239905Y-104610819D01*
X77239905Y-104610819D02*
X77620857Y-104610819D01*
X77620857Y-104610819D02*
X77716095Y-104658438D01*
X77716095Y-104658438D02*
X77763714Y-104706057D01*
X77763714Y-104706057D02*
X77811333Y-104801295D01*
X77811333Y-104801295D02*
X77811333Y-104944152D01*
X77811333Y-104944152D02*
X77763714Y-105039390D01*
X77763714Y-105039390D02*
X77716095Y-105087009D01*
X77716095Y-105087009D02*
X77620857Y-105134628D01*
X77620857Y-105134628D02*
X77239905Y-105134628D01*
X78192286Y-104706057D02*
X78239905Y-104658438D01*
X78239905Y-104658438D02*
X78335143Y-104610819D01*
X78335143Y-104610819D02*
X78573238Y-104610819D01*
X78573238Y-104610819D02*
X78668476Y-104658438D01*
X78668476Y-104658438D02*
X78716095Y-104706057D01*
X78716095Y-104706057D02*
X78763714Y-104801295D01*
X78763714Y-104801295D02*
X78763714Y-104896533D01*
X78763714Y-104896533D02*
X78716095Y-105039390D01*
X78716095Y-105039390D02*
X78144667Y-105610819D01*
X78144667Y-105610819D02*
X78763714Y-105610819D01*
X95845333Y-94847580D02*
X95797714Y-94895200D01*
X95797714Y-94895200D02*
X95654857Y-94942819D01*
X95654857Y-94942819D02*
X95559619Y-94942819D01*
X95559619Y-94942819D02*
X95416762Y-94895200D01*
X95416762Y-94895200D02*
X95321524Y-94799961D01*
X95321524Y-94799961D02*
X95273905Y-94704723D01*
X95273905Y-94704723D02*
X95226286Y-94514247D01*
X95226286Y-94514247D02*
X95226286Y-94371390D01*
X95226286Y-94371390D02*
X95273905Y-94180914D01*
X95273905Y-94180914D02*
X95321524Y-94085676D01*
X95321524Y-94085676D02*
X95416762Y-93990438D01*
X95416762Y-93990438D02*
X95559619Y-93942819D01*
X95559619Y-93942819D02*
X95654857Y-93942819D01*
X95654857Y-93942819D02*
X95797714Y-93990438D01*
X95797714Y-93990438D02*
X95845333Y-94038057D01*
X96226286Y-94038057D02*
X96273905Y-93990438D01*
X96273905Y-93990438D02*
X96369143Y-93942819D01*
X96369143Y-93942819D02*
X96607238Y-93942819D01*
X96607238Y-93942819D02*
X96702476Y-93990438D01*
X96702476Y-93990438D02*
X96750095Y-94038057D01*
X96750095Y-94038057D02*
X96797714Y-94133295D01*
X96797714Y-94133295D02*
X96797714Y-94228533D01*
X96797714Y-94228533D02*
X96750095Y-94371390D01*
X96750095Y-94371390D02*
X96178667Y-94942819D01*
X96178667Y-94942819D02*
X96797714Y-94942819D01*
X86280666Y-110706819D02*
X86280666Y-111421104D01*
X86280666Y-111421104D02*
X86233047Y-111563961D01*
X86233047Y-111563961D02*
X86137809Y-111659200D01*
X86137809Y-111659200D02*
X85994952Y-111706819D01*
X85994952Y-111706819D02*
X85899714Y-111706819D01*
X86709238Y-110802057D02*
X86756857Y-110754438D01*
X86756857Y-110754438D02*
X86852095Y-110706819D01*
X86852095Y-110706819D02*
X87090190Y-110706819D01*
X87090190Y-110706819D02*
X87185428Y-110754438D01*
X87185428Y-110754438D02*
X87233047Y-110802057D01*
X87233047Y-110802057D02*
X87280666Y-110897295D01*
X87280666Y-110897295D02*
X87280666Y-110992533D01*
X87280666Y-110992533D02*
X87233047Y-111135390D01*
X87233047Y-111135390D02*
X86661619Y-111706819D01*
X86661619Y-111706819D02*
X87280666Y-111706819D01*
X86122095Y-123517866D02*
X86884000Y-123517866D01*
X86503047Y-123898819D02*
X86503047Y-123136914D01*
X87883999Y-123898819D02*
X87312571Y-123898819D01*
X87598285Y-123898819D02*
X87598285Y-122898819D01*
X87598285Y-122898819D02*
X87503047Y-123041676D01*
X87503047Y-123041676D02*
X87407809Y-123136914D01*
X87407809Y-123136914D02*
X87312571Y-123184533D01*
X88264952Y-122994057D02*
X88312571Y-122946438D01*
X88312571Y-122946438D02*
X88407809Y-122898819D01*
X88407809Y-122898819D02*
X88645904Y-122898819D01*
X88645904Y-122898819D02*
X88741142Y-122946438D01*
X88741142Y-122946438D02*
X88788761Y-122994057D01*
X88788761Y-122994057D02*
X88836380Y-123089295D01*
X88836380Y-123089295D02*
X88836380Y-123184533D01*
X88836380Y-123184533D02*
X88788761Y-123327390D01*
X88788761Y-123327390D02*
X88217333Y-123898819D01*
X88217333Y-123898819D02*
X88836380Y-123898819D01*
X89122095Y-122898819D02*
X89455428Y-123898819D01*
X89455428Y-123898819D02*
X89788761Y-122898819D01*
X69649180Y-114451142D02*
X70125371Y-114117809D01*
X69649180Y-113879714D02*
X70649180Y-113879714D01*
X70649180Y-113879714D02*
X70649180Y-114260666D01*
X70649180Y-114260666D02*
X70601561Y-114355904D01*
X70601561Y-114355904D02*
X70553942Y-114403523D01*
X70553942Y-114403523D02*
X70458704Y-114451142D01*
X70458704Y-114451142D02*
X70315847Y-114451142D01*
X70315847Y-114451142D02*
X70220609Y-114403523D01*
X70220609Y-114403523D02*
X70172990Y-114355904D01*
X70172990Y-114355904D02*
X70125371Y-114260666D01*
X70125371Y-114260666D02*
X70125371Y-113879714D01*
X70172990Y-114879714D02*
X70172990Y-115213047D01*
X69649180Y-115355904D02*
X69649180Y-114879714D01*
X69649180Y-114879714D02*
X70649180Y-114879714D01*
X70649180Y-114879714D02*
X70649180Y-115355904D01*
X69649180Y-115784476D02*
X70649180Y-115784476D01*
X70649180Y-115784476D02*
X70649180Y-116022571D01*
X70649180Y-116022571D02*
X70601561Y-116165428D01*
X70601561Y-116165428D02*
X70506323Y-116260666D01*
X70506323Y-116260666D02*
X70411085Y-116308285D01*
X70411085Y-116308285D02*
X70220609Y-116355904D01*
X70220609Y-116355904D02*
X70077752Y-116355904D01*
X70077752Y-116355904D02*
X69887276Y-116308285D01*
X69887276Y-116308285D02*
X69792038Y-116260666D01*
X69792038Y-116260666D02*
X69696800Y-116165428D01*
X69696800Y-116165428D02*
X69649180Y-116022571D01*
X69649180Y-116022571D02*
X69649180Y-115784476D01*
X69649180Y-118022571D02*
X69649180Y-117546381D01*
X69649180Y-117546381D02*
X70649180Y-117546381D01*
X69649180Y-118355905D02*
X70649180Y-118355905D01*
X69649180Y-118832095D02*
X70649180Y-118832095D01*
X70649180Y-118832095D02*
X69649180Y-119403523D01*
X69649180Y-119403523D02*
X70649180Y-119403523D01*
X70172990Y-119879714D02*
X70172990Y-120213047D01*
X69649180Y-120355904D02*
X69649180Y-119879714D01*
X69649180Y-119879714D02*
X70649180Y-119879714D01*
X70649180Y-119879714D02*
X70649180Y-120355904D01*
X75962095Y-123517866D02*
X76724000Y-123517866D01*
X77723999Y-123898819D02*
X77152571Y-123898819D01*
X77438285Y-123898819D02*
X77438285Y-122898819D01*
X77438285Y-122898819D02*
X77343047Y-123041676D01*
X77343047Y-123041676D02*
X77247809Y-123136914D01*
X77247809Y-123136914D02*
X77152571Y-123184533D01*
X78104952Y-122994057D02*
X78152571Y-122946438D01*
X78152571Y-122946438D02*
X78247809Y-122898819D01*
X78247809Y-122898819D02*
X78485904Y-122898819D01*
X78485904Y-122898819D02*
X78581142Y-122946438D01*
X78581142Y-122946438D02*
X78628761Y-122994057D01*
X78628761Y-122994057D02*
X78676380Y-123089295D01*
X78676380Y-123089295D02*
X78676380Y-123184533D01*
X78676380Y-123184533D02*
X78628761Y-123327390D01*
X78628761Y-123327390D02*
X78057333Y-123898819D01*
X78057333Y-123898819D02*
X78676380Y-123898819D01*
X78962095Y-122898819D02*
X79295428Y-123898819D01*
X79295428Y-123898819D02*
X79628761Y-122898819D01*
X108271333Y-95437580D02*
X108223714Y-95485200D01*
X108223714Y-95485200D02*
X108080857Y-95532819D01*
X108080857Y-95532819D02*
X107985619Y-95532819D01*
X107985619Y-95532819D02*
X107842762Y-95485200D01*
X107842762Y-95485200D02*
X107747524Y-95389961D01*
X107747524Y-95389961D02*
X107699905Y-95294723D01*
X107699905Y-95294723D02*
X107652286Y-95104247D01*
X107652286Y-95104247D02*
X107652286Y-94961390D01*
X107652286Y-94961390D02*
X107699905Y-94770914D01*
X107699905Y-94770914D02*
X107747524Y-94675676D01*
X107747524Y-94675676D02*
X107842762Y-94580438D01*
X107842762Y-94580438D02*
X107985619Y-94532819D01*
X107985619Y-94532819D02*
X108080857Y-94532819D01*
X108080857Y-94532819D02*
X108223714Y-94580438D01*
X108223714Y-94580438D02*
X108271333Y-94628057D01*
X109128476Y-94866152D02*
X109128476Y-95532819D01*
X108890381Y-94485200D02*
X108652286Y-95199485D01*
X108652286Y-95199485D02*
X109271333Y-95199485D01*
X121840666Y-110706819D02*
X121840666Y-111421104D01*
X121840666Y-111421104D02*
X121793047Y-111563961D01*
X121793047Y-111563961D02*
X121697809Y-111659200D01*
X121697809Y-111659200D02*
X121554952Y-111706819D01*
X121554952Y-111706819D02*
X121459714Y-111706819D01*
X122221619Y-110706819D02*
X122840666Y-110706819D01*
X122840666Y-110706819D02*
X122507333Y-111087771D01*
X122507333Y-111087771D02*
X122650190Y-111087771D01*
X122650190Y-111087771D02*
X122745428Y-111135390D01*
X122745428Y-111135390D02*
X122793047Y-111183009D01*
X122793047Y-111183009D02*
X122840666Y-111278247D01*
X122840666Y-111278247D02*
X122840666Y-111516342D01*
X122840666Y-111516342D02*
X122793047Y-111611580D01*
X122793047Y-111611580D02*
X122745428Y-111659200D01*
X122745428Y-111659200D02*
X122650190Y-111706819D01*
X122650190Y-111706819D02*
X122364476Y-111706819D01*
X122364476Y-111706819D02*
X122269238Y-111659200D01*
X122269238Y-111659200D02*
X122221619Y-111611580D01*
X105209180Y-114451142D02*
X105685371Y-114117809D01*
X105209180Y-113879714D02*
X106209180Y-113879714D01*
X106209180Y-113879714D02*
X106209180Y-114260666D01*
X106209180Y-114260666D02*
X106161561Y-114355904D01*
X106161561Y-114355904D02*
X106113942Y-114403523D01*
X106113942Y-114403523D02*
X106018704Y-114451142D01*
X106018704Y-114451142D02*
X105875847Y-114451142D01*
X105875847Y-114451142D02*
X105780609Y-114403523D01*
X105780609Y-114403523D02*
X105732990Y-114355904D01*
X105732990Y-114355904D02*
X105685371Y-114260666D01*
X105685371Y-114260666D02*
X105685371Y-113879714D01*
X105732990Y-114879714D02*
X105732990Y-115213047D01*
X105209180Y-115355904D02*
X105209180Y-114879714D01*
X105209180Y-114879714D02*
X106209180Y-114879714D01*
X106209180Y-114879714D02*
X106209180Y-115355904D01*
X105209180Y-115784476D02*
X106209180Y-115784476D01*
X106209180Y-115784476D02*
X106209180Y-116022571D01*
X106209180Y-116022571D02*
X106161561Y-116165428D01*
X106161561Y-116165428D02*
X106066323Y-116260666D01*
X106066323Y-116260666D02*
X105971085Y-116308285D01*
X105971085Y-116308285D02*
X105780609Y-116355904D01*
X105780609Y-116355904D02*
X105637752Y-116355904D01*
X105637752Y-116355904D02*
X105447276Y-116308285D01*
X105447276Y-116308285D02*
X105352038Y-116260666D01*
X105352038Y-116260666D02*
X105256800Y-116165428D01*
X105256800Y-116165428D02*
X105209180Y-116022571D01*
X105209180Y-116022571D02*
X105209180Y-115784476D01*
X105209180Y-118022571D02*
X105209180Y-117546381D01*
X105209180Y-117546381D02*
X106209180Y-117546381D01*
X105209180Y-118355905D02*
X106209180Y-118355905D01*
X105209180Y-118832095D02*
X106209180Y-118832095D01*
X106209180Y-118832095D02*
X105209180Y-119403523D01*
X105209180Y-119403523D02*
X106209180Y-119403523D01*
X105732990Y-119879714D02*
X105732990Y-120213047D01*
X105209180Y-120355904D02*
X105209180Y-119879714D01*
X105209180Y-119879714D02*
X106209180Y-119879714D01*
X106209180Y-119879714D02*
X106209180Y-120355904D01*
X111522095Y-123517866D02*
X112284000Y-123517866D01*
X113283999Y-123898819D02*
X112712571Y-123898819D01*
X112998285Y-123898819D02*
X112998285Y-122898819D01*
X112998285Y-122898819D02*
X112903047Y-123041676D01*
X112903047Y-123041676D02*
X112807809Y-123136914D01*
X112807809Y-123136914D02*
X112712571Y-123184533D01*
X113664952Y-122994057D02*
X113712571Y-122946438D01*
X113712571Y-122946438D02*
X113807809Y-122898819D01*
X113807809Y-122898819D02*
X114045904Y-122898819D01*
X114045904Y-122898819D02*
X114141142Y-122946438D01*
X114141142Y-122946438D02*
X114188761Y-122994057D01*
X114188761Y-122994057D02*
X114236380Y-123089295D01*
X114236380Y-123089295D02*
X114236380Y-123184533D01*
X114236380Y-123184533D02*
X114188761Y-123327390D01*
X114188761Y-123327390D02*
X113617333Y-123898819D01*
X113617333Y-123898819D02*
X114236380Y-123898819D01*
X114522095Y-122898819D02*
X114855428Y-123898819D01*
X114855428Y-123898819D02*
X115188761Y-122898819D01*
X121682095Y-123517866D02*
X122444000Y-123517866D01*
X122063047Y-123898819D02*
X122063047Y-123136914D01*
X123443999Y-123898819D02*
X122872571Y-123898819D01*
X123158285Y-123898819D02*
X123158285Y-122898819D01*
X123158285Y-122898819D02*
X123063047Y-123041676D01*
X123063047Y-123041676D02*
X122967809Y-123136914D01*
X122967809Y-123136914D02*
X122872571Y-123184533D01*
X123824952Y-122994057D02*
X123872571Y-122946438D01*
X123872571Y-122946438D02*
X123967809Y-122898819D01*
X123967809Y-122898819D02*
X124205904Y-122898819D01*
X124205904Y-122898819D02*
X124301142Y-122946438D01*
X124301142Y-122946438D02*
X124348761Y-122994057D01*
X124348761Y-122994057D02*
X124396380Y-123089295D01*
X124396380Y-123089295D02*
X124396380Y-123184533D01*
X124396380Y-123184533D02*
X124348761Y-123327390D01*
X124348761Y-123327390D02*
X123777333Y-123898819D01*
X123777333Y-123898819D02*
X124396380Y-123898819D01*
X124682095Y-122898819D02*
X125015428Y-123898819D01*
X125015428Y-123898819D02*
X125348761Y-122898819D01*
X79779905Y-75130819D02*
X79779905Y-74130819D01*
X79779905Y-74130819D02*
X80018000Y-74130819D01*
X80018000Y-74130819D02*
X80160857Y-74178438D01*
X80160857Y-74178438D02*
X80256095Y-74273676D01*
X80256095Y-74273676D02*
X80303714Y-74368914D01*
X80303714Y-74368914D02*
X80351333Y-74559390D01*
X80351333Y-74559390D02*
X80351333Y-74702247D01*
X80351333Y-74702247D02*
X80303714Y-74892723D01*
X80303714Y-74892723D02*
X80256095Y-74987961D01*
X80256095Y-74987961D02*
X80160857Y-75083200D01*
X80160857Y-75083200D02*
X80018000Y-75130819D01*
X80018000Y-75130819D02*
X79779905Y-75130819D01*
X81303714Y-75130819D02*
X80732286Y-75130819D01*
X81018000Y-75130819D02*
X81018000Y-74130819D01*
X81018000Y-74130819D02*
X80922762Y-74273676D01*
X80922762Y-74273676D02*
X80827524Y-74368914D01*
X80827524Y-74368914D02*
X80732286Y-74416533D01*
X83145333Y-77575580D02*
X83097714Y-77623200D01*
X83097714Y-77623200D02*
X82954857Y-77670819D01*
X82954857Y-77670819D02*
X82859619Y-77670819D01*
X82859619Y-77670819D02*
X82716762Y-77623200D01*
X82716762Y-77623200D02*
X82621524Y-77527961D01*
X82621524Y-77527961D02*
X82573905Y-77432723D01*
X82573905Y-77432723D02*
X82526286Y-77242247D01*
X82526286Y-77242247D02*
X82526286Y-77099390D01*
X82526286Y-77099390D02*
X82573905Y-76908914D01*
X82573905Y-76908914D02*
X82621524Y-76813676D01*
X82621524Y-76813676D02*
X82716762Y-76718438D01*
X82716762Y-76718438D02*
X82859619Y-76670819D01*
X82859619Y-76670819D02*
X82954857Y-76670819D01*
X82954857Y-76670819D02*
X83097714Y-76718438D01*
X83097714Y-76718438D02*
X83145333Y-76766057D01*
X84097714Y-77670819D02*
X83526286Y-77670819D01*
X83812000Y-77670819D02*
X83812000Y-76670819D01*
X83812000Y-76670819D02*
X83716762Y-76813676D01*
X83716762Y-76813676D02*
X83621524Y-76908914D01*
X83621524Y-76908914D02*
X83526286Y-76956533D01*
X102108095Y-62954819D02*
X102108095Y-63764342D01*
X102108095Y-63764342D02*
X102155714Y-63859580D01*
X102155714Y-63859580D02*
X102203333Y-63907200D01*
X102203333Y-63907200D02*
X102298571Y-63954819D01*
X102298571Y-63954819D02*
X102489047Y-63954819D01*
X102489047Y-63954819D02*
X102584285Y-63907200D01*
X102584285Y-63907200D02*
X102631904Y-63859580D01*
X102631904Y-63859580D02*
X102679523Y-63764342D01*
X102679523Y-63764342D02*
X102679523Y-62954819D01*
X103108095Y-63050057D02*
X103155714Y-63002438D01*
X103155714Y-63002438D02*
X103250952Y-62954819D01*
X103250952Y-62954819D02*
X103489047Y-62954819D01*
X103489047Y-62954819D02*
X103584285Y-63002438D01*
X103584285Y-63002438D02*
X103631904Y-63050057D01*
X103631904Y-63050057D02*
X103679523Y-63145295D01*
X103679523Y-63145295D02*
X103679523Y-63240533D01*
X103679523Y-63240533D02*
X103631904Y-63383390D01*
X103631904Y-63383390D02*
X103060476Y-63954819D01*
X103060476Y-63954819D02*
X103679523Y-63954819D01*
X70889905Y-90370819D02*
X70889905Y-89370819D01*
X70889905Y-89370819D02*
X71128000Y-89370819D01*
X71128000Y-89370819D02*
X71270857Y-89418438D01*
X71270857Y-89418438D02*
X71366095Y-89513676D01*
X71366095Y-89513676D02*
X71413714Y-89608914D01*
X71413714Y-89608914D02*
X71461333Y-89799390D01*
X71461333Y-89799390D02*
X71461333Y-89942247D01*
X71461333Y-89942247D02*
X71413714Y-90132723D01*
X71413714Y-90132723D02*
X71366095Y-90227961D01*
X71366095Y-90227961D02*
X71270857Y-90323200D01*
X71270857Y-90323200D02*
X71128000Y-90370819D01*
X71128000Y-90370819D02*
X70889905Y-90370819D01*
X71842286Y-89466057D02*
X71889905Y-89418438D01*
X71889905Y-89418438D02*
X71985143Y-89370819D01*
X71985143Y-89370819D02*
X72223238Y-89370819D01*
X72223238Y-89370819D02*
X72318476Y-89418438D01*
X72318476Y-89418438D02*
X72366095Y-89466057D01*
X72366095Y-89466057D02*
X72413714Y-89561295D01*
X72413714Y-89561295D02*
X72413714Y-89656533D01*
X72413714Y-89656533D02*
X72366095Y-89799390D01*
X72366095Y-89799390D02*
X71794667Y-90370819D01*
X71794667Y-90370819D02*
X72413714Y-90370819D01*
X70889905Y-96974819D02*
X70889905Y-95974819D01*
X70889905Y-95974819D02*
X71128000Y-95974819D01*
X71128000Y-95974819D02*
X71270857Y-96022438D01*
X71270857Y-96022438D02*
X71366095Y-96117676D01*
X71366095Y-96117676D02*
X71413714Y-96212914D01*
X71413714Y-96212914D02*
X71461333Y-96403390D01*
X71461333Y-96403390D02*
X71461333Y-96546247D01*
X71461333Y-96546247D02*
X71413714Y-96736723D01*
X71413714Y-96736723D02*
X71366095Y-96831961D01*
X71366095Y-96831961D02*
X71270857Y-96927200D01*
X71270857Y-96927200D02*
X71128000Y-96974819D01*
X71128000Y-96974819D02*
X70889905Y-96974819D01*
X72318476Y-96308152D02*
X72318476Y-96974819D01*
X72080381Y-95927200D02*
X71842286Y-96641485D01*
X71842286Y-96641485D02*
X72461333Y-96641485D01*
D11*
%TO.C,R3*%
X73938000Y-98552000D02*
X74708000Y-98552000D01*
X82018000Y-98552000D02*
X81248000Y-98552000D01*
X74708000Y-97182000D02*
X81248000Y-97182000D01*
X81248000Y-99922000D01*
X74708000Y-99922000D01*
X74708000Y-97182000D01*
%TO.C,F1*%
X72114000Y-65548000D02*
X72114000Y-63798000D01*
X72114000Y-67548000D02*
X72114000Y-69298000D01*
X72114000Y-69298000D02*
X76114000Y-69298000D01*
X76114000Y-63798000D02*
X72114000Y-63798000D01*
X76114000Y-63798000D02*
X76114000Y-65548000D01*
X76114000Y-64048000D02*
X86814000Y-64048000D01*
X76114000Y-69048000D02*
X86814000Y-69048000D01*
X76114000Y-69298000D02*
X76114000Y-67548000D01*
X86814000Y-63798000D02*
X86814000Y-65148000D01*
X86814000Y-63798000D02*
X90814000Y-63798000D01*
X86814000Y-69298000D02*
X86814000Y-67948000D01*
X86814000Y-69298000D02*
X90814000Y-69298000D01*
X90814000Y-63798000D02*
X90814000Y-65148000D01*
X90814000Y-69298000D02*
X90814000Y-67948000D01*
%TO.C,J1*%
X64114000Y-73540000D02*
X74154000Y-73540000D01*
X64114000Y-75900000D02*
X64114000Y-73540000D01*
X64114000Y-83940000D02*
X64114000Y-76500000D01*
X64734000Y-73540000D02*
X64734000Y-83940000D01*
X66234000Y-73540000D02*
X66234000Y-83940000D01*
X71134000Y-73540000D02*
X71134000Y-83940000D01*
X74154000Y-73540000D02*
X74154000Y-83940000D01*
X74154000Y-83940000D02*
X64114000Y-83940000D01*
X64114000Y-76200000D02*
X63504000Y-76640000D01*
X63504000Y-75760000D01*
X64114000Y-76200000D01*
G36*
X64114000Y-76200000D02*
G01*
X63504000Y-76640000D01*
X63504000Y-75760000D01*
X64114000Y-76200000D01*
G37*
%TO.C,D3*%
X65258000Y-103611000D02*
X65258000Y-106701000D01*
X65258000Y-103611170D02*
G75*
G02*
X70808000Y-105156000I2560000J-1544830D01*
G01*
X70808000Y-105156000D02*
G75*
G02*
X65258000Y-106700830I-2990000J0D01*
G01*
X70318000Y-105156000D02*
G75*
G02*
X65318000Y-105156000I-2500000J0D01*
G01*
X65318000Y-105156000D02*
G75*
G02*
X70318000Y-105156000I2500000J0D01*
G01*
%TO.C,R1*%
X73938000Y-92964000D02*
X74708000Y-92964000D01*
X82018000Y-92964000D02*
X81248000Y-92964000D01*
X81248000Y-94334000D02*
X74708000Y-94334000D01*
X74708000Y-91594000D01*
X81248000Y-91594000D01*
X81248000Y-94334000D01*
D12*
%TO.C,Ref\u002A\u002A*%
X99755670Y-98400741D02*
X99827149Y-98405911D01*
X99879668Y-98415193D01*
X99917897Y-98429099D01*
X99946504Y-98448139D01*
X99970159Y-98472824D01*
X99990015Y-98498838D01*
X100016035Y-98553158D01*
X100043125Y-98643165D01*
X100069958Y-98762280D01*
X100095208Y-98903924D01*
X100117549Y-99061518D01*
X100134380Y-99214808D01*
X100145171Y-99342714D01*
X100147468Y-99435509D01*
X100138039Y-99500086D01*
X100113655Y-99543338D01*
X100071083Y-99572158D01*
X100007095Y-99593439D01*
X99950610Y-99606917D01*
X99743603Y-99647076D01*
X99498827Y-99682828D01*
X99215138Y-99714302D01*
X98891393Y-99741629D01*
X98589919Y-99761342D01*
X98488330Y-99766438D01*
X98419534Y-99767025D01*
X98374140Y-99762136D01*
X98342758Y-99750805D01*
X98317509Y-99733308D01*
X98302473Y-99719801D01*
X98290457Y-99703278D01*
X98280802Y-99678684D01*
X98272846Y-99640966D01*
X98265928Y-99585072D01*
X98259387Y-99505949D01*
X98252563Y-99398543D01*
X98244795Y-99257801D01*
X98237752Y-99123506D01*
X98229301Y-98946411D01*
X98223721Y-98796649D01*
X98221067Y-98677509D01*
X98221396Y-98592278D01*
X98224762Y-98544245D01*
X98227779Y-98535011D01*
X98256837Y-98519716D01*
X98314577Y-98498140D01*
X98388755Y-98474837D01*
X98392202Y-98473844D01*
X98441735Y-98461328D01*
X98498496Y-98450873D01*
X98567859Y-98442052D01*
X98655198Y-98434441D01*
X98765886Y-98427615D01*
X98905298Y-98421149D01*
X99078806Y-98414617D01*
X99186779Y-98410971D01*
X99380786Y-98404799D01*
X99537157Y-98400695D01*
X99660562Y-98399172D01*
X99755670Y-98400741D01*
G36*
X99755670Y-98400741D02*
G01*
X99827149Y-98405911D01*
X99879668Y-98415193D01*
X99917897Y-98429099D01*
X99946504Y-98448139D01*
X99970159Y-98472824D01*
X99990015Y-98498838D01*
X100016035Y-98553158D01*
X100043125Y-98643165D01*
X100069958Y-98762280D01*
X100095208Y-98903924D01*
X100117549Y-99061518D01*
X100134380Y-99214808D01*
X100145171Y-99342714D01*
X100147468Y-99435509D01*
X100138039Y-99500086D01*
X100113655Y-99543338D01*
X100071083Y-99572158D01*
X100007095Y-99593439D01*
X99950610Y-99606917D01*
X99743603Y-99647076D01*
X99498827Y-99682828D01*
X99215138Y-99714302D01*
X98891393Y-99741629D01*
X98589919Y-99761342D01*
X98488330Y-99766438D01*
X98419534Y-99767025D01*
X98374140Y-99762136D01*
X98342758Y-99750805D01*
X98317509Y-99733308D01*
X98302473Y-99719801D01*
X98290457Y-99703278D01*
X98280802Y-99678684D01*
X98272846Y-99640966D01*
X98265928Y-99585072D01*
X98259387Y-99505949D01*
X98252563Y-99398543D01*
X98244795Y-99257801D01*
X98237752Y-99123506D01*
X98229301Y-98946411D01*
X98223721Y-98796649D01*
X98221067Y-98677509D01*
X98221396Y-98592278D01*
X98224762Y-98544245D01*
X98227779Y-98535011D01*
X98256837Y-98519716D01*
X98314577Y-98498140D01*
X98388755Y-98474837D01*
X98392202Y-98473844D01*
X98441735Y-98461328D01*
X98498496Y-98450873D01*
X98567859Y-98442052D01*
X98655198Y-98434441D01*
X98765886Y-98427615D01*
X98905298Y-98421149D01*
X99078806Y-98414617D01*
X99186779Y-98410971D01*
X99380786Y-98404799D01*
X99537157Y-98400695D01*
X99660562Y-98399172D01*
X99755670Y-98400741D01*
G37*
X99985922Y-99961605D02*
X100051545Y-99969256D01*
X100093399Y-99985598D01*
X100117668Y-100013872D01*
X100130536Y-100057318D01*
X100138186Y-100119177D01*
X100142228Y-100160421D01*
X100149583Y-100230843D01*
X100160314Y-100330431D01*
X100173016Y-100446288D01*
X100186288Y-100565520D01*
X100187147Y-100573171D01*
X100205433Y-100744726D01*
X100216675Y-100879551D01*
X100220044Y-100982790D01*
X100214712Y-101059588D01*
X100199851Y-101115088D01*
X100174633Y-101154434D01*
X100138230Y-101182772D01*
X100089814Y-101205245D01*
X100085115Y-101207051D01*
X100032901Y-101219321D01*
X99944827Y-101231511D01*
X99827366Y-101243337D01*
X99686988Y-101254513D01*
X99530168Y-101264755D01*
X99363377Y-101273777D01*
X99193088Y-101281293D01*
X99025773Y-101287019D01*
X98867906Y-101290669D01*
X98725957Y-101291959D01*
X98606401Y-101290602D01*
X98515708Y-101286315D01*
X98460353Y-101278811D01*
X98459799Y-101278665D01*
X98428746Y-101255976D01*
X98409535Y-101204373D01*
X98400694Y-101118700D01*
X98399708Y-101068185D01*
X98395011Y-100979572D01*
X98383502Y-100882348D01*
X98377265Y-100845935D01*
X98368249Y-100785141D01*
X98358948Y-100698076D01*
X98349905Y-100593510D01*
X98341666Y-100480215D01*
X98334774Y-100366962D01*
X98329773Y-100262522D01*
X98327208Y-100175666D01*
X98327623Y-100115166D01*
X98330468Y-100091630D01*
X98357988Y-100074467D01*
X98419861Y-100065810D01*
X98449308Y-100065096D01*
X98503890Y-100062505D01*
X98592031Y-100055330D01*
X98705302Y-100044391D01*
X98835276Y-100030507D01*
X98973525Y-100014500D01*
X98992086Y-100012255D01*
X99318479Y-99978738D01*
X99611686Y-99961801D01*
X99758632Y-99959413D01*
X99890346Y-99959404D01*
X99985922Y-99961605D01*
G36*
X99985922Y-99961605D02*
G01*
X100051545Y-99969256D01*
X100093399Y-99985598D01*
X100117668Y-100013872D01*
X100130536Y-100057318D01*
X100138186Y-100119177D01*
X100142228Y-100160421D01*
X100149583Y-100230843D01*
X100160314Y-100330431D01*
X100173016Y-100446288D01*
X100186288Y-100565520D01*
X100187147Y-100573171D01*
X100205433Y-100744726D01*
X100216675Y-100879551D01*
X100220044Y-100982790D01*
X100214712Y-101059588D01*
X100199851Y-101115088D01*
X100174633Y-101154434D01*
X100138230Y-101182772D01*
X100089814Y-101205245D01*
X100085115Y-101207051D01*
X100032901Y-101219321D01*
X99944827Y-101231511D01*
X99827366Y-101243337D01*
X99686988Y-101254513D01*
X99530168Y-101264755D01*
X99363377Y-101273777D01*
X99193088Y-101281293D01*
X99025773Y-101287019D01*
X98867906Y-101290669D01*
X98725957Y-101291959D01*
X98606401Y-101290602D01*
X98515708Y-101286315D01*
X98460353Y-101278811D01*
X98459799Y-101278665D01*
X98428746Y-101255976D01*
X98409535Y-101204373D01*
X98400694Y-101118700D01*
X98399708Y-101068185D01*
X98395011Y-100979572D01*
X98383502Y-100882348D01*
X98377265Y-100845935D01*
X98368249Y-100785141D01*
X98358948Y-100698076D01*
X98349905Y-100593510D01*
X98341666Y-100480215D01*
X98334774Y-100366962D01*
X98329773Y-100262522D01*
X98327208Y-100175666D01*
X98327623Y-100115166D01*
X98330468Y-100091630D01*
X98357988Y-100074467D01*
X98419861Y-100065810D01*
X98449308Y-100065096D01*
X98503890Y-100062505D01*
X98592031Y-100055330D01*
X98705302Y-100044391D01*
X98835276Y-100030507D01*
X98973525Y-100014500D01*
X98992086Y-100012255D01*
X99318479Y-99978738D01*
X99611686Y-99961801D01*
X99758632Y-99959413D01*
X99890346Y-99959404D01*
X99985922Y-99961605D01*
G37*
X101186261Y-95413448D02*
X101742114Y-95458240D01*
X102295290Y-95544398D01*
X102843790Y-95671933D01*
X103210958Y-95781605D01*
X103731302Y-95973126D01*
X104232118Y-96201249D01*
X104711885Y-96464263D01*
X105169083Y-96760457D01*
X105602191Y-97088121D01*
X106009689Y-97445544D01*
X106390057Y-97831015D01*
X106741774Y-98242824D01*
X107063319Y-98679261D01*
X107353173Y-99138615D01*
X107609816Y-99619175D01*
X107831726Y-100119230D01*
X108017383Y-100637071D01*
X108165268Y-101170986D01*
X108219165Y-101416422D01*
X108257791Y-101614022D01*
X108288621Y-101789074D01*
X108312487Y-101950643D01*
X108330224Y-102107794D01*
X108342662Y-102269593D01*
X108350636Y-102445104D01*
X108354978Y-102643392D01*
X108356521Y-102873522D01*
X108356562Y-102912088D01*
X108355669Y-103143087D01*
X108352229Y-103340843D01*
X108345486Y-103514410D01*
X108334684Y-103672839D01*
X108319065Y-103825184D01*
X108297872Y-103980497D01*
X108270349Y-104147832D01*
X108238883Y-104319671D01*
X108115490Y-104860136D01*
X107953582Y-105385557D01*
X107754725Y-105894275D01*
X107520484Y-106384635D01*
X107252428Y-106854979D01*
X106952121Y-107303649D01*
X106621129Y-107728990D01*
X106261020Y-108129344D01*
X105873358Y-108503054D01*
X105459711Y-108848462D01*
X105021644Y-109163913D01*
X104560724Y-109447749D01*
X104078517Y-109698313D01*
X103576589Y-109913947D01*
X103056505Y-110092996D01*
X102685751Y-110194868D01*
X102427544Y-110255426D01*
X102189978Y-110303620D01*
X101962423Y-110340748D01*
X101734247Y-110368109D01*
X101494819Y-110387000D01*
X101233509Y-110398719D01*
X100971169Y-110404203D01*
X100815072Y-110405781D01*
X100668799Y-110406612D01*
X100538935Y-110406710D01*
X100432061Y-110406087D01*
X100354760Y-110404756D01*
X100315002Y-110402878D01*
X99916331Y-110357477D01*
X99550198Y-110302419D01*
X99207480Y-110235550D01*
X98879050Y-110154714D01*
X98555784Y-110057757D01*
X98228558Y-109942522D01*
X98018419Y-109860441D01*
X97524302Y-109638183D01*
X97046316Y-109377919D01*
X96586872Y-109081693D01*
X96148380Y-108751546D01*
X95733253Y-108389521D01*
X95343899Y-107997660D01*
X94982731Y-107578007D01*
X94652158Y-107132604D01*
X94469073Y-106853162D01*
X94386081Y-106712837D01*
X94293160Y-106543419D01*
X94195478Y-106355369D01*
X94098202Y-106159142D01*
X94006500Y-105965199D01*
X93925539Y-105783997D01*
X93860488Y-105625993D01*
X93852848Y-105606065D01*
X93677964Y-105088288D01*
X93537152Y-104548433D01*
X93431551Y-103991022D01*
X93411416Y-103854005D01*
X93398994Y-103736642D01*
X93388848Y-103585143D01*
X93381028Y-103407630D01*
X93375584Y-103212223D01*
X93373200Y-103050091D01*
X97814067Y-103050091D01*
X97817964Y-103142165D01*
X97837977Y-103265370D01*
X97846431Y-103306823D01*
X97858429Y-103366301D01*
X97868131Y-103422527D01*
X97875763Y-103480721D01*
X97881553Y-103546100D01*
X97885726Y-103623883D01*
X97888510Y-103719289D01*
X97890132Y-103837536D01*
X97890818Y-103983843D01*
X97890796Y-104163428D01*
X97890460Y-104319671D01*
X97890814Y-104613749D01*
X97893620Y-104871413D01*
X97899033Y-105098519D01*
X97907208Y-105300926D01*
X97918301Y-105484489D01*
X97923059Y-105547338D01*
X97938057Y-105772948D01*
X97947655Y-106011002D01*
X97952113Y-106271048D01*
X97951687Y-106562636D01*
X97951374Y-106595088D01*
X97949695Y-106773637D01*
X97948939Y-106914835D01*
X97949348Y-107023656D01*
X97951165Y-107105077D01*
X97954632Y-107164074D01*
X97959993Y-107205622D01*
X97967490Y-107234697D01*
X97977365Y-107256275D01*
X97984153Y-107267130D01*
X98038313Y-107315608D01*
X98105503Y-107327872D01*
X98177259Y-107304178D01*
X98232177Y-107259599D01*
X98271435Y-107210486D01*
X98294395Y-107168222D01*
X98296510Y-107159058D01*
X98296957Y-107132370D01*
X98297270Y-107066970D01*
X98297453Y-106966475D01*
X98297506Y-106834506D01*
X98297432Y-106674682D01*
X98297234Y-106490623D01*
X98296913Y-106285949D01*
X98296471Y-106064278D01*
X98295911Y-105829231D01*
X98295669Y-105737838D01*
X98294562Y-105421909D01*
X98292981Y-105144307D01*
X98290798Y-104901026D01*
X98287883Y-104688060D01*
X98284107Y-104501403D01*
X98279340Y-104337051D01*
X98273454Y-104190998D01*
X98266319Y-104059238D01*
X98257806Y-103937766D01*
X98247786Y-103822575D01*
X98236129Y-103709662D01*
X98227934Y-103638292D01*
X98217858Y-103526929D01*
X98220166Y-103449889D01*
X98237086Y-103400401D01*
X98270847Y-103371689D01*
X98320301Y-103357531D01*
X98360519Y-103353362D01*
X98437562Y-103347715D01*
X98545960Y-103340858D01*
X98680242Y-103333057D01*
X98834936Y-103324580D01*
X99004571Y-103315694D01*
X99183676Y-103306667D01*
X99366779Y-103297765D01*
X99548410Y-103289255D01*
X99723096Y-103281406D01*
X99885366Y-103274483D01*
X100029750Y-103268754D01*
X100150776Y-103264486D01*
X100242973Y-103261947D01*
X100290220Y-103261338D01*
X100404832Y-103264093D01*
X100484805Y-103275592D01*
X100537655Y-103300686D01*
X100570897Y-103344226D01*
X100592048Y-103411064D01*
X100601736Y-103462421D01*
X100608038Y-103520300D01*
X100614413Y-103616514D01*
X100620771Y-103747062D01*
X100627021Y-103907947D01*
X100633072Y-104095168D01*
X100638833Y-104304729D01*
X100644214Y-104532628D01*
X100649122Y-104774868D01*
X100653468Y-105027450D01*
X100657161Y-105286374D01*
X100660109Y-105547642D01*
X100662221Y-105807255D01*
X100663408Y-106061213D01*
X100663625Y-106184499D01*
X100664252Y-107065077D01*
X100712558Y-107136999D01*
X100772793Y-107198480D01*
X100842625Y-107218969D01*
X100920889Y-107198417D01*
X100992945Y-107148840D01*
X101077002Y-107076179D01*
X101076521Y-106835633D01*
X101074974Y-106747045D01*
X101070879Y-106625172D01*
X101064643Y-106478961D01*
X101056671Y-106317359D01*
X101047367Y-106149311D01*
X101039707Y-106023588D01*
X101029491Y-105849663D01*
X101018873Y-105645299D01*
X101008382Y-105422381D01*
X100998551Y-105192792D01*
X100989911Y-104968416D01*
X100982994Y-104761139D01*
X100982453Y-104743005D01*
X100976925Y-104557151D01*
X100971287Y-104370200D01*
X100965784Y-104190180D01*
X100960666Y-104025122D01*
X100956179Y-103883056D01*
X100952573Y-103772012D01*
X100951415Y-103737588D01*
X100948776Y-103576151D01*
X100952628Y-103444471D01*
X100962695Y-103346038D01*
X100978696Y-103284344D01*
X100988808Y-103268393D01*
X101014766Y-103255104D01*
X101067050Y-103242568D01*
X101148606Y-103230443D01*
X101262379Y-103218389D01*
X101411317Y-103206067D01*
X101598366Y-103193136D01*
X101690836Y-103187329D01*
X101855693Y-103178017D01*
X102035020Y-103169277D01*
X102223645Y-103161240D01*
X102416395Y-103154037D01*
X102608099Y-103147798D01*
X102793585Y-103142654D01*
X102967682Y-103138735D01*
X103125216Y-103136174D01*
X103261017Y-103135099D01*
X103369913Y-103135642D01*
X103446732Y-103137934D01*
X103485785Y-103141971D01*
X103520082Y-103155194D01*
X103549825Y-103178373D01*
X103575387Y-103214405D01*
X103597140Y-103266190D01*
X103615457Y-103336624D01*
X103630713Y-103428608D01*
X103643278Y-103545037D01*
X103653527Y-103688811D01*
X103661832Y-103862828D01*
X103668567Y-104069986D01*
X103674104Y-104313182D01*
X103678816Y-104595316D01*
X103679568Y-104647755D01*
X103686098Y-105002724D01*
X103695360Y-105339343D01*
X103707168Y-105655090D01*
X103721339Y-105947443D01*
X103737689Y-106213881D01*
X103756035Y-106451881D01*
X103776193Y-106658923D01*
X103797978Y-106832484D01*
X103821208Y-106970043D01*
X103845699Y-107069078D01*
X103858519Y-107103724D01*
X103910145Y-107186246D01*
X103970361Y-107230498D01*
X104032644Y-107237751D01*
X104090471Y-107209280D01*
X104137320Y-107146356D01*
X104166667Y-107050252D01*
X104167739Y-107043390D01*
X104169299Y-106999707D01*
X104167198Y-106920162D01*
X104161799Y-106811033D01*
X104153467Y-106678599D01*
X104142565Y-106529141D01*
X104129457Y-106368936D01*
X104127036Y-106341088D01*
X104097666Y-106002779D01*
X104072278Y-105702059D01*
X104050603Y-105434399D01*
X104032372Y-105195269D01*
X104017313Y-104980139D01*
X104005157Y-104784479D01*
X103995633Y-104603761D01*
X103988472Y-104433453D01*
X103983402Y-104269026D01*
X103980155Y-104105952D01*
X103978460Y-103939698D01*
X103978088Y-103843421D01*
X103978378Y-103670737D01*
X103979810Y-103502836D01*
X103982236Y-103346845D01*
X103985510Y-103209889D01*
X103989486Y-103099095D01*
X103994016Y-103021590D01*
X103995310Y-103007338D01*
X104003625Y-102919314D01*
X104005629Y-102862932D01*
X103999969Y-102827793D01*
X103985289Y-102803496D01*
X103966379Y-102785088D01*
X103947419Y-102773026D01*
X103918369Y-102762929D01*
X103877239Y-102754872D01*
X103822041Y-102748929D01*
X103750784Y-102745178D01*
X103661478Y-102743692D01*
X103552134Y-102744547D01*
X103420762Y-102747818D01*
X103265372Y-102753580D01*
X103083974Y-102761909D01*
X102874579Y-102772881D01*
X102635197Y-102786569D01*
X102363837Y-102803050D01*
X102058511Y-102822399D01*
X101717229Y-102844690D01*
X101338000Y-102870000D01*
X100918835Y-102898403D01*
X100854752Y-102902774D01*
X100660983Y-102914691D01*
X100437594Y-102926245D01*
X100197298Y-102936916D01*
X99952807Y-102946186D01*
X99716835Y-102953536D01*
X99502093Y-102958446D01*
X99482935Y-102958772D01*
X99287511Y-102961895D01*
X99127943Y-102964000D01*
X98997763Y-102964815D01*
X98890501Y-102964067D01*
X98799687Y-102961485D01*
X98718851Y-102956796D01*
X98641525Y-102949729D01*
X98561237Y-102940012D01*
X98471519Y-102927372D01*
X98368268Y-102911895D01*
X98231914Y-102891378D01*
X98130784Y-102876947D01*
X98058248Y-102868348D01*
X98007674Y-102865324D01*
X97972430Y-102867620D01*
X97945886Y-102874982D01*
X97921411Y-102887153D01*
X97909168Y-102894210D01*
X97858659Y-102932757D01*
X97827295Y-102982503D01*
X97814067Y-103050091D01*
X93373200Y-103050091D01*
X93372567Y-103007046D01*
X93372026Y-102800220D01*
X93374013Y-102599866D01*
X93378578Y-102414107D01*
X93385770Y-102251064D01*
X93395641Y-102118859D01*
X93400404Y-102076005D01*
X93493505Y-101496504D01*
X93623872Y-100936794D01*
X93791379Y-100397130D01*
X93995900Y-99877771D01*
X94237309Y-99378971D01*
X94515480Y-98900989D01*
X94830287Y-98444081D01*
X94922309Y-98329988D01*
X97922889Y-98329988D01*
X97924173Y-98410527D01*
X97927954Y-98515753D01*
X97934175Y-98649747D01*
X97942778Y-98816588D01*
X97953709Y-99020359D01*
X97957553Y-99091505D01*
X97962711Y-99200502D01*
X97968451Y-99345101D01*
X97974589Y-99518576D01*
X97980938Y-99714203D01*
X97987315Y-99925258D01*
X97993533Y-100145014D01*
X97999407Y-100366748D01*
X98004754Y-100583735D01*
X98009387Y-100789249D01*
X98013121Y-100976565D01*
X98015771Y-101138960D01*
X98017036Y-101252666D01*
X98019579Y-101348429D01*
X98027084Y-101414357D01*
X98041981Y-101462870D01*
X98066679Y-101506358D01*
X98083834Y-101532787D01*
X98099172Y-101555492D01*
X98115838Y-101574674D01*
X98136973Y-101590534D01*
X98165723Y-101603274D01*
X98205230Y-101613094D01*
X98258637Y-101620195D01*
X98329088Y-101624779D01*
X98419726Y-101627047D01*
X98533694Y-101627200D01*
X98674136Y-101625438D01*
X98844196Y-101621964D01*
X99047016Y-101616978D01*
X99285740Y-101610682D01*
X99563511Y-101603276D01*
X99576194Y-101602940D01*
X99807334Y-101596703D01*
X99999909Y-101591140D01*
X100157677Y-101586022D01*
X100284396Y-101581117D01*
X100383824Y-101576195D01*
X100459720Y-101571026D01*
X100515842Y-101565380D01*
X100555947Y-101559025D01*
X100583795Y-101551732D01*
X100603143Y-101543269D01*
X100609206Y-101539596D01*
X100653704Y-101502891D01*
X100679589Y-101468001D01*
X100681176Y-101435602D01*
X100676564Y-101370023D01*
X100666606Y-101279824D01*
X100652157Y-101173568D01*
X100646459Y-101135859D01*
X100616091Y-100926397D01*
X100584626Y-100684871D01*
X100552896Y-100419594D01*
X100521733Y-100138877D01*
X100491970Y-99851034D01*
X100464439Y-99564378D01*
X100439972Y-99287222D01*
X100419401Y-99027878D01*
X100403560Y-98794659D01*
X100394089Y-98615255D01*
X100385723Y-98449703D01*
X100375590Y-98320681D01*
X100374109Y-98309870D01*
X101173620Y-98309870D01*
X101178053Y-98383021D01*
X101179647Y-98401743D01*
X101185409Y-98467857D01*
X101194115Y-98567434D01*
X101205003Y-98691763D01*
X101217309Y-98832136D01*
X101230271Y-98979844D01*
X101234500Y-99028005D01*
X101249666Y-99224653D01*
X101262088Y-99440044D01*
X101271981Y-99679660D01*
X101279561Y-99948985D01*
X101285041Y-100253502D01*
X101286289Y-100350921D01*
X101289120Y-100570988D01*
X101292081Y-100752805D01*
X101295360Y-100900458D01*
X101299146Y-101018031D01*
X101303627Y-101109608D01*
X101308994Y-101179274D01*
X101315435Y-101231113D01*
X101323139Y-101269209D01*
X101329784Y-101291010D01*
X101354502Y-101352858D01*
X101377609Y-101399551D01*
X101384956Y-101410505D01*
X101425902Y-101436773D01*
X101496087Y-101449552D01*
X101598849Y-101448988D01*
X101737528Y-101435230D01*
X101788134Y-101428337D01*
X101869454Y-101417824D01*
X101950954Y-101410069D01*
X102039410Y-101404912D01*
X102141596Y-101402192D01*
X102264286Y-101401748D01*
X102414254Y-101403421D01*
X102598276Y-101407050D01*
X102643336Y-101408080D01*
X102825591Y-101413224D01*
X102994629Y-101419737D01*
X103144306Y-101427277D01*
X103268474Y-101435504D01*
X103360987Y-101444075D01*
X103405336Y-101450416D01*
X103546805Y-101467969D01*
X103658304Y-101460578D01*
X103744310Y-101427901D01*
X103750376Y-101424085D01*
X103813879Y-101362864D01*
X103849432Y-101286706D01*
X103854854Y-101207010D01*
X103827960Y-101135180D01*
X103809867Y-101113362D01*
X103753206Y-101072378D01*
X103679878Y-101050004D01*
X103583275Y-101045514D01*
X103456787Y-101058181D01*
X103396379Y-101067882D01*
X103259699Y-101087577D01*
X103122879Y-101098212D01*
X102976231Y-101099816D01*
X102810065Y-101092417D01*
X102614695Y-101076046D01*
X102558669Y-101070401D01*
X102431928Y-101058632D01*
X102302046Y-101048877D01*
X102183759Y-101042109D01*
X102091803Y-101039300D01*
X102087031Y-101039278D01*
X101979200Y-101034608D01*
X101888815Y-101022304D01*
X101837561Y-101007850D01*
X101801599Y-100990893D01*
X101772582Y-100970242D01*
X101749767Y-100941481D01*
X101732412Y-100900194D01*
X101719774Y-100841967D01*
X101711110Y-100762386D01*
X101705677Y-100657035D01*
X101702732Y-100521499D01*
X101701533Y-100351363D01*
X101701333Y-100198143D01*
X101699745Y-99955451D01*
X101695217Y-99725727D01*
X101688005Y-99516798D01*
X101678361Y-99336487D01*
X101669726Y-99225174D01*
X101650697Y-99002370D01*
X101638405Y-98820132D01*
X101632825Y-98677234D01*
X101633933Y-98572451D01*
X101641704Y-98504558D01*
X101654867Y-98473476D01*
X101684159Y-98465247D01*
X101750051Y-98458723D01*
X101846846Y-98453837D01*
X101968847Y-98450527D01*
X102110357Y-98448728D01*
X102265681Y-98448376D01*
X102429121Y-98449408D01*
X102594980Y-98451759D01*
X102757561Y-98455366D01*
X102911169Y-98460164D01*
X103050106Y-98466090D01*
X103168675Y-98473079D01*
X103261180Y-98481068D01*
X103321924Y-98489993D01*
X103331252Y-98492298D01*
X103476905Y-98519836D01*
X103599184Y-98513235D01*
X103697306Y-98472708D01*
X103770490Y-98398464D01*
X103787997Y-98368624D01*
X103813435Y-98286450D01*
X103798453Y-98216784D01*
X103743155Y-98159889D01*
X103695363Y-98134034D01*
X103647239Y-98114778D01*
X103601954Y-98103607D01*
X103548162Y-98099653D01*
X103474520Y-98102050D01*
X103374724Y-98109509D01*
X103281754Y-98114818D01*
X103153919Y-98118683D01*
X102998661Y-98121155D01*
X102823420Y-98122285D01*
X102635638Y-98122124D01*
X102442758Y-98120722D01*
X102252220Y-98118132D01*
X102071466Y-98114403D01*
X101907938Y-98109586D01*
X101769078Y-98103734D01*
X101674444Y-98097863D01*
X101567352Y-98090451D01*
X101492019Y-98088136D01*
X101438099Y-98091619D01*
X101395246Y-98101601D01*
X101353114Y-98118783D01*
X101350967Y-98119785D01*
X101284661Y-98156129D01*
X101226830Y-98196371D01*
X101215860Y-98205860D01*
X101190263Y-98233518D01*
X101176936Y-98264112D01*
X101173620Y-98309870D01*
X100374109Y-98309870D01*
X100362119Y-98222383D01*
X100343738Y-98149005D01*
X100318877Y-98094743D01*
X100285964Y-98053792D01*
X100243428Y-98020349D01*
X100230875Y-98012338D01*
X100197068Y-97994915D01*
X100156676Y-97982281D01*
X100105226Y-97974549D01*
X100038245Y-97971834D01*
X99951261Y-97974246D01*
X99839802Y-97981900D01*
X99699393Y-97994908D01*
X99525564Y-98013384D01*
X99335271Y-98034962D01*
X99157030Y-98055178D01*
X99012186Y-98070456D01*
X98892151Y-98081263D01*
X98788336Y-98088064D01*
X98692153Y-98091328D01*
X98595012Y-98091520D01*
X98488323Y-98089107D01*
X98397674Y-98085899D01*
X98025513Y-98071545D01*
X97970769Y-98136605D01*
X97955889Y-98154735D01*
X97943845Y-98173063D01*
X97934579Y-98195671D01*
X97928035Y-98226641D01*
X97924157Y-98270052D01*
X97922889Y-98329988D01*
X94922309Y-98329988D01*
X95181604Y-98008504D01*
X95569304Y-97594514D01*
X95629087Y-97535755D01*
X96043681Y-97158907D01*
X96473352Y-96820868D01*
X96920849Y-96519946D01*
X97388925Y-96254450D01*
X97880329Y-96022688D01*
X98397813Y-95822969D01*
X98436817Y-95809553D01*
X98976066Y-95647696D01*
X99522634Y-95527144D01*
X100074522Y-95447912D01*
X100629731Y-95410009D01*
X101186261Y-95413448D01*
G36*
X101186261Y-95413448D02*
G01*
X101742114Y-95458240D01*
X102295290Y-95544398D01*
X102843790Y-95671933D01*
X103210958Y-95781605D01*
X103731302Y-95973126D01*
X104232118Y-96201249D01*
X104711885Y-96464263D01*
X105169083Y-96760457D01*
X105602191Y-97088121D01*
X106009689Y-97445544D01*
X106390057Y-97831015D01*
X106741774Y-98242824D01*
X107063319Y-98679261D01*
X107353173Y-99138615D01*
X107609816Y-99619175D01*
X107831726Y-100119230D01*
X108017383Y-100637071D01*
X108165268Y-101170986D01*
X108219165Y-101416422D01*
X108257791Y-101614022D01*
X108288621Y-101789074D01*
X108312487Y-101950643D01*
X108330224Y-102107794D01*
X108342662Y-102269593D01*
X108350636Y-102445104D01*
X108354978Y-102643392D01*
X108356521Y-102873522D01*
X108356562Y-102912088D01*
X108355669Y-103143087D01*
X108352229Y-103340843D01*
X108345486Y-103514410D01*
X108334684Y-103672839D01*
X108319065Y-103825184D01*
X108297872Y-103980497D01*
X108270349Y-104147832D01*
X108238883Y-104319671D01*
X108115490Y-104860136D01*
X107953582Y-105385557D01*
X107754725Y-105894275D01*
X107520484Y-106384635D01*
X107252428Y-106854979D01*
X106952121Y-107303649D01*
X106621129Y-107728990D01*
X106261020Y-108129344D01*
X105873358Y-108503054D01*
X105459711Y-108848462D01*
X105021644Y-109163913D01*
X104560724Y-109447749D01*
X104078517Y-109698313D01*
X103576589Y-109913947D01*
X103056505Y-110092996D01*
X102685751Y-110194868D01*
X102427544Y-110255426D01*
X102189978Y-110303620D01*
X101962423Y-110340748D01*
X101734247Y-110368109D01*
X101494819Y-110387000D01*
X101233509Y-110398719D01*
X100971169Y-110404203D01*
X100815072Y-110405781D01*
X100668799Y-110406612D01*
X100538935Y-110406710D01*
X100432061Y-110406087D01*
X100354760Y-110404756D01*
X100315002Y-110402878D01*
X99916331Y-110357477D01*
X99550198Y-110302419D01*
X99207480Y-110235550D01*
X98879050Y-110154714D01*
X98555784Y-110057757D01*
X98228558Y-109942522D01*
X98018419Y-109860441D01*
X97524302Y-109638183D01*
X97046316Y-109377919D01*
X96586872Y-109081693D01*
X96148380Y-108751546D01*
X95733253Y-108389521D01*
X95343899Y-107997660D01*
X94982731Y-107578007D01*
X94652158Y-107132604D01*
X94469073Y-106853162D01*
X94386081Y-106712837D01*
X94293160Y-106543419D01*
X94195478Y-106355369D01*
X94098202Y-106159142D01*
X94006500Y-105965199D01*
X93925539Y-105783997D01*
X93860488Y-105625993D01*
X93852848Y-105606065D01*
X93677964Y-105088288D01*
X93537152Y-104548433D01*
X93431551Y-103991022D01*
X93411416Y-103854005D01*
X93398994Y-103736642D01*
X93388848Y-103585143D01*
X93381028Y-103407630D01*
X93375584Y-103212223D01*
X93373200Y-103050091D01*
X97814067Y-103050091D01*
X97817964Y-103142165D01*
X97837977Y-103265370D01*
X97846431Y-103306823D01*
X97858429Y-103366301D01*
X97868131Y-103422527D01*
X97875763Y-103480721D01*
X97881553Y-103546100D01*
X97885726Y-103623883D01*
X97888510Y-103719289D01*
X97890132Y-103837536D01*
X97890818Y-103983843D01*
X97890796Y-104163428D01*
X97890460Y-104319671D01*
X97890814Y-104613749D01*
X97893620Y-104871413D01*
X97899033Y-105098519D01*
X97907208Y-105300926D01*
X97918301Y-105484489D01*
X97923059Y-105547338D01*
X97938057Y-105772948D01*
X97947655Y-106011002D01*
X97952113Y-106271048D01*
X97951687Y-106562636D01*
X97951374Y-106595088D01*
X97949695Y-106773637D01*
X97948939Y-106914835D01*
X97949348Y-107023656D01*
X97951165Y-107105077D01*
X97954632Y-107164074D01*
X97959993Y-107205622D01*
X97967490Y-107234697D01*
X97977365Y-107256275D01*
X97984153Y-107267130D01*
X98038313Y-107315608D01*
X98105503Y-107327872D01*
X98177259Y-107304178D01*
X98232177Y-107259599D01*
X98271435Y-107210486D01*
X98294395Y-107168222D01*
X98296510Y-107159058D01*
X98296957Y-107132370D01*
X98297270Y-107066970D01*
X98297453Y-106966475D01*
X98297506Y-106834506D01*
X98297432Y-106674682D01*
X98297234Y-106490623D01*
X98296913Y-106285949D01*
X98296471Y-106064278D01*
X98295911Y-105829231D01*
X98295669Y-105737838D01*
X98294562Y-105421909D01*
X98292981Y-105144307D01*
X98290798Y-104901026D01*
X98287883Y-104688060D01*
X98284107Y-104501403D01*
X98279340Y-104337051D01*
X98273454Y-104190998D01*
X98266319Y-104059238D01*
X98257806Y-103937766D01*
X98247786Y-103822575D01*
X98236129Y-103709662D01*
X98227934Y-103638292D01*
X98217858Y-103526929D01*
X98220166Y-103449889D01*
X98237086Y-103400401D01*
X98270847Y-103371689D01*
X98320301Y-103357531D01*
X98360519Y-103353362D01*
X98437562Y-103347715D01*
X98545960Y-103340858D01*
X98680242Y-103333057D01*
X98834936Y-103324580D01*
X99004571Y-103315694D01*
X99183676Y-103306667D01*
X99366779Y-103297765D01*
X99548410Y-103289255D01*
X99723096Y-103281406D01*
X99885366Y-103274483D01*
X100029750Y-103268754D01*
X100150776Y-103264486D01*
X100242973Y-103261947D01*
X100290220Y-103261338D01*
X100404832Y-103264093D01*
X100484805Y-103275592D01*
X100537655Y-103300686D01*
X100570897Y-103344226D01*
X100592048Y-103411064D01*
X100601736Y-103462421D01*
X100608038Y-103520300D01*
X100614413Y-103616514D01*
X100620771Y-103747062D01*
X100627021Y-103907947D01*
X100633072Y-104095168D01*
X100638833Y-104304729D01*
X100644214Y-104532628D01*
X100649122Y-104774868D01*
X100653468Y-105027450D01*
X100657161Y-105286374D01*
X100660109Y-105547642D01*
X100662221Y-105807255D01*
X100663408Y-106061213D01*
X100663625Y-106184499D01*
X100664252Y-107065077D01*
X100712558Y-107136999D01*
X100772793Y-107198480D01*
X100842625Y-107218969D01*
X100920889Y-107198417D01*
X100992945Y-107148840D01*
X101077002Y-107076179D01*
X101076521Y-106835633D01*
X101074974Y-106747045D01*
X101070879Y-106625172D01*
X101064643Y-106478961D01*
X101056671Y-106317359D01*
X101047367Y-106149311D01*
X101039707Y-106023588D01*
X101029491Y-105849663D01*
X101018873Y-105645299D01*
X101008382Y-105422381D01*
X100998551Y-105192792D01*
X100989911Y-104968416D01*
X100982994Y-104761139D01*
X100982453Y-104743005D01*
X100976925Y-104557151D01*
X100971287Y-104370200D01*
X100965784Y-104190180D01*
X100960666Y-104025122D01*
X100956179Y-103883056D01*
X100952573Y-103772012D01*
X100951415Y-103737588D01*
X100948776Y-103576151D01*
X100952628Y-103444471D01*
X100962695Y-103346038D01*
X100978696Y-103284344D01*
X100988808Y-103268393D01*
X101014766Y-103255104D01*
X101067050Y-103242568D01*
X101148606Y-103230443D01*
X101262379Y-103218389D01*
X101411317Y-103206067D01*
X101598366Y-103193136D01*
X101690836Y-103187329D01*
X101855693Y-103178017D01*
X102035020Y-103169277D01*
X102223645Y-103161240D01*
X102416395Y-103154037D01*
X102608099Y-103147798D01*
X102793585Y-103142654D01*
X102967682Y-103138735D01*
X103125216Y-103136174D01*
X103261017Y-103135099D01*
X103369913Y-103135642D01*
X103446732Y-103137934D01*
X103485785Y-103141971D01*
X103520082Y-103155194D01*
X103549825Y-103178373D01*
X103575387Y-103214405D01*
X103597140Y-103266190D01*
X103615457Y-103336624D01*
X103630713Y-103428608D01*
X103643278Y-103545037D01*
X103653527Y-103688811D01*
X103661832Y-103862828D01*
X103668567Y-104069986D01*
X103674104Y-104313182D01*
X103678816Y-104595316D01*
X103679568Y-104647755D01*
X103686098Y-105002724D01*
X103695360Y-105339343D01*
X103707168Y-105655090D01*
X103721339Y-105947443D01*
X103737689Y-106213881D01*
X103756035Y-106451881D01*
X103776193Y-106658923D01*
X103797978Y-106832484D01*
X103821208Y-106970043D01*
X103845699Y-107069078D01*
X103858519Y-107103724D01*
X103910145Y-107186246D01*
X103970361Y-107230498D01*
X104032644Y-107237751D01*
X104090471Y-107209280D01*
X104137320Y-107146356D01*
X104166667Y-107050252D01*
X104167739Y-107043390D01*
X104169299Y-106999707D01*
X104167198Y-106920162D01*
X104161799Y-106811033D01*
X104153467Y-106678599D01*
X104142565Y-106529141D01*
X104129457Y-106368936D01*
X104127036Y-106341088D01*
X104097666Y-106002779D01*
X104072278Y-105702059D01*
X104050603Y-105434399D01*
X104032372Y-105195269D01*
X104017313Y-104980139D01*
X104005157Y-104784479D01*
X103995633Y-104603761D01*
X103988472Y-104433453D01*
X103983402Y-104269026D01*
X103980155Y-104105952D01*
X103978460Y-103939698D01*
X103978088Y-103843421D01*
X103978378Y-103670737D01*
X103979810Y-103502836D01*
X103982236Y-103346845D01*
X103985510Y-103209889D01*
X103989486Y-103099095D01*
X103994016Y-103021590D01*
X103995310Y-103007338D01*
X104003625Y-102919314D01*
X104005629Y-102862932D01*
X103999969Y-102827793D01*
X103985289Y-102803496D01*
X103966379Y-102785088D01*
X103947419Y-102773026D01*
X103918369Y-102762929D01*
X103877239Y-102754872D01*
X103822041Y-102748929D01*
X103750784Y-102745178D01*
X103661478Y-102743692D01*
X103552134Y-102744547D01*
X103420762Y-102747818D01*
X103265372Y-102753580D01*
X103083974Y-102761909D01*
X102874579Y-102772881D01*
X102635197Y-102786569D01*
X102363837Y-102803050D01*
X102058511Y-102822399D01*
X101717229Y-102844690D01*
X101338000Y-102870000D01*
X100918835Y-102898403D01*
X100854752Y-102902774D01*
X100660983Y-102914691D01*
X100437594Y-102926245D01*
X100197298Y-102936916D01*
X99952807Y-102946186D01*
X99716835Y-102953536D01*
X99502093Y-102958446D01*
X99482935Y-102958772D01*
X99287511Y-102961895D01*
X99127943Y-102964000D01*
X98997763Y-102964815D01*
X98890501Y-102964067D01*
X98799687Y-102961485D01*
X98718851Y-102956796D01*
X98641525Y-102949729D01*
X98561237Y-102940012D01*
X98471519Y-102927372D01*
X98368268Y-102911895D01*
X98231914Y-102891378D01*
X98130784Y-102876947D01*
X98058248Y-102868348D01*
X98007674Y-102865324D01*
X97972430Y-102867620D01*
X97945886Y-102874982D01*
X97921411Y-102887153D01*
X97909168Y-102894210D01*
X97858659Y-102932757D01*
X97827295Y-102982503D01*
X97814067Y-103050091D01*
X93373200Y-103050091D01*
X93372567Y-103007046D01*
X93372026Y-102800220D01*
X93374013Y-102599866D01*
X93378578Y-102414107D01*
X93385770Y-102251064D01*
X93395641Y-102118859D01*
X93400404Y-102076005D01*
X93493505Y-101496504D01*
X93623872Y-100936794D01*
X93791379Y-100397130D01*
X93995900Y-99877771D01*
X94237309Y-99378971D01*
X94515480Y-98900989D01*
X94830287Y-98444081D01*
X94922309Y-98329988D01*
X97922889Y-98329988D01*
X97924173Y-98410527D01*
X97927954Y-98515753D01*
X97934175Y-98649747D01*
X97942778Y-98816588D01*
X97953709Y-99020359D01*
X97957553Y-99091505D01*
X97962711Y-99200502D01*
X97968451Y-99345101D01*
X97974589Y-99518576D01*
X97980938Y-99714203D01*
X97987315Y-99925258D01*
X97993533Y-100145014D01*
X97999407Y-100366748D01*
X98004754Y-100583735D01*
X98009387Y-100789249D01*
X98013121Y-100976565D01*
X98015771Y-101138960D01*
X98017036Y-101252666D01*
X98019579Y-101348429D01*
X98027084Y-101414357D01*
X98041981Y-101462870D01*
X98066679Y-101506358D01*
X98083834Y-101532787D01*
X98099172Y-101555492D01*
X98115838Y-101574674D01*
X98136973Y-101590534D01*
X98165723Y-101603274D01*
X98205230Y-101613094D01*
X98258637Y-101620195D01*
X98329088Y-101624779D01*
X98419726Y-101627047D01*
X98533694Y-101627200D01*
X98674136Y-101625438D01*
X98844196Y-101621964D01*
X99047016Y-101616978D01*
X99285740Y-101610682D01*
X99563511Y-101603276D01*
X99576194Y-101602940D01*
X99807334Y-101596703D01*
X99999909Y-101591140D01*
X100157677Y-101586022D01*
X100284396Y-101581117D01*
X100383824Y-101576195D01*
X100459720Y-101571026D01*
X100515842Y-101565380D01*
X100555947Y-101559025D01*
X100583795Y-101551732D01*
X100603143Y-101543269D01*
X100609206Y-101539596D01*
X100653704Y-101502891D01*
X100679589Y-101468001D01*
X100681176Y-101435602D01*
X100676564Y-101370023D01*
X100666606Y-101279824D01*
X100652157Y-101173568D01*
X100646459Y-101135859D01*
X100616091Y-100926397D01*
X100584626Y-100684871D01*
X100552896Y-100419594D01*
X100521733Y-100138877D01*
X100491970Y-99851034D01*
X100464439Y-99564378D01*
X100439972Y-99287222D01*
X100419401Y-99027878D01*
X100403560Y-98794659D01*
X100394089Y-98615255D01*
X100385723Y-98449703D01*
X100375590Y-98320681D01*
X100374109Y-98309870D01*
X101173620Y-98309870D01*
X101178053Y-98383021D01*
X101179647Y-98401743D01*
X101185409Y-98467857D01*
X101194115Y-98567434D01*
X101205003Y-98691763D01*
X101217309Y-98832136D01*
X101230271Y-98979844D01*
X101234500Y-99028005D01*
X101249666Y-99224653D01*
X101262088Y-99440044D01*
X101271981Y-99679660D01*
X101279561Y-99948985D01*
X101285041Y-100253502D01*
X101286289Y-100350921D01*
X101289120Y-100570988D01*
X101292081Y-100752805D01*
X101295360Y-100900458D01*
X101299146Y-101018031D01*
X101303627Y-101109608D01*
X101308994Y-101179274D01*
X101315435Y-101231113D01*
X101323139Y-101269209D01*
X101329784Y-101291010D01*
X101354502Y-101352858D01*
X101377609Y-101399551D01*
X101384956Y-101410505D01*
X101425902Y-101436773D01*
X101496087Y-101449552D01*
X101598849Y-101448988D01*
X101737528Y-101435230D01*
X101788134Y-101428337D01*
X101869454Y-101417824D01*
X101950954Y-101410069D01*
X102039410Y-101404912D01*
X102141596Y-101402192D01*
X102264286Y-101401748D01*
X102414254Y-101403421D01*
X102598276Y-101407050D01*
X102643336Y-101408080D01*
X102825591Y-101413224D01*
X102994629Y-101419737D01*
X103144306Y-101427277D01*
X103268474Y-101435504D01*
X103360987Y-101444075D01*
X103405336Y-101450416D01*
X103546805Y-101467969D01*
X103658304Y-101460578D01*
X103744310Y-101427901D01*
X103750376Y-101424085D01*
X103813879Y-101362864D01*
X103849432Y-101286706D01*
X103854854Y-101207010D01*
X103827960Y-101135180D01*
X103809867Y-101113362D01*
X103753206Y-101072378D01*
X103679878Y-101050004D01*
X103583275Y-101045514D01*
X103456787Y-101058181D01*
X103396379Y-101067882D01*
X103259699Y-101087577D01*
X103122879Y-101098212D01*
X102976231Y-101099816D01*
X102810065Y-101092417D01*
X102614695Y-101076046D01*
X102558669Y-101070401D01*
X102431928Y-101058632D01*
X102302046Y-101048877D01*
X102183759Y-101042109D01*
X102091803Y-101039300D01*
X102087031Y-101039278D01*
X101979200Y-101034608D01*
X101888815Y-101022304D01*
X101837561Y-101007850D01*
X101801599Y-100990893D01*
X101772582Y-100970242D01*
X101749767Y-100941481D01*
X101732412Y-100900194D01*
X101719774Y-100841967D01*
X101711110Y-100762386D01*
X101705677Y-100657035D01*
X101702732Y-100521499D01*
X101701533Y-100351363D01*
X101701333Y-100198143D01*
X101699745Y-99955451D01*
X101695217Y-99725727D01*
X101688005Y-99516798D01*
X101678361Y-99336487D01*
X101669726Y-99225174D01*
X101650697Y-99002370D01*
X101638405Y-98820132D01*
X101632825Y-98677234D01*
X101633933Y-98572451D01*
X101641704Y-98504558D01*
X101654867Y-98473476D01*
X101684159Y-98465247D01*
X101750051Y-98458723D01*
X101846846Y-98453837D01*
X101968847Y-98450527D01*
X102110357Y-98448728D01*
X102265681Y-98448376D01*
X102429121Y-98449408D01*
X102594980Y-98451759D01*
X102757561Y-98455366D01*
X102911169Y-98460164D01*
X103050106Y-98466090D01*
X103168675Y-98473079D01*
X103261180Y-98481068D01*
X103321924Y-98489993D01*
X103331252Y-98492298D01*
X103476905Y-98519836D01*
X103599184Y-98513235D01*
X103697306Y-98472708D01*
X103770490Y-98398464D01*
X103787997Y-98368624D01*
X103813435Y-98286450D01*
X103798453Y-98216784D01*
X103743155Y-98159889D01*
X103695363Y-98134034D01*
X103647239Y-98114778D01*
X103601954Y-98103607D01*
X103548162Y-98099653D01*
X103474520Y-98102050D01*
X103374724Y-98109509D01*
X103281754Y-98114818D01*
X103153919Y-98118683D01*
X102998661Y-98121155D01*
X102823420Y-98122285D01*
X102635638Y-98122124D01*
X102442758Y-98120722D01*
X102252220Y-98118132D01*
X102071466Y-98114403D01*
X101907938Y-98109586D01*
X101769078Y-98103734D01*
X101674444Y-98097863D01*
X101567352Y-98090451D01*
X101492019Y-98088136D01*
X101438099Y-98091619D01*
X101395246Y-98101601D01*
X101353114Y-98118783D01*
X101350967Y-98119785D01*
X101284661Y-98156129D01*
X101226830Y-98196371D01*
X101215860Y-98205860D01*
X101190263Y-98233518D01*
X101176936Y-98264112D01*
X101173620Y-98309870D01*
X100374109Y-98309870D01*
X100362119Y-98222383D01*
X100343738Y-98149005D01*
X100318877Y-98094743D01*
X100285964Y-98053792D01*
X100243428Y-98020349D01*
X100230875Y-98012338D01*
X100197068Y-97994915D01*
X100156676Y-97982281D01*
X100105226Y-97974549D01*
X100038245Y-97971834D01*
X99951261Y-97974246D01*
X99839802Y-97981900D01*
X99699393Y-97994908D01*
X99525564Y-98013384D01*
X99335271Y-98034962D01*
X99157030Y-98055178D01*
X99012186Y-98070456D01*
X98892151Y-98081263D01*
X98788336Y-98088064D01*
X98692153Y-98091328D01*
X98595012Y-98091520D01*
X98488323Y-98089107D01*
X98397674Y-98085899D01*
X98025513Y-98071545D01*
X97970769Y-98136605D01*
X97955889Y-98154735D01*
X97943845Y-98173063D01*
X97934579Y-98195671D01*
X97928035Y-98226641D01*
X97924157Y-98270052D01*
X97922889Y-98329988D01*
X94922309Y-98329988D01*
X95181604Y-98008504D01*
X95569304Y-97594514D01*
X95629087Y-97535755D01*
X96043681Y-97158907D01*
X96473352Y-96820868D01*
X96920849Y-96519946D01*
X97388925Y-96254450D01*
X97880329Y-96022688D01*
X98397813Y-95822969D01*
X98436817Y-95809553D01*
X98976066Y-95647696D01*
X99522634Y-95527144D01*
X100074522Y-95447912D01*
X100629731Y-95410009D01*
X101186261Y-95413448D01*
G37*
D11*
%TO.C,C3*%
X114128000Y-91080000D02*
X114128000Y-90276000D01*
X114168000Y-91311000D02*
X114168000Y-90045000D01*
X114208000Y-91479000D02*
X114208000Y-89877000D01*
X114248000Y-91617000D02*
X114248000Y-89739000D01*
X114288000Y-91736000D02*
X114288000Y-89620000D01*
X114328000Y-91843000D02*
X114328000Y-89513000D01*
X114368000Y-91939000D02*
X114368000Y-89417000D01*
X114408000Y-92028000D02*
X114408000Y-89328000D01*
X114448000Y-92110000D02*
X114448000Y-89246000D01*
X114488000Y-92187000D02*
X114488000Y-89169000D01*
X114528000Y-92259000D02*
X114528000Y-89097000D01*
X114568000Y-92327000D02*
X114568000Y-89029000D01*
X114608000Y-92392000D02*
X114608000Y-88964000D01*
X114648000Y-92453000D02*
X114648000Y-88903000D01*
X114688000Y-92512000D02*
X114688000Y-88844000D01*
X114728000Y-92568000D02*
X114728000Y-88788000D01*
X114768000Y-92621000D02*
X114768000Y-88735000D01*
X114808000Y-92673000D02*
X114808000Y-88683000D01*
X114848000Y-92722000D02*
X114848000Y-88634000D01*
X114888000Y-92769000D02*
X114888000Y-88587000D01*
X114928000Y-92815000D02*
X114928000Y-88541000D01*
X114968000Y-92859000D02*
X114968000Y-88497000D01*
X115008000Y-92901000D02*
X115008000Y-88455000D01*
X115048000Y-92942000D02*
X115048000Y-88414000D01*
X115088000Y-89638000D02*
X115088000Y-88374000D01*
X115088000Y-92982000D02*
X115088000Y-91718000D01*
X115128000Y-89638000D02*
X115128000Y-88336000D01*
X115128000Y-93020000D02*
X115128000Y-91718000D01*
X115168000Y-89638000D02*
X115168000Y-88299000D01*
X115168000Y-93057000D02*
X115168000Y-91718000D01*
X115208000Y-89638000D02*
X115208000Y-88263000D01*
X115208000Y-93093000D02*
X115208000Y-91718000D01*
X115248000Y-89638000D02*
X115248000Y-88228000D01*
X115248000Y-93128000D02*
X115248000Y-91718000D01*
X115288000Y-89638000D02*
X115288000Y-88195000D01*
X115288000Y-93161000D02*
X115288000Y-91718000D01*
X115328000Y-89638000D02*
X115328000Y-88162000D01*
X115328000Y-93194000D02*
X115328000Y-91718000D01*
X115368000Y-89638000D02*
X115368000Y-88131000D01*
X115368000Y-93225000D02*
X115368000Y-91718000D01*
X115408000Y-89638000D02*
X115408000Y-88101000D01*
X115408000Y-93255000D02*
X115408000Y-91718000D01*
X115448000Y-89638000D02*
X115448000Y-88071000D01*
X115448000Y-93285000D02*
X115448000Y-91718000D01*
X115488000Y-89638000D02*
X115488000Y-88042000D01*
X115488000Y-93314000D02*
X115488000Y-91718000D01*
X115528000Y-89638000D02*
X115528000Y-88015000D01*
X115528000Y-93341000D02*
X115528000Y-91718000D01*
X115568000Y-89638000D02*
X115568000Y-87988000D01*
X115568000Y-93368000D02*
X115568000Y-91718000D01*
X115608000Y-89638000D02*
X115608000Y-87962000D01*
X115608000Y-93394000D02*
X115608000Y-91718000D01*
X115648000Y-89638000D02*
X115648000Y-87937000D01*
X115648000Y-93419000D02*
X115648000Y-91718000D01*
X115688000Y-89638000D02*
X115688000Y-87913000D01*
X115688000Y-93443000D02*
X115688000Y-91718000D01*
X115728000Y-89638000D02*
X115728000Y-87889000D01*
X115728000Y-93467000D02*
X115728000Y-91718000D01*
X115768000Y-89638000D02*
X115768000Y-87866000D01*
X115768000Y-93490000D02*
X115768000Y-91718000D01*
X115808000Y-89638000D02*
X115808000Y-87844000D01*
X115808000Y-93512000D02*
X115808000Y-91718000D01*
X115848000Y-89638000D02*
X115848000Y-87823000D01*
X115848000Y-93533000D02*
X115848000Y-91718000D01*
X115888000Y-89638000D02*
X115888000Y-87802000D01*
X115888000Y-93554000D02*
X115888000Y-91718000D01*
X115928000Y-89638000D02*
X115928000Y-87782000D01*
X115928000Y-93574000D02*
X115928000Y-91718000D01*
X115968000Y-89638000D02*
X115968000Y-87763000D01*
X115968000Y-93593000D02*
X115968000Y-91718000D01*
X116008000Y-89638000D02*
X116008000Y-87744000D01*
X116008000Y-93612000D02*
X116008000Y-91718000D01*
X116048000Y-89638000D02*
X116048000Y-87726000D01*
X116048000Y-93630000D02*
X116048000Y-91718000D01*
X116088000Y-89638000D02*
X116088000Y-87709000D01*
X116088000Y-93647000D02*
X116088000Y-91718000D01*
X116128000Y-89638000D02*
X116128000Y-87692000D01*
X116128000Y-93664000D02*
X116128000Y-91718000D01*
X116168000Y-89638000D02*
X116168000Y-87676000D01*
X116168000Y-93680000D02*
X116168000Y-91718000D01*
X116208000Y-89638000D02*
X116208000Y-87661000D01*
X116208000Y-93695000D02*
X116208000Y-91718000D01*
X116248000Y-89638000D02*
X116248000Y-87646000D01*
X116248000Y-93710000D02*
X116248000Y-91718000D01*
X116288000Y-89638000D02*
X116288000Y-87631000D01*
X116288000Y-93725000D02*
X116288000Y-91718000D01*
X116328000Y-89638000D02*
X116328000Y-87618000D01*
X116328000Y-93738000D02*
X116328000Y-91718000D01*
X116368000Y-89638000D02*
X116368000Y-87605000D01*
X116368000Y-93751000D02*
X116368000Y-91718000D01*
X116408000Y-89638000D02*
X116408000Y-87592000D01*
X116408000Y-93764000D02*
X116408000Y-91718000D01*
X116448000Y-89638000D02*
X116448000Y-87580000D01*
X116448000Y-93776000D02*
X116448000Y-91718000D01*
X116488000Y-89638000D02*
X116488000Y-87569000D01*
X116488000Y-93787000D02*
X116488000Y-91718000D01*
X116528000Y-89638000D02*
X116528000Y-87558000D01*
X116528000Y-93798000D02*
X116528000Y-91718000D01*
X116568000Y-89638000D02*
X116568000Y-87547000D01*
X116568000Y-93809000D02*
X116568000Y-91718000D01*
X116608000Y-89638000D02*
X116608000Y-87538000D01*
X116608000Y-93818000D02*
X116608000Y-91718000D01*
X116648000Y-89638000D02*
X116648000Y-87528000D01*
X116648000Y-93828000D02*
X116648000Y-91718000D01*
X116688000Y-89638000D02*
X116688000Y-87519000D01*
X116688000Y-93837000D02*
X116688000Y-91718000D01*
X116728000Y-89638000D02*
X116728000Y-87511000D01*
X116728000Y-93845000D02*
X116728000Y-91718000D01*
X116768000Y-89638000D02*
X116768000Y-87504000D01*
X116768000Y-93852000D02*
X116768000Y-91718000D01*
X116808000Y-89638000D02*
X116808000Y-87496000D01*
X116808000Y-93860000D02*
X116808000Y-91718000D01*
X116848000Y-89638000D02*
X116848000Y-87490000D01*
X116848000Y-93866000D02*
X116848000Y-91718000D01*
X116888000Y-89638000D02*
X116888000Y-87483000D01*
X116888000Y-93873000D02*
X116888000Y-91718000D01*
X116928000Y-89638000D02*
X116928000Y-87478000D01*
X116928000Y-93878000D02*
X116928000Y-91718000D01*
X116968000Y-89638000D02*
X116968000Y-87473000D01*
X116968000Y-93883000D02*
X116968000Y-91718000D01*
X117008000Y-89638000D02*
X117008000Y-87468000D01*
X117008000Y-93888000D02*
X117008000Y-91718000D01*
X117048000Y-89638000D02*
X117048000Y-87464000D01*
X117048000Y-93892000D02*
X117048000Y-91718000D01*
X117088000Y-89638000D02*
X117088000Y-87460000D01*
X117088000Y-93896000D02*
X117088000Y-91718000D01*
X117128000Y-89638000D02*
X117128000Y-87457000D01*
X117128000Y-93899000D02*
X117128000Y-91718000D01*
X117168000Y-93902000D02*
X117168000Y-87454000D01*
X117208000Y-93904000D02*
X117208000Y-87452000D01*
X117248000Y-93906000D02*
X117248000Y-87450000D01*
X117288000Y-93907000D02*
X117288000Y-87449000D01*
X117328000Y-93908000D02*
X117328000Y-87448000D01*
X117368000Y-93908000D02*
X117368000Y-87448000D01*
X120553241Y-92832000D02*
X120553241Y-92202000D01*
X120868241Y-92517000D02*
X120238241Y-92517000D01*
X120638000Y-90678000D02*
G75*
G02*
X114098000Y-90678000I-3270000J0D01*
G01*
X114098000Y-90678000D02*
G75*
G02*
X120638000Y-90678000I3270000J0D01*
G01*
%TO.C,L1*%
X81494000Y-83232000D02*
X85377000Y-83232000D01*
X81494000Y-88472000D02*
X81494000Y-83232000D01*
X85377000Y-88472000D02*
X81494000Y-88472000D01*
X87851000Y-83232000D02*
X91734000Y-83232000D01*
X91734000Y-83232000D02*
X91734000Y-88472000D01*
X91734000Y-88472000D02*
X87851000Y-88472000D01*
%TO.C,J4*%
X127182000Y-88311000D02*
X130702000Y-88311000D01*
X127182000Y-91126000D02*
X127782000Y-91126000D01*
X127182000Y-95086000D02*
X127782000Y-95086000D01*
X127182000Y-99046000D02*
X127782000Y-99046000D01*
X127182000Y-103006000D02*
X127782000Y-103006000D01*
X127182000Y-104221000D02*
X127182000Y-88311000D01*
X127782000Y-89526000D02*
X127182000Y-89526000D01*
X127782000Y-91126000D02*
X127782000Y-89526000D01*
X127782000Y-93486000D02*
X127182000Y-93486000D01*
X127782000Y-95086000D02*
X127782000Y-93486000D01*
X127782000Y-97446000D02*
X127182000Y-97446000D01*
X127782000Y-99046000D02*
X127782000Y-97446000D01*
X127782000Y-101406000D02*
X127182000Y-101406000D01*
X127782000Y-103006000D02*
X127782000Y-101406000D01*
X130702000Y-88311000D02*
X130702000Y-104221000D01*
X130702000Y-104221000D02*
X127182000Y-104221000D01*
X134002000Y-104511000D02*
X138002000Y-104511000D01*
%TO.C,J5*%
X127182000Y-70277000D02*
X130702000Y-70277000D01*
X127182000Y-73092000D02*
X127782000Y-73092000D01*
X127182000Y-77052000D02*
X127782000Y-77052000D01*
X127182000Y-81012000D02*
X127782000Y-81012000D01*
X127182000Y-84972000D02*
X127782000Y-84972000D01*
X127182000Y-86187000D02*
X127182000Y-70277000D01*
X127782000Y-71492000D02*
X127182000Y-71492000D01*
X127782000Y-73092000D02*
X127782000Y-71492000D01*
X127782000Y-75452000D02*
X127182000Y-75452000D01*
X127782000Y-77052000D02*
X127782000Y-75452000D01*
X127782000Y-79412000D02*
X127182000Y-79412000D01*
X127782000Y-81012000D02*
X127782000Y-79412000D01*
X127782000Y-83372000D02*
X127182000Y-83372000D01*
X127782000Y-84972000D02*
X127782000Y-83372000D01*
X130702000Y-70277000D02*
X130702000Y-86187000D01*
X130702000Y-86187000D02*
X127182000Y-86187000D01*
X134002000Y-86477000D02*
X138002000Y-86477000D01*
%TO.C,U1*%
X111730000Y-64400000D02*
X121950000Y-64400000D01*
X111730000Y-80270000D02*
X111730000Y-64400000D01*
X111730000Y-80270000D02*
X121950000Y-80270000D01*
X113815000Y-80270000D02*
X113815000Y-82710000D01*
X114785000Y-80270000D02*
X114785000Y-82710000D01*
X116355000Y-80270000D02*
X116355000Y-82710000D01*
X117325000Y-80270000D02*
X117325000Y-82710000D01*
X118895000Y-80270000D02*
X118895000Y-82710000D01*
X119865000Y-80270000D02*
X119865000Y-82710000D01*
X121950000Y-80270000D02*
X121950000Y-64400000D01*
%TO.C,R2*%
X73938000Y-105156000D02*
X74708000Y-105156000D01*
X82018000Y-105156000D02*
X81248000Y-105156000D01*
X81248000Y-106526000D02*
X74708000Y-106526000D01*
X74708000Y-103786000D01*
X81248000Y-103786000D01*
X81248000Y-106526000D01*
%TO.C,C2*%
X95285759Y-88839000D02*
X95915759Y-88839000D01*
X95600759Y-88524000D02*
X95600759Y-89154000D01*
X98786000Y-87448000D02*
X98786000Y-93908000D01*
X98826000Y-87448000D02*
X98826000Y-93908000D01*
X98866000Y-87449000D02*
X98866000Y-93907000D01*
X98906000Y-87450000D02*
X98906000Y-93906000D01*
X98946000Y-87452000D02*
X98946000Y-93904000D01*
X98986000Y-87454000D02*
X98986000Y-93902000D01*
X99026000Y-87457000D02*
X99026000Y-89638000D01*
X99026000Y-91718000D02*
X99026000Y-93899000D01*
X99066000Y-87460000D02*
X99066000Y-89638000D01*
X99066000Y-91718000D02*
X99066000Y-93896000D01*
X99106000Y-87464000D02*
X99106000Y-89638000D01*
X99106000Y-91718000D02*
X99106000Y-93892000D01*
X99146000Y-87468000D02*
X99146000Y-89638000D01*
X99146000Y-91718000D02*
X99146000Y-93888000D01*
X99186000Y-87473000D02*
X99186000Y-89638000D01*
X99186000Y-91718000D02*
X99186000Y-93883000D01*
X99226000Y-87478000D02*
X99226000Y-89638000D01*
X99226000Y-91718000D02*
X99226000Y-93878000D01*
X99266000Y-87483000D02*
X99266000Y-89638000D01*
X99266000Y-91718000D02*
X99266000Y-93873000D01*
X99306000Y-87490000D02*
X99306000Y-89638000D01*
X99306000Y-91718000D02*
X99306000Y-93866000D01*
X99346000Y-87496000D02*
X99346000Y-89638000D01*
X99346000Y-91718000D02*
X99346000Y-93860000D01*
X99386000Y-87504000D02*
X99386000Y-89638000D01*
X99386000Y-91718000D02*
X99386000Y-93852000D01*
X99426000Y-87511000D02*
X99426000Y-89638000D01*
X99426000Y-91718000D02*
X99426000Y-93845000D01*
X99466000Y-87519000D02*
X99466000Y-89638000D01*
X99466000Y-91718000D02*
X99466000Y-93837000D01*
X99506000Y-87528000D02*
X99506000Y-89638000D01*
X99506000Y-91718000D02*
X99506000Y-93828000D01*
X99546000Y-87538000D02*
X99546000Y-89638000D01*
X99546000Y-91718000D02*
X99546000Y-93818000D01*
X99586000Y-87547000D02*
X99586000Y-89638000D01*
X99586000Y-91718000D02*
X99586000Y-93809000D01*
X99626000Y-87558000D02*
X99626000Y-89638000D01*
X99626000Y-91718000D02*
X99626000Y-93798000D01*
X99666000Y-87569000D02*
X99666000Y-89638000D01*
X99666000Y-91718000D02*
X99666000Y-93787000D01*
X99706000Y-87580000D02*
X99706000Y-89638000D01*
X99706000Y-91718000D02*
X99706000Y-93776000D01*
X99746000Y-87592000D02*
X99746000Y-89638000D01*
X99746000Y-91718000D02*
X99746000Y-93764000D01*
X99786000Y-87605000D02*
X99786000Y-89638000D01*
X99786000Y-91718000D02*
X99786000Y-93751000D01*
X99826000Y-87618000D02*
X99826000Y-89638000D01*
X99826000Y-91718000D02*
X99826000Y-93738000D01*
X99866000Y-87631000D02*
X99866000Y-89638000D01*
X99866000Y-91718000D02*
X99866000Y-93725000D01*
X99906000Y-87646000D02*
X99906000Y-89638000D01*
X99906000Y-91718000D02*
X99906000Y-93710000D01*
X99946000Y-87661000D02*
X99946000Y-89638000D01*
X99946000Y-91718000D02*
X99946000Y-93695000D01*
X99986000Y-87676000D02*
X99986000Y-89638000D01*
X99986000Y-91718000D02*
X99986000Y-93680000D01*
X100026000Y-87692000D02*
X100026000Y-89638000D01*
X100026000Y-91718000D02*
X100026000Y-93664000D01*
X100066000Y-87709000D02*
X100066000Y-89638000D01*
X100066000Y-91718000D02*
X100066000Y-93647000D01*
X100106000Y-87726000D02*
X100106000Y-89638000D01*
X100106000Y-91718000D02*
X100106000Y-93630000D01*
X100146000Y-87744000D02*
X100146000Y-89638000D01*
X100146000Y-91718000D02*
X100146000Y-93612000D01*
X100186000Y-87763000D02*
X100186000Y-89638000D01*
X100186000Y-91718000D02*
X100186000Y-93593000D01*
X100226000Y-87782000D02*
X100226000Y-89638000D01*
X100226000Y-91718000D02*
X100226000Y-93574000D01*
X100266000Y-87802000D02*
X100266000Y-89638000D01*
X100266000Y-91718000D02*
X100266000Y-93554000D01*
X100306000Y-87823000D02*
X100306000Y-89638000D01*
X100306000Y-91718000D02*
X100306000Y-93533000D01*
X100346000Y-87844000D02*
X100346000Y-89638000D01*
X100346000Y-91718000D02*
X100346000Y-93512000D01*
X100386000Y-87866000D02*
X100386000Y-89638000D01*
X100386000Y-91718000D02*
X100386000Y-93490000D01*
X100426000Y-87889000D02*
X100426000Y-89638000D01*
X100426000Y-91718000D02*
X100426000Y-93467000D01*
X100466000Y-87913000D02*
X100466000Y-89638000D01*
X100466000Y-91718000D02*
X100466000Y-93443000D01*
X100506000Y-87937000D02*
X100506000Y-89638000D01*
X100506000Y-91718000D02*
X100506000Y-93419000D01*
X100546000Y-87962000D02*
X100546000Y-89638000D01*
X100546000Y-91718000D02*
X100546000Y-93394000D01*
X100586000Y-87988000D02*
X100586000Y-89638000D01*
X100586000Y-91718000D02*
X100586000Y-93368000D01*
X100626000Y-88015000D02*
X100626000Y-89638000D01*
X100626000Y-91718000D02*
X100626000Y-93341000D01*
X100666000Y-88042000D02*
X100666000Y-89638000D01*
X100666000Y-91718000D02*
X100666000Y-93314000D01*
X100706000Y-88071000D02*
X100706000Y-89638000D01*
X100706000Y-91718000D02*
X100706000Y-93285000D01*
X100746000Y-88101000D02*
X100746000Y-89638000D01*
X100746000Y-91718000D02*
X100746000Y-93255000D01*
X100786000Y-88131000D02*
X100786000Y-89638000D01*
X100786000Y-91718000D02*
X100786000Y-93225000D01*
X100826000Y-88162000D02*
X100826000Y-89638000D01*
X100826000Y-91718000D02*
X100826000Y-93194000D01*
X100866000Y-88195000D02*
X100866000Y-89638000D01*
X100866000Y-91718000D02*
X100866000Y-93161000D01*
X100906000Y-88228000D02*
X100906000Y-89638000D01*
X100906000Y-91718000D02*
X100906000Y-93128000D01*
X100946000Y-88263000D02*
X100946000Y-89638000D01*
X100946000Y-91718000D02*
X100946000Y-93093000D01*
X100986000Y-88299000D02*
X100986000Y-89638000D01*
X100986000Y-91718000D02*
X100986000Y-93057000D01*
X101026000Y-88336000D02*
X101026000Y-89638000D01*
X101026000Y-91718000D02*
X101026000Y-93020000D01*
X101066000Y-88374000D02*
X101066000Y-89638000D01*
X101066000Y-91718000D02*
X101066000Y-92982000D01*
X101106000Y-88414000D02*
X101106000Y-92942000D01*
X101146000Y-88455000D02*
X101146000Y-92901000D01*
X101186000Y-88497000D02*
X101186000Y-92859000D01*
X101226000Y-88541000D02*
X101226000Y-92815000D01*
X101266000Y-88587000D02*
X101266000Y-92769000D01*
X101306000Y-88634000D02*
X101306000Y-92722000D01*
X101346000Y-88683000D02*
X101346000Y-92673000D01*
X101386000Y-88735000D02*
X101386000Y-92621000D01*
X101426000Y-88788000D02*
X101426000Y-92568000D01*
X101466000Y-88844000D02*
X101466000Y-92512000D01*
X101506000Y-88903000D02*
X101506000Y-92453000D01*
X101546000Y-88964000D02*
X101546000Y-92392000D01*
X101586000Y-89029000D02*
X101586000Y-92327000D01*
X101626000Y-89097000D02*
X101626000Y-92259000D01*
X101666000Y-89169000D02*
X101666000Y-92187000D01*
X101706000Y-89246000D02*
X101706000Y-92110000D01*
X101746000Y-89328000D02*
X101746000Y-92028000D01*
X101786000Y-89417000D02*
X101786000Y-91939000D01*
X101826000Y-89513000D02*
X101826000Y-91843000D01*
X101866000Y-89620000D02*
X101866000Y-91736000D01*
X101906000Y-89739000D02*
X101906000Y-91617000D01*
X101946000Y-89877000D02*
X101946000Y-91479000D01*
X101986000Y-90045000D02*
X101986000Y-91311000D01*
X102026000Y-90276000D02*
X102026000Y-91080000D01*
X102056000Y-90678000D02*
G75*
G02*
X95516000Y-90678000I-3270000J0D01*
G01*
X95516000Y-90678000D02*
G75*
G02*
X102056000Y-90678000I3270000J0D01*
G01*
D13*
%TO.C,J2*%
X71374000Y-121666000D02*
X71374000Y-112522000D01*
D11*
X72514000Y-112534000D02*
X100714000Y-112534000D01*
X72514000Y-121654000D02*
X72514000Y-112534000D01*
X73814000Y-113844000D02*
X99414000Y-113844000D01*
X73814000Y-120344000D02*
X73814000Y-113844000D01*
X84564000Y-120344000D02*
X73814000Y-120344000D01*
X84564000Y-121654000D02*
X84564000Y-120344000D01*
X88664000Y-120344000D02*
X88664000Y-120344000D01*
X88664000Y-120344000D02*
X88664000Y-121654000D01*
X99414000Y-113844000D02*
X99414000Y-120344000D01*
X99414000Y-120344000D02*
X88664000Y-120344000D01*
X100714000Y-112534000D02*
X100714000Y-121654000D01*
X100714000Y-121654000D02*
X72514000Y-121654000D01*
%TO.C,C4*%
X105198000Y-91080000D02*
X105198000Y-90276000D01*
X105238000Y-91311000D02*
X105238000Y-90045000D01*
X105278000Y-91479000D02*
X105278000Y-89877000D01*
X105318000Y-91617000D02*
X105318000Y-89739000D01*
X105358000Y-91736000D02*
X105358000Y-89620000D01*
X105398000Y-91843000D02*
X105398000Y-89513000D01*
X105438000Y-91939000D02*
X105438000Y-89417000D01*
X105478000Y-92028000D02*
X105478000Y-89328000D01*
X105518000Y-92110000D02*
X105518000Y-89246000D01*
X105558000Y-92187000D02*
X105558000Y-89169000D01*
X105598000Y-92259000D02*
X105598000Y-89097000D01*
X105638000Y-92327000D02*
X105638000Y-89029000D01*
X105678000Y-92392000D02*
X105678000Y-88964000D01*
X105718000Y-92453000D02*
X105718000Y-88903000D01*
X105758000Y-92512000D02*
X105758000Y-88844000D01*
X105798000Y-92568000D02*
X105798000Y-88788000D01*
X105838000Y-92621000D02*
X105838000Y-88735000D01*
X105878000Y-92673000D02*
X105878000Y-88683000D01*
X105918000Y-92722000D02*
X105918000Y-88634000D01*
X105958000Y-92769000D02*
X105958000Y-88587000D01*
X105998000Y-92815000D02*
X105998000Y-88541000D01*
X106038000Y-92859000D02*
X106038000Y-88497000D01*
X106078000Y-92901000D02*
X106078000Y-88455000D01*
X106118000Y-92942000D02*
X106118000Y-88414000D01*
X106158000Y-89638000D02*
X106158000Y-88374000D01*
X106158000Y-92982000D02*
X106158000Y-91718000D01*
X106198000Y-89638000D02*
X106198000Y-88336000D01*
X106198000Y-93020000D02*
X106198000Y-91718000D01*
X106238000Y-89638000D02*
X106238000Y-88299000D01*
X106238000Y-93057000D02*
X106238000Y-91718000D01*
X106278000Y-89638000D02*
X106278000Y-88263000D01*
X106278000Y-93093000D02*
X106278000Y-91718000D01*
X106318000Y-89638000D02*
X106318000Y-88228000D01*
X106318000Y-93128000D02*
X106318000Y-91718000D01*
X106358000Y-89638000D02*
X106358000Y-88195000D01*
X106358000Y-93161000D02*
X106358000Y-91718000D01*
X106398000Y-89638000D02*
X106398000Y-88162000D01*
X106398000Y-93194000D02*
X106398000Y-91718000D01*
X106438000Y-89638000D02*
X106438000Y-88131000D01*
X106438000Y-93225000D02*
X106438000Y-91718000D01*
X106478000Y-89638000D02*
X106478000Y-88101000D01*
X106478000Y-93255000D02*
X106478000Y-91718000D01*
X106518000Y-89638000D02*
X106518000Y-88071000D01*
X106518000Y-93285000D02*
X106518000Y-91718000D01*
X106558000Y-89638000D02*
X106558000Y-88042000D01*
X106558000Y-93314000D02*
X106558000Y-91718000D01*
X106598000Y-89638000D02*
X106598000Y-88015000D01*
X106598000Y-93341000D02*
X106598000Y-91718000D01*
X106638000Y-89638000D02*
X106638000Y-87988000D01*
X106638000Y-93368000D02*
X106638000Y-91718000D01*
X106678000Y-89638000D02*
X106678000Y-87962000D01*
X106678000Y-93394000D02*
X106678000Y-91718000D01*
X106718000Y-89638000D02*
X106718000Y-87937000D01*
X106718000Y-93419000D02*
X106718000Y-91718000D01*
X106758000Y-89638000D02*
X106758000Y-87913000D01*
X106758000Y-93443000D02*
X106758000Y-91718000D01*
X106798000Y-89638000D02*
X106798000Y-87889000D01*
X106798000Y-93467000D02*
X106798000Y-91718000D01*
X106838000Y-89638000D02*
X106838000Y-87866000D01*
X106838000Y-93490000D02*
X106838000Y-91718000D01*
X106878000Y-89638000D02*
X106878000Y-87844000D01*
X106878000Y-93512000D02*
X106878000Y-91718000D01*
X106918000Y-89638000D02*
X106918000Y-87823000D01*
X106918000Y-93533000D02*
X106918000Y-91718000D01*
X106958000Y-89638000D02*
X106958000Y-87802000D01*
X106958000Y-93554000D02*
X106958000Y-91718000D01*
X106998000Y-89638000D02*
X106998000Y-87782000D01*
X106998000Y-93574000D02*
X106998000Y-91718000D01*
X107038000Y-89638000D02*
X107038000Y-87763000D01*
X107038000Y-93593000D02*
X107038000Y-91718000D01*
X107078000Y-89638000D02*
X107078000Y-87744000D01*
X107078000Y-93612000D02*
X107078000Y-91718000D01*
X107118000Y-89638000D02*
X107118000Y-87726000D01*
X107118000Y-93630000D02*
X107118000Y-91718000D01*
X107158000Y-89638000D02*
X107158000Y-87709000D01*
X107158000Y-93647000D02*
X107158000Y-91718000D01*
X107198000Y-89638000D02*
X107198000Y-87692000D01*
X107198000Y-93664000D02*
X107198000Y-91718000D01*
X107238000Y-89638000D02*
X107238000Y-87676000D01*
X107238000Y-93680000D02*
X107238000Y-91718000D01*
X107278000Y-89638000D02*
X107278000Y-87661000D01*
X107278000Y-93695000D02*
X107278000Y-91718000D01*
X107318000Y-89638000D02*
X107318000Y-87646000D01*
X107318000Y-93710000D02*
X107318000Y-91718000D01*
X107358000Y-89638000D02*
X107358000Y-87631000D01*
X107358000Y-93725000D02*
X107358000Y-91718000D01*
X107398000Y-89638000D02*
X107398000Y-87618000D01*
X107398000Y-93738000D02*
X107398000Y-91718000D01*
X107438000Y-89638000D02*
X107438000Y-87605000D01*
X107438000Y-93751000D02*
X107438000Y-91718000D01*
X107478000Y-89638000D02*
X107478000Y-87592000D01*
X107478000Y-93764000D02*
X107478000Y-91718000D01*
X107518000Y-89638000D02*
X107518000Y-87580000D01*
X107518000Y-93776000D02*
X107518000Y-91718000D01*
X107558000Y-89638000D02*
X107558000Y-87569000D01*
X107558000Y-93787000D02*
X107558000Y-91718000D01*
X107598000Y-89638000D02*
X107598000Y-87558000D01*
X107598000Y-93798000D02*
X107598000Y-91718000D01*
X107638000Y-89638000D02*
X107638000Y-87547000D01*
X107638000Y-93809000D02*
X107638000Y-91718000D01*
X107678000Y-89638000D02*
X107678000Y-87538000D01*
X107678000Y-93818000D02*
X107678000Y-91718000D01*
X107718000Y-89638000D02*
X107718000Y-87528000D01*
X107718000Y-93828000D02*
X107718000Y-91718000D01*
X107758000Y-89638000D02*
X107758000Y-87519000D01*
X107758000Y-93837000D02*
X107758000Y-91718000D01*
X107798000Y-89638000D02*
X107798000Y-87511000D01*
X107798000Y-93845000D02*
X107798000Y-91718000D01*
X107838000Y-89638000D02*
X107838000Y-87504000D01*
X107838000Y-93852000D02*
X107838000Y-91718000D01*
X107878000Y-89638000D02*
X107878000Y-87496000D01*
X107878000Y-93860000D02*
X107878000Y-91718000D01*
X107918000Y-89638000D02*
X107918000Y-87490000D01*
X107918000Y-93866000D02*
X107918000Y-91718000D01*
X107958000Y-89638000D02*
X107958000Y-87483000D01*
X107958000Y-93873000D02*
X107958000Y-91718000D01*
X107998000Y-89638000D02*
X107998000Y-87478000D01*
X107998000Y-93878000D02*
X107998000Y-91718000D01*
X108038000Y-89638000D02*
X108038000Y-87473000D01*
X108038000Y-93883000D02*
X108038000Y-91718000D01*
X108078000Y-89638000D02*
X108078000Y-87468000D01*
X108078000Y-93888000D02*
X108078000Y-91718000D01*
X108118000Y-89638000D02*
X108118000Y-87464000D01*
X108118000Y-93892000D02*
X108118000Y-91718000D01*
X108158000Y-89638000D02*
X108158000Y-87460000D01*
X108158000Y-93896000D02*
X108158000Y-91718000D01*
X108198000Y-89638000D02*
X108198000Y-87457000D01*
X108198000Y-93899000D02*
X108198000Y-91718000D01*
X108238000Y-93902000D02*
X108238000Y-87454000D01*
X108278000Y-93904000D02*
X108278000Y-87452000D01*
X108318000Y-93906000D02*
X108318000Y-87450000D01*
X108358000Y-93907000D02*
X108358000Y-87449000D01*
X108398000Y-93908000D02*
X108398000Y-87448000D01*
X108438000Y-93908000D02*
X108438000Y-87448000D01*
X111623241Y-92832000D02*
X111623241Y-92202000D01*
X111938241Y-92517000D02*
X111308241Y-92517000D01*
X111708000Y-90678000D02*
G75*
G02*
X105168000Y-90678000I-3270000J0D01*
G01*
X105168000Y-90678000D02*
G75*
G02*
X111708000Y-90678000I3270000J0D01*
G01*
D13*
%TO.C,J3*%
X106934000Y-121666000D02*
X106934000Y-112522000D01*
D11*
X108074000Y-112534000D02*
X136274000Y-112534000D01*
X108074000Y-121654000D02*
X108074000Y-112534000D01*
X109374000Y-113844000D02*
X134974000Y-113844000D01*
X109374000Y-120344000D02*
X109374000Y-113844000D01*
X120124000Y-120344000D02*
X109374000Y-120344000D01*
X120124000Y-121654000D02*
X120124000Y-120344000D01*
X124224000Y-120344000D02*
X124224000Y-120344000D01*
X124224000Y-120344000D02*
X124224000Y-121654000D01*
X134974000Y-113844000D02*
X134974000Y-120344000D01*
X134974000Y-120344000D02*
X124224000Y-120344000D01*
X136274000Y-112534000D02*
X136274000Y-121654000D01*
X136274000Y-121654000D02*
X108074000Y-121654000D01*
%TO.C,D1*%
X77978000Y-75254000D02*
X77978000Y-76274000D01*
X77978000Y-82734000D02*
X77978000Y-81714000D01*
X79448000Y-77054000D02*
X76508000Y-77054000D01*
X79448000Y-77174000D02*
X76508000Y-77174000D01*
X79448000Y-77294000D02*
X76508000Y-77294000D01*
X79448000Y-76274000D02*
X76508000Y-76274000D01*
X76508000Y-81714000D01*
X79448000Y-81714000D01*
X79448000Y-76274000D01*
%TO.C,C1*%
X84664000Y-77364000D02*
X84664000Y-76560000D01*
X84704000Y-77595000D02*
X84704000Y-76329000D01*
X84744000Y-77763000D02*
X84744000Y-76161000D01*
X84784000Y-77901000D02*
X84784000Y-76023000D01*
X84824000Y-78020000D02*
X84824000Y-75904000D01*
X84864000Y-78127000D02*
X84864000Y-75797000D01*
X84904000Y-78223000D02*
X84904000Y-75701000D01*
X84944000Y-78312000D02*
X84944000Y-75612000D01*
X84984000Y-78394000D02*
X84984000Y-75530000D01*
X85024000Y-78471000D02*
X85024000Y-75453000D01*
X85064000Y-78543000D02*
X85064000Y-75381000D01*
X85104000Y-78611000D02*
X85104000Y-75313000D01*
X85144000Y-78676000D02*
X85144000Y-75248000D01*
X85184000Y-78737000D02*
X85184000Y-75187000D01*
X85224000Y-78796000D02*
X85224000Y-75128000D01*
X85264000Y-78852000D02*
X85264000Y-75072000D01*
X85304000Y-78905000D02*
X85304000Y-75019000D01*
X85344000Y-78957000D02*
X85344000Y-74967000D01*
X85384000Y-79006000D02*
X85384000Y-74918000D01*
X85424000Y-79053000D02*
X85424000Y-74871000D01*
X85464000Y-79099000D02*
X85464000Y-74825000D01*
X85504000Y-79143000D02*
X85504000Y-74781000D01*
X85544000Y-79185000D02*
X85544000Y-74739000D01*
X85584000Y-79226000D02*
X85584000Y-74698000D01*
X85624000Y-75922000D02*
X85624000Y-74658000D01*
X85624000Y-79266000D02*
X85624000Y-78002000D01*
X85664000Y-75922000D02*
X85664000Y-74620000D01*
X85664000Y-79304000D02*
X85664000Y-78002000D01*
X85704000Y-75922000D02*
X85704000Y-74583000D01*
X85704000Y-79341000D02*
X85704000Y-78002000D01*
X85744000Y-75922000D02*
X85744000Y-74547000D01*
X85744000Y-79377000D02*
X85744000Y-78002000D01*
X85784000Y-75922000D02*
X85784000Y-74512000D01*
X85784000Y-79412000D02*
X85784000Y-78002000D01*
X85824000Y-75922000D02*
X85824000Y-74479000D01*
X85824000Y-79445000D02*
X85824000Y-78002000D01*
X85864000Y-75922000D02*
X85864000Y-74446000D01*
X85864000Y-79478000D02*
X85864000Y-78002000D01*
X85904000Y-75922000D02*
X85904000Y-74415000D01*
X85904000Y-79509000D02*
X85904000Y-78002000D01*
X85944000Y-75922000D02*
X85944000Y-74385000D01*
X85944000Y-79539000D02*
X85944000Y-78002000D01*
X85984000Y-75922000D02*
X85984000Y-74355000D01*
X85984000Y-79569000D02*
X85984000Y-78002000D01*
X86024000Y-75922000D02*
X86024000Y-74326000D01*
X86024000Y-79598000D02*
X86024000Y-78002000D01*
X86064000Y-75922000D02*
X86064000Y-74299000D01*
X86064000Y-79625000D02*
X86064000Y-78002000D01*
X86104000Y-75922000D02*
X86104000Y-74272000D01*
X86104000Y-79652000D02*
X86104000Y-78002000D01*
X86144000Y-75922000D02*
X86144000Y-74246000D01*
X86144000Y-79678000D02*
X86144000Y-78002000D01*
X86184000Y-75922000D02*
X86184000Y-74221000D01*
X86184000Y-79703000D02*
X86184000Y-78002000D01*
X86224000Y-75922000D02*
X86224000Y-74197000D01*
X86224000Y-79727000D02*
X86224000Y-78002000D01*
X86264000Y-75922000D02*
X86264000Y-74173000D01*
X86264000Y-79751000D02*
X86264000Y-78002000D01*
X86304000Y-75922000D02*
X86304000Y-74150000D01*
X86304000Y-79774000D02*
X86304000Y-78002000D01*
X86344000Y-75922000D02*
X86344000Y-74128000D01*
X86344000Y-79796000D02*
X86344000Y-78002000D01*
X86384000Y-75922000D02*
X86384000Y-74107000D01*
X86384000Y-79817000D02*
X86384000Y-78002000D01*
X86424000Y-75922000D02*
X86424000Y-74086000D01*
X86424000Y-79838000D02*
X86424000Y-78002000D01*
X86464000Y-75922000D02*
X86464000Y-74066000D01*
X86464000Y-79858000D02*
X86464000Y-78002000D01*
X86504000Y-75922000D02*
X86504000Y-74047000D01*
X86504000Y-79877000D02*
X86504000Y-78002000D01*
X86544000Y-75922000D02*
X86544000Y-74028000D01*
X86544000Y-79896000D02*
X86544000Y-78002000D01*
X86584000Y-75922000D02*
X86584000Y-74010000D01*
X86584000Y-79914000D02*
X86584000Y-78002000D01*
X86624000Y-75922000D02*
X86624000Y-73993000D01*
X86624000Y-79931000D02*
X86624000Y-78002000D01*
X86664000Y-75922000D02*
X86664000Y-73976000D01*
X86664000Y-79948000D02*
X86664000Y-78002000D01*
X86704000Y-75922000D02*
X86704000Y-73960000D01*
X86704000Y-79964000D02*
X86704000Y-78002000D01*
X86744000Y-75922000D02*
X86744000Y-73945000D01*
X86744000Y-79979000D02*
X86744000Y-78002000D01*
X86784000Y-75922000D02*
X86784000Y-73930000D01*
X86784000Y-79994000D02*
X86784000Y-78002000D01*
X86824000Y-75922000D02*
X86824000Y-73915000D01*
X86824000Y-80009000D02*
X86824000Y-78002000D01*
X86864000Y-75922000D02*
X86864000Y-73902000D01*
X86864000Y-80022000D02*
X86864000Y-78002000D01*
X86904000Y-75922000D02*
X86904000Y-73889000D01*
X86904000Y-80035000D02*
X86904000Y-78002000D01*
X86944000Y-75922000D02*
X86944000Y-73876000D01*
X86944000Y-80048000D02*
X86944000Y-78002000D01*
X86984000Y-75922000D02*
X86984000Y-73864000D01*
X86984000Y-80060000D02*
X86984000Y-78002000D01*
X87024000Y-75922000D02*
X87024000Y-73853000D01*
X87024000Y-80071000D02*
X87024000Y-78002000D01*
X87064000Y-75922000D02*
X87064000Y-73842000D01*
X87064000Y-80082000D02*
X87064000Y-78002000D01*
X87104000Y-75922000D02*
X87104000Y-73831000D01*
X87104000Y-80093000D02*
X87104000Y-78002000D01*
X87144000Y-75922000D02*
X87144000Y-73822000D01*
X87144000Y-80102000D02*
X87144000Y-78002000D01*
X87184000Y-75922000D02*
X87184000Y-73812000D01*
X87184000Y-80112000D02*
X87184000Y-78002000D01*
X87224000Y-75922000D02*
X87224000Y-73803000D01*
X87224000Y-80121000D02*
X87224000Y-78002000D01*
X87264000Y-75922000D02*
X87264000Y-73795000D01*
X87264000Y-80129000D02*
X87264000Y-78002000D01*
X87304000Y-75922000D02*
X87304000Y-73788000D01*
X87304000Y-80136000D02*
X87304000Y-78002000D01*
X87344000Y-75922000D02*
X87344000Y-73780000D01*
X87344000Y-80144000D02*
X87344000Y-78002000D01*
X87384000Y-75922000D02*
X87384000Y-73774000D01*
X87384000Y-80150000D02*
X87384000Y-78002000D01*
X87424000Y-75922000D02*
X87424000Y-73767000D01*
X87424000Y-80157000D02*
X87424000Y-78002000D01*
X87464000Y-75922000D02*
X87464000Y-73762000D01*
X87464000Y-80162000D02*
X87464000Y-78002000D01*
X87504000Y-75922000D02*
X87504000Y-73757000D01*
X87504000Y-80167000D02*
X87504000Y-78002000D01*
X87544000Y-75922000D02*
X87544000Y-73752000D01*
X87544000Y-80172000D02*
X87544000Y-78002000D01*
X87584000Y-75922000D02*
X87584000Y-73748000D01*
X87584000Y-80176000D02*
X87584000Y-78002000D01*
X87624000Y-75922000D02*
X87624000Y-73744000D01*
X87624000Y-80180000D02*
X87624000Y-78002000D01*
X87664000Y-75922000D02*
X87664000Y-73741000D01*
X87664000Y-80183000D02*
X87664000Y-78002000D01*
X87704000Y-80186000D02*
X87704000Y-73738000D01*
X87744000Y-80188000D02*
X87744000Y-73736000D01*
X87784000Y-80190000D02*
X87784000Y-73734000D01*
X87824000Y-80191000D02*
X87824000Y-73733000D01*
X87864000Y-80192000D02*
X87864000Y-73732000D01*
X87904000Y-80192000D02*
X87904000Y-73732000D01*
X91089241Y-79116000D02*
X91089241Y-78486000D01*
X91404241Y-78801000D02*
X90774241Y-78801000D01*
X91174000Y-76962000D02*
G75*
G02*
X84634000Y-76962000I-3270000J0D01*
G01*
X84634000Y-76962000D02*
G75*
G02*
X91174000Y-76962000I3270000J0D01*
G01*
%TO.C,U2*%
X97760000Y-64400000D02*
X107980000Y-64400000D01*
X97760000Y-80270000D02*
X97760000Y-64400000D01*
X97760000Y-80270000D02*
X107980000Y-80270000D01*
X99845000Y-80270000D02*
X99845000Y-82710000D01*
X100815000Y-80270000D02*
X100815000Y-82710000D01*
X102385000Y-80270000D02*
X102385000Y-82710000D01*
X103355000Y-80270000D02*
X103355000Y-82710000D01*
X104925000Y-80270000D02*
X104925000Y-82710000D01*
X105895000Y-80270000D02*
X105895000Y-82710000D01*
X107980000Y-80270000D02*
X107980000Y-64400000D01*
%TO.C,D2*%
X65253000Y-90403000D02*
X65253000Y-93493000D01*
X65253000Y-90403170D02*
G75*
G02*
X70803000Y-91948000I2560000J-1544830D01*
G01*
X70803000Y-91948000D02*
G75*
G02*
X65253000Y-93492830I-2990000J0D01*
G01*
X70313000Y-91948000D02*
G75*
G02*
X65313000Y-91948000I-2500000J0D01*
G01*
X65313000Y-91948000D02*
G75*
G02*
X70313000Y-91948000I2500000J0D01*
G01*
%TO.C,D4*%
X70378000Y-100097000D02*
X70378000Y-97007000D01*
X64828000Y-98552000D02*
G75*
G02*
X70378000Y-97007170I2990000J0D01*
G01*
X70378000Y-100096830D02*
G75*
G02*
X64828000Y-98552000I-2560000J1544830D01*
G01*
X70318000Y-98552000D02*
G75*
G02*
X65318000Y-98552000I-2500000J0D01*
G01*
X65318000Y-98552000D02*
G75*
G02*
X70318000Y-98552000I2500000J0D01*
G01*
%TD*%
M02*
