M48
; DRILL file {KiCad 9.0.3} date 2025-08-01T18:14:28+0100
; FORMAT={-:-/ absolute / inch / decimal}
; #@! TF.CreationDate,2025-08-01T18:14:28+01:00
; #@! TF.GenerationSoftware,Kicad,Pcbnew,9.0.3
; #@! TF.FileFunction,Plated,1,2,PTH
FMAT,2
INCH
; #@! TA.AperFunction,Plated,PTH,ComponentDrill
T1C0.0315
; #@! TA.AperFunction,Plated,PTH,ComponentDrill
T2C0.0354
; #@! TA.AperFunction,Plated,PTH,ComponentDrill
T3C0.0394
; #@! TA.AperFunction,Plated,PTH,ComponentDrill
T4C0.0433
; #@! TA.AperFunction,Plated,PTH,ComponentDrill
T5C0.0512
; #@! TA.AperFunction,Plated,PTH,ComponentDrill
T6C0.0669
; #@! TA.AperFunction,Plated,PTH,ComponentDrill
T7C0.1260
%
G90
G05
T1
X2.87Y-3.66
X2.87Y-3.88
X2.87Y-4.14
X3.27Y-3.66
X3.27Y-3.88
X3.27Y-4.14
X3.4116Y-3.03
X3.51Y-3.03
X3.84Y-3.57
X3.9384Y-3.57
X4.22Y-3.57
X4.3184Y-3.57
X4.5716Y-3.57
X4.67Y-3.57
T2
X2.6198Y-3.62
X2.62Y-3.88
X2.62Y-4.14
X2.7198Y-3.62
X2.72Y-3.88
X2.72Y-4.14
T3
X3.06Y-4.56
X3.06Y-4.66
X3.16Y-4.56
X3.16Y-4.66
X3.26Y-4.56
X3.26Y-4.66
X3.36Y-4.56
X3.36Y-4.66
X3.41Y-3.28
X3.41Y-3.48
X3.46Y-4.56
X3.46Y-4.66
X3.56Y-4.56
X3.56Y-4.66
X3.66Y-4.56
X3.66Y-4.66
X3.76Y-4.56
X3.76Y-4.66
X4.46Y-4.56
X4.46Y-4.66
X4.56Y-4.56
X4.56Y-4.66
X4.66Y-4.56
X4.66Y-4.66
X4.76Y-4.56
X4.76Y-4.66
X4.86Y-4.56
X4.86Y-4.66
X4.96Y-4.56
X4.96Y-4.66
X5.06Y-4.56
X5.06Y-4.66
X5.16Y-4.56
X5.16Y-4.66
T4
X3.07Y-2.91
X3.07Y-3.31
X3.95Y-3.3059
X4.05Y-3.3059
X4.15Y-3.3059
X4.5Y-3.3059
X4.6Y-3.3059
X4.7Y-3.3059
T5
X2.71Y-3.0
X2.71Y-3.2
X2.8037Y-2.62
X3.032Y-2.62
X3.3824Y-2.62
X3.6108Y-2.62
T6
X5.3544Y-2.8461
X5.3544Y-3.002
X5.3544Y-3.158
X5.3544Y-3.3139
X5.3544Y-3.5561
X5.3544Y-3.712
X5.3544Y-3.868
X5.3544Y-4.0239
T7
X2.5Y-2.5
X2.5Y-5.0
X5.5Y-2.5
X5.5Y-5.0
M30
